<svg width="225" height="417" viewBox="0 0 225 417" fill="none" xmlns="http://www.w3.org/2000/svg">
<path d="M152.971 321.732C135.948 309.843 132.091 287.773 132.763 267.929C132.873 264.623 132.51 261.119 134.086 258.221C135.661 255.323 139.341 253.329 142.305 254.717C144.763 255.874 145.831 258.739 147.209 261.108C149.046 264.263 151.74 266.834 154.977 268.524C157.081 269.626 159.693 270.287 161.775 269.141C164.64 267.565 164.971 263.631 164.949 260.326C164.949 254.177 164.912 248.036 164.838 241.903C164.64 238.609 164.975 235.305 165.83 232.118C166.855 228.989 169.136 226.091 172.254 225.21C175.372 224.328 179.262 226.146 179.967 229.364C180.088 230.726 180.121 232.095 180.066 233.462C180.154 234.84 180.793 236.349 182.082 236.768C183.372 237.187 184.716 236.228 185.708 235.259C189.101 231.953 191.415 227.645 193.564 223.391C195.712 219.138 197.817 214.764 200.902 211.139C203.987 207.514 208.252 204.638 213.023 204.362C217.794 204.087 222.763 207.018 223.953 211.646C225.143 216.273 222.444 221 219.546 224.758C215.173 230.335 210.018 235.252 204.241 239.357C203.113 239.973 202.213 240.935 201.674 242.101C200.957 244.305 203.04 246.508 205.211 247.203C207.668 248.018 210.334 247.765 212.924 248.073C215.513 248.382 218.268 249.506 219.248 251.93C220.592 255.301 217.772 258.827 215.006 261.141C209.453 265.769 203.147 269.41 196.363 271.906C193.938 272.788 191.393 273.57 189.432 275.267C187.471 276.964 186.303 279.928 187.482 282.253C188.661 284.578 191.691 285.316 194.236 284.842C196.781 284.368 199.04 283.002 201.464 282.088C205.993 280.38 211.833 280.688 214.686 284.6C215.571 285.947 216.13 287.481 216.321 289.082C216.513 290.682 216.33 292.305 215.788 293.822C214.686 296.843 212.988 299.612 210.797 301.965C203.58 310.587 194.203 317.139 183.625 320.95C173.124 324.586 163.395 325.578 152.96 321.754" fill="#0A1128"/>
<path d="M219.105 207.084C219.105 207.084 219.006 207.194 218.785 207.392L217.805 208.263C216.945 209.034 215.678 210.158 214.081 211.646C209.551 215.852 205.344 220.393 201.497 225.232C199.04 228.284 196.495 231.744 193.784 235.501C191.074 239.258 188.275 243.313 185.498 247.621C182.538 252.164 179.827 256.865 177.378 261.703C176.099 264.226 174.976 266.86 173.819 269.548L170.403 277.757C165.9 288.097 161.979 298.68 158.657 309.458C155.981 318.276 154.137 327.325 153.148 336.486C152.507 342.669 152.404 348.896 152.839 355.097C153.016 357.3 153.181 358.986 153.335 360.132C153.401 360.683 153.445 361.124 153.489 361.443V361.895C153.442 361.752 153.409 361.604 153.39 361.454C153.335 361.135 153.269 360.705 153.181 360.154C152.982 359.052 152.773 357.311 152.575 355.108C152.043 348.895 152.08 342.648 152.685 336.442C153.613 327.241 155.417 318.15 158.073 309.292C161.367 298.485 165.278 287.875 169.786 277.515L173.29 269.339C174.447 266.661 175.582 264.006 176.871 261.472C179.337 256.619 182.07 251.907 185.058 247.357C187.878 242.949 190.721 238.961 193.399 235.236C196.076 231.512 198.666 228.03 201.112 224.989C204.998 220.163 209.261 215.654 213.86 211.502C215.491 210.037 216.791 208.935 217.673 208.197L218.697 207.37C218.823 207.261 218.96 207.165 219.105 207.084Z" fill="#263238"/>
<path d="M177.014 261.45C176.859 260.996 176.751 260.527 176.695 260.05C176.518 259.136 176.32 257.847 176.088 256.172C175.615 252.866 175.13 248.338 174.612 243.324C174.094 238.311 173.51 233.771 173.025 230.498C172.772 228.868 172.552 227.557 172.397 226.642C172.277 226.174 172.214 225.693 172.21 225.21C172.4 225.651 172.537 226.113 172.618 226.587C172.86 227.49 173.136 228.791 173.444 230.432C174.072 233.738 174.689 238.234 175.207 243.258C175.725 248.282 176.166 252.69 176.507 256.117C176.672 257.659 176.816 258.971 176.926 260.017C177.012 260.49 177.041 260.97 177.014 261.45Z" fill="#263238"/>
<path d="M219.413 253.538C218.877 253.655 218.331 253.721 217.783 253.737C216.681 253.836 215.116 253.968 213.177 254.188C209.298 254.607 203.965 255.378 198.115 256.48C192.264 257.582 187.008 258.827 183.228 259.786C181.344 260.271 179.824 260.711 178.821 261.009C178.286 261.199 177.732 261.332 177.168 261.406C177.677 261.149 178.208 260.939 178.755 260.777C179.791 260.414 181.289 259.907 183.162 259.367C186.92 258.265 192.176 256.954 198.048 255.83C203.023 254.879 208.043 254.18 213.089 253.737C215.039 253.571 216.615 253.505 217.717 253.483C218.283 253.445 218.851 253.463 219.413 253.538Z" fill="#263238"/>
<path d="M158.613 308.521C158.495 308.361 158.399 308.187 158.326 308.003L157.599 306.471C156.971 305.138 156.123 303.166 155.109 300.753C153.06 295.905 150.448 289.117 147.671 281.58C144.895 274.044 142.338 267.256 140.399 262.353C139.452 259.973 138.669 258.023 138.085 256.568L137.468 254.993C137.383 254.811 137.323 254.618 137.292 254.42C137.409 254.579 137.506 254.753 137.578 254.938L138.306 256.469C138.923 257.802 139.782 259.775 140.796 262.188C142.845 267.036 145.457 273.823 148.233 281.36C151.01 288.897 153.566 295.684 155.506 300.588C156.453 302.968 157.236 304.918 157.809 306.372C158.062 307 158.271 307.474 158.437 307.948C158.522 308.13 158.582 308.323 158.613 308.521Z" fill="#263238"/>
<path d="M214.896 290.374C214.72 290.475 214.531 290.553 214.334 290.605L212.703 291.156L206.676 293.106C201.586 294.759 194.556 297.117 186.843 299.717C179.13 302.318 172.067 304.632 166.943 306.174C164.387 306.957 162.304 307.552 160.861 307.948L159.197 308.378C159.004 308.439 158.804 308.48 158.602 308.499C158.778 308.398 158.967 308.32 159.164 308.268L160.795 307.717L166.822 305.767C171.912 304.114 178.942 301.756 186.655 299.155C194.368 296.555 201.42 294.241 206.544 292.698C209.111 291.916 211.183 291.321 212.637 290.924L214.301 290.495C214.494 290.433 214.694 290.393 214.896 290.374Z" fill="#263238"/>
<path d="M191.933 23.0955L186.258 25.123L183.823 17.7075C179.35 4.03339 165.092 -3.22787 151.991 1.38892C138.889 6.00571 131.915 21.002 136.388 34.6761L138.823 42.0916L133.127 44.13C130.954 44.9726 129.191 46.6198 128.201 48.7293C127.212 50.8389 127.074 53.2484 127.816 55.4572L143.605 103.708C143.933 104.801 144.477 105.817 145.206 106.696C145.934 107.575 146.831 108.299 147.845 108.824C148.858 109.349 149.967 109.665 151.105 109.754C152.243 109.842 153.387 109.701 154.47 109.338L213.276 88.3036C215.477 87.4625 217.266 85.8007 218.267 83.6676C219.267 81.5345 219.402 79.0965 218.642 76.8663L202.841 28.6159C202.505 27.5255 201.953 26.5141 201.217 25.6419C200.481 24.7698 199.577 24.0548 198.559 23.5395C197.541 23.0243 196.43 22.7195 195.291 22.6432C194.153 22.5669 193.011 22.7208 191.933 23.0955ZM147.109 30.8086C145.903 27.2531 146.12 23.3688 147.714 19.9694C149.307 16.57 152.155 13.9194 155.66 12.5728C157.39 11.9807 159.222 11.7432 161.047 11.8746C162.871 12.006 164.65 12.5036 166.278 13.3376C167.906 14.1716 169.349 15.3249 170.522 16.7288C171.694 18.1327 172.572 19.7584 173.102 21.5089L175.526 28.9244L149.533 38.2241L147.109 30.8086ZM180.165 73.6268L184.198 85.9456C184.272 86.1926 184.248 86.4586 184.131 86.6885C184.014 86.9183 183.813 87.0942 183.57 87.1797L177.917 89.1961C177.692 89.2584 177.452 89.2313 177.247 89.1204C177.041 89.0095 176.887 88.8234 176.815 88.6011L172.75 76.3374C170.508 76.2152 168.357 75.4111 166.584 74.0327C164.812 72.6542 163.503 70.7672 162.833 68.6244C161.875 65.7914 162.049 62.6976 163.321 59.9906C164.592 57.2836 166.861 55.1734 169.653 54.1019C171.032 53.6309 172.491 53.4422 173.944 53.5471C175.397 53.6521 176.814 54.0485 178.111 54.7127C179.407 55.3769 180.557 56.2954 181.491 57.4134C182.425 58.5313 183.125 59.8259 183.548 61.2199C184.257 63.3966 184.315 65.7329 183.716 67.9425C183.118 70.1521 181.887 72.139 180.176 73.6599L180.165 73.6268Z" fill="#0A1128"/>
<path d="M186.005 24.9907C186.005 25.145 175.482 29.1006 162.392 33.8056C149.302 38.5105 138.625 42.2899 138.57 42.1797C138.515 42.0695 149.093 38.0808 162.194 33.3648C175.295 28.6489 185.95 24.8475 186.005 24.9907Z" fill="#263238"/>
<path d="M198.5 27.018C198.549 27.1136 198.589 27.2131 198.621 27.3155C198.709 27.5359 198.809 27.8224 198.941 28.175C199.227 28.9793 199.624 30.0922 200.12 31.4805L204.351 43.7993C206.114 49.0221 208.218 55.2146 210.554 62.0902C211.656 65.539 212.956 69.1311 214.168 72.9104C214.817 74.858 215.097 76.9094 214.995 78.9596C214.901 80.0259 214.598 81.0632 214.102 82.0118C213.573 82.9573 212.866 83.7916 212.02 84.4689C210.318 85.7116 208.428 86.6749 206.422 87.3228L200.748 89.3612L190.005 93.2067L171.813 99.6856L159.527 104.005L156.222 105.107L155.34 105.393C155.246 105.435 155.145 105.461 155.043 105.47C155.043 105.47 155.131 105.47 155.318 105.338L156.178 104.997L159.483 103.751L171.703 99.2559L189.861 92.6447L200.583 88.7662L206.257 86.7167C208.206 86.0953 210.04 85.1612 211.689 83.9511C212.476 83.3225 213.135 82.5481 213.629 81.6702C214.095 80.7929 214.376 79.829 214.455 78.8384C214.556 76.863 214.287 74.8861 213.662 73.0096C212.472 69.2633 211.216 65.6382 210.081 62.1894C207.789 55.3027 205.673 49.0882 203.998 43.8654C202.323 38.6426 200.913 34.4445 199.943 31.4916C199.481 30.0481 199.128 28.9242 198.842 28.1088L198.577 27.2274C198.544 27.1606 198.518 27.0904 198.5 27.018Z" fill="#263238"/>
<path d="M167.472 11.8234C167.472 11.8234 166.888 11.5369 165.808 11.0961C164.269 10.5047 162.641 10.1769 160.993 10.1265C158.55 10.0427 156.119 10.5018 153.875 11.4708C151.146 12.6773 148.813 14.6288 147.142 17.1013C145.461 19.5667 144.559 22.4803 144.553 25.4644C144.576 27.9102 144.947 30.3403 145.655 32.6816C146.228 34.6869 146.823 36.2846 147.22 37.3975C147.454 37.9628 147.645 38.5447 147.793 39.1384C147.48 38.6099 147.218 38.0528 147.01 37.4746C146.558 36.3728 145.908 34.8081 145.269 32.7917C144.485 30.4259 144.058 27.9563 144.002 25.4644C143.973 22.3675 144.896 19.3364 146.647 16.7817C148.375 14.2189 150.804 12.2071 153.643 10.9859C155.957 10.0117 158.464 9.58197 160.971 9.72983C162.655 9.81564 164.309 10.2077 165.852 10.8868C166.265 11.0771 166.662 11.2981 167.042 11.5479C167.199 11.6168 167.344 11.7097 167.472 11.8234Z" fill="#263238"/>
<path d="M167.979 54.939C168.154 54.8325 168.339 54.7403 168.53 54.6636C169.081 54.4147 169.652 54.212 170.237 54.0575C171.166 53.7834 172.124 53.6207 173.091 53.5727C174.407 53.502 175.723 53.7008 176.959 54.1567C179.78 55.1484 182.369 58.0242 183.647 61.8697C184.26 63.9334 184.26 66.1307 183.647 68.1944C182.967 70.4342 181.749 72.4734 180.099 74.1334L180.165 73.8359C181.631 77.8577 183.228 82.2211 184.881 86.7717L184.98 87.0472L184.705 87.1464L182.182 87.9838L176.672 89.8239L176.397 89.912L176.309 89.6366C174.799 85.0749 173.146 80.8217 171.901 76.6456L172.144 76.833C169.99 76.654 167.936 75.8455 166.238 74.508C164.701 73.3248 163.442 71.8207 162.546 70.1006C161.739 68.5752 161.336 66.8678 161.378 65.1422C161.429 63.3787 161.87 61.6482 162.668 60.0747C163.466 58.5013 164.602 57.1238 165.995 56.0409C166.569 55.5755 167.212 55.2036 167.901 54.939C167.279 55.3083 166.676 55.7092 166.094 56.1401C164.564 57.4346 163.392 59.1001 162.69 60.9772C162.087 62.3927 161.805 63.9241 161.864 65.4615C161.923 66.9989 162.322 68.5041 163.031 69.8692C163.912 71.524 165.141 72.9677 166.634 74.1004C168.254 75.3716 170.212 76.1381 172.265 76.3041H172.452L172.507 76.4694C173.719 80.5683 175.383 84.8545 176.915 89.4382L176.551 89.2619L182.06 87.4218L184.573 86.5734L184.396 86.948C182.755 82.3973 181.168 78.023 179.713 74.0012V73.8359L179.846 73.7037C181.448 72.1125 182.642 70.1583 183.328 68.0071C183.912 66.033 183.912 63.9319 183.328 61.9579C182.126 58.2556 179.647 55.4459 176.959 54.4542C175.769 53.9953 174.498 53.7817 173.223 53.8261C172.272 53.848 171.325 53.9773 170.403 54.2118C168.761 54.6195 167.99 54.9941 167.979 54.939Z" fill="#263238"/>
<path d="M133.92 373.09L23.8554 372.583C17.4993 372.548 11.4169 369.992 6.94409 365.476C2.47129 360.96 -0.026167 354.853 0.000206781 348.497L1.16817 72.58C1.18116 69.431 1.81464 66.3153 3.03242 63.4112C4.2502 60.5071 6.0284 57.8715 8.26534 55.6551C10.5023 53.4386 13.1541 51.6847 16.0693 50.4937C18.9845 49.3026 22.1058 48.6978 25.2548 48.7137L135.308 49.2206C141.665 49.2527 147.748 51.8062 152.223 56.3203C156.698 60.8344 159.198 66.94 159.175 73.2962L158.007 349.202C157.994 352.352 157.36 355.469 156.143 358.374C154.925 361.279 153.148 363.916 150.911 366.134C148.674 368.353 146.023 370.109 143.107 371.302C140.192 372.496 137.07 373.103 133.92 373.09Z" fill="#455A64"/>
<path d="M135.143 58.7077H113.811C113.115 58.7206 112.429 58.8705 111.79 59.1488C111.152 59.4272 110.575 59.8285 110.092 60.3299C109.609 60.8312 109.23 61.4229 108.976 62.0709C108.721 62.719 108.597 63.4108 108.61 64.1068V67.9743C108.624 68.6698 108.499 69.3611 108.245 70.0085C107.991 70.6559 107.611 71.2468 107.128 71.7473C106.645 72.2478 106.068 72.6481 105.43 72.9252C104.792 73.2024 104.105 73.351 103.41 73.3624L61.8255 73.1751C60.4188 73.1376 59.0844 72.5433 58.1155 71.5227C57.1465 70.5021 56.6223 69.1387 56.6578 67.7319V63.8644C56.6934 62.4594 56.1706 61.0977 55.204 60.0774C54.2375 59.0571 52.9059 58.4616 51.5011 58.4212H43.9974L25.3209 58.3331C20.8787 58.3066 16.6069 60.0415 13.441 63.1578C10.2751 66.2741 8.47307 70.518 8.42943 74.9601L7.32757 344.277C7.31742 346.48 7.74143 348.664 8.5754 350.704C9.40937 352.744 10.637 354.6 12.1881 356.165C13.7392 357.731 15.5835 358.975 17.6157 359.828C19.6478 360.681 21.828 361.125 24.0318 361.135L133.865 361.642C136.07 361.652 138.256 361.228 140.297 360.393C142.338 359.559 144.195 358.33 145.762 356.778C147.328 355.226 148.574 353.38 149.427 351.347C150.28 349.313 150.724 347.132 150.735 344.927L151.836 75.6102C151.863 71.1556 150.119 66.8727 146.989 63.7032C143.859 60.5336 139.598 58.7368 135.143 58.7077Z" fill="white"/>
<path d="M120.367 325.71L38.6975 325.358C37.849 325.358 37.1659 324.432 37.1769 323.308L37.265 301.943C37.265 300.841 37.9592 299.894 38.8077 299.894L120.477 300.268C120.948 300.35 121.368 300.609 121.652 300.993C121.935 301.377 122.059 301.856 121.998 302.329L121.921 323.672C121.921 324.807 121.216 325.721 120.367 325.71Z" fill="#0A1128"/>
<path d="M63.3632 314.29C62.9404 314.29 62.5339 314.223 62.1436 314.087C61.7587 313.952 61.4605 313.773 61.2491 313.55L61.4849 313.087C61.6909 313.293 61.9647 313.461 62.3062 313.591C62.6477 313.716 63.0001 313.778 63.3632 313.778C63.8728 313.778 64.255 313.686 64.5098 313.502C64.7645 313.312 64.8919 313.068 64.8919 312.77C64.8919 312.542 64.8215 312.36 64.6805 312.225C64.545 312.089 64.3769 311.986 64.1764 311.916C63.9758 311.84 63.6966 311.759 63.3389 311.672C62.9106 311.564 62.5691 311.461 62.3143 311.363C62.0595 311.26 61.84 311.106 61.6557 310.9C61.4768 310.694 61.3873 310.414 61.3873 310.062C61.3873 309.775 61.4632 309.515 61.615 309.281C61.7668 309.043 61.9999 308.853 62.3143 308.712C62.6287 308.571 63.019 308.501 63.4852 308.501C63.8105 308.501 64.1276 308.547 64.4366 308.639C64.751 308.726 65.022 308.848 65.2497 309.005L65.0464 309.485C64.8079 309.328 64.5531 309.211 64.2821 309.135C64.011 309.054 63.7454 309.013 63.4852 309.013C62.9865 309.013 62.6097 309.111 62.355 309.306C62.1056 309.496 61.9809 309.742 61.9809 310.046C61.9809 310.273 62.0487 310.458 62.1842 310.599C62.3252 310.734 62.4986 310.84 62.7046 310.916C62.916 310.986 63.1979 311.065 63.5503 311.152C63.9677 311.255 64.3038 311.358 64.5585 311.461C64.8187 311.558 65.0383 311.71 65.2172 311.916C65.3961 312.117 65.4855 312.39 65.4855 312.737C65.4855 313.025 65.4069 313.287 65.2497 313.526C65.0979 313.759 64.8621 313.946 64.5423 314.087C64.2225 314.223 63.8294 314.29 63.3632 314.29ZM66.7966 308.55H67.3983V314.242H66.7966V308.55ZM74.007 308.55V314.242H73.511L69.852 309.623V314.242H69.2502V308.55H69.7462L73.4135 313.168V308.55H74.007ZM79.8736 311.396H80.4509V313.567C80.1853 313.8 79.8709 313.979 79.5077 314.103C79.1445 314.228 78.7623 314.29 78.3612 314.29C77.792 314.29 77.2797 314.166 76.8243 313.916C76.369 313.667 76.0112 313.323 75.751 312.884C75.4908 312.439 75.3607 311.943 75.3607 311.396C75.3607 310.848 75.4908 310.355 75.751 309.916C76.0112 309.471 76.369 309.124 76.8243 308.875C77.2797 308.626 77.7947 308.501 78.3693 308.501C78.803 308.501 79.2014 308.571 79.5646 308.712C79.9278 308.848 80.2341 309.051 80.4834 309.322L80.1094 309.704C79.6594 309.26 79.0875 309.037 78.3937 309.037C77.9329 309.037 77.5155 309.14 77.1415 309.346C76.7728 309.547 76.4828 309.829 76.2714 310.192C76.06 310.55 75.9543 310.951 75.9543 311.396C75.9543 311.84 76.06 312.241 76.2714 312.599C76.4828 312.957 76.7728 313.239 77.1415 313.445C77.5101 313.651 77.9248 313.754 78.3855 313.754C78.971 313.754 79.467 313.607 79.8736 313.315V311.396ZM86.575 314.29C85.8378 314.29 85.2632 314.079 84.8512 313.656C84.4392 313.233 84.2332 312.618 84.2332 311.81V308.55H84.8349V311.786C84.8349 312.447 84.984 312.941 85.2821 313.266C85.5803 313.591 86.0113 313.754 86.575 313.754C87.1442 313.754 87.5779 313.591 87.876 313.266C88.1742 312.941 88.3233 312.447 88.3233 311.786V308.55H88.9087V311.81C88.9087 312.618 88.7027 313.233 88.2907 313.656C87.8842 314.079 87.3123 314.29 86.575 314.29ZM92.8523 308.55C93.5787 308.55 94.1479 308.723 94.5599 309.07C94.9719 309.417 95.1779 309.894 95.1779 310.501C95.1779 311.108 94.9719 311.585 94.5599 311.932C94.1479 312.274 93.5787 312.445 92.8523 312.445H91.3236V314.242H90.7219V308.55H92.8523ZM92.836 311.916C93.3998 311.916 93.8308 311.794 94.1289 311.55C94.4271 311.301 94.5761 310.951 94.5761 310.501C94.5761 310.04 94.4271 309.688 94.1289 309.444C93.8308 309.195 93.3998 309.07 92.836 309.07H91.3236V311.916H92.836Z" fill="#E8E8E3"/>
<path d="M54.9875 137.876L26.6479 137.748L26.6243 142.949L54.9639 143.077L54.9875 137.876Z" fill="#0A1128"/>
<path opacity="0.1" d="M54.9875 137.876L26.6479 137.748L26.6243 142.949L54.9639 143.077L54.9875 137.876Z" fill="black"/>
<path d="M138.063 169.808C138.286 169.786 138.504 169.734 138.713 169.654C139.018 169.535 139.283 169.332 139.478 169.069C139.673 168.805 139.79 168.493 139.815 168.166C139.815 166.414 139.815 163.858 139.815 160.574C139.815 158.933 139.815 157.093 139.815 155.065C139.815 154.569 139.815 154.051 139.815 153.534C139.887 153.031 139.777 152.519 139.506 152.09C139.355 151.884 139.157 151.717 138.93 151.6C138.702 151.483 138.451 151.421 138.195 151.418H136.476H120.555L28.395 151.076C28.1591 151.072 27.9257 151.125 27.7147 151.231C27.5037 151.336 27.3213 151.491 27.183 151.682C26.9169 152.113 26.8152 152.626 26.8965 153.126C26.8965 154.228 26.8965 155.33 26.8965 156.431C26.8965 158.635 26.8965 160.839 26.8965 163.043C26.8965 164.144 26.8965 165.246 26.8965 166.348C26.8508 166.861 26.8508 167.378 26.8965 167.891C26.9544 168.111 27.0619 168.315 27.2109 168.487C27.3599 168.658 27.5464 168.794 27.7559 168.882C27.973 168.969 28.2055 169.01 28.4391 169.004H34.0475L58.5198 169.136L99.9497 169.389L127.882 169.61L135.474 169.698H137.446C137.898 169.698 138.118 169.698 138.118 169.698H137.446H135.474H127.882H99.9497L58.5198 169.566L34.0475 169.466H28.4391C28.1304 169.479 27.8226 169.426 27.5356 169.312C27.2454 169.188 26.9874 169 26.7812 168.761C26.5749 168.523 26.4259 168.24 26.3455 167.935C26.2818 167.646 26.2595 167.349 26.2794 167.053V166.238C26.2794 165.136 26.2794 164.034 26.2794 162.932C26.2794 160.729 26.2794 158.525 26.2794 156.321C26.2794 155.219 26.2794 154.118 26.2794 153.016C26.2584 152.722 26.2584 152.428 26.2794 152.134C26.3207 151.81 26.4461 151.502 26.643 151.242C26.8331 150.976 27.0847 150.76 27.3763 150.612C27.668 150.464 27.991 150.389 28.3179 150.393L120.477 150.9L136.399 151.01H138.118C138.421 151.011 138.719 151.084 138.988 151.224C139.256 151.364 139.487 151.567 139.661 151.815C139.971 152.294 140.097 152.87 140.013 153.434C140.013 153.952 140.013 154.47 140.013 154.966C140.013 156.971 140.013 158.811 140.013 160.475C140.013 163.781 139.936 166.315 139.914 168.078C139.887 168.417 139.764 168.741 139.559 169.013C139.354 169.284 139.076 169.491 138.757 169.61C138.549 169.739 138.308 169.808 138.063 169.808Z" fill="#E0E0E0"/>
<path d="M86.9921 156.608H35.1606V161.467H86.9921V156.608Z" fill="#0A1128"/>
<path opacity="0.2" d="M86.9921 156.608H35.1606V161.467H86.9921V156.608Z" fill="white"/>
<path d="M54.7941 185.321L26.4546 185.193L26.431 190.393L54.7705 190.522L54.7941 185.321Z" fill="#0A1128"/>
<path opacity="0.1" d="M54.7941 185.321L26.4546 185.193L26.431 190.393L54.7705 190.522L54.7941 185.321Z" fill="black"/>
<path d="M137.347 217.254C137.57 217.227 137.79 217.186 138.008 217.133C138.316 217.035 138.599 216.872 138.839 216.656C139.078 216.439 139.268 216.173 139.396 215.877C139.57 215.432 139.638 214.953 139.595 214.478C139.595 213.949 139.595 213.376 139.595 212.737C139.595 211.458 139.595 210.004 139.595 208.329V201.332C139.647 200.826 139.535 200.316 139.275 199.878C139.003 199.429 138.576 199.095 138.074 198.941C137.525 198.843 136.967 198.814 136.41 198.853H120.555L28.7147 198.512C28.2207 198.513 27.744 198.693 27.3731 199.02C27.0022 199.346 26.7624 199.796 26.6983 200.286C26.6983 201.332 26.6983 202.489 26.6983 203.591C26.6983 205.795 26.6983 207.999 26.6983 210.202C26.6983 211.304 26.6983 212.406 26.6983 213.508C26.6573 214.023 26.6795 214.541 26.7644 215.05C26.902 215.497 27.1851 215.885 27.5688 216.152C27.9758 216.411 28.4539 216.534 28.9351 216.505H30.4667H33.651L58.0352 216.626L99.3218 216.88L127.155 217.1L134.725 217.188H136.697H137.358H136.697H134.725H127.155H99.3218L58.0131 217.144L33.629 217.056H28.8359C28.2399 217.091 27.6485 216.933 27.1501 216.604C26.6487 216.257 26.2828 215.747 26.1143 215.161C26.0156 214.601 25.986 214.031 26.0262 213.464C26.0262 212.362 26.0262 211.26 26.0262 210.158C26.0262 207.955 26.0262 205.751 26.0262 203.547C26.0262 202.445 26.0262 201.343 26.0262 200.242C26.1066 199.611 26.4138 199.032 26.8905 198.612C27.3671 198.193 27.9804 197.961 28.6156 197.961L120.455 198.468L136.311 198.589C136.902 198.552 137.494 198.593 138.074 198.71C138.647 198.897 139.13 199.29 139.43 199.812C139.715 200.297 139.838 200.86 139.782 201.42C139.782 201.938 139.782 202.445 139.782 202.952C139.782 204.946 139.782 206.776 139.782 208.461C139.782 210.147 139.782 211.569 139.782 212.869C139.782 213.497 139.782 214.081 139.782 214.621C139.822 215.114 139.743 215.609 139.551 216.064C139.408 216.368 139.201 216.638 138.944 216.855C138.687 217.071 138.387 217.23 138.063 217.32C137.822 217.34 137.58 217.318 137.347 217.254Z" fill="#E0E0E0"/>
<path d="M54.5807 234.826L26.2412 234.698L26.2176 239.898L54.5571 240.027L54.5807 234.826Z" fill="#0A1128"/>
<path opacity="0.1" d="M54.5807 234.826L26.2412 234.698L26.2176 239.898L54.5571 240.027L54.5807 234.826Z" fill="black"/>
<path d="M137.126 266.739C137.349 266.712 137.57 266.672 137.788 266.618C138.094 266.52 138.376 266.359 138.616 266.144C138.855 265.929 139.046 265.666 139.176 265.372C139.349 264.927 139.417 264.449 139.374 263.973C139.374 263.433 139.374 262.871 139.374 262.221C139.374 260.954 139.374 259.489 139.374 257.814V250.817C139.427 250.31 139.315 249.8 139.055 249.362C138.776 248.922 138.351 248.594 137.854 248.437C137.305 248.335 136.746 248.302 136.19 248.338H120.334L28.4942 247.996C28.0002 247.997 27.5234 248.178 27.1526 248.504C26.7817 248.83 26.5419 249.28 26.4778 249.77C26.4778 250.872 26.4778 251.974 26.4778 253.076C26.4778 255.279 26.4778 257.483 26.4778 259.687C26.4778 260.789 26.4778 261.891 26.4778 262.992C26.4368 263.504 26.459 264.018 26.5439 264.524C26.6759 264.974 26.9603 265.363 27.3483 265.626C27.7528 265.89 28.2328 266.014 28.7146 265.978H33.5077L57.8918 266.111L99.1785 266.364L127.011 266.584L134.581 266.673H136.554C136.994 266.673 137.215 266.673 137.215 266.673C137.215 266.673 136.994 266.673 136.554 266.673H134.581H127.011H99.1785L57.8918 266.551L33.5077 266.452H28.7146C28.1181 266.492 27.5252 266.334 27.0287 266C26.5274 265.653 26.1615 265.143 25.993 264.557C25.8942 263.997 25.8646 263.427 25.9048 262.86C25.9048 261.758 25.9048 260.656 25.9048 259.555C25.9048 257.351 25.9048 255.147 25.9048 252.943C25.9048 251.842 25.9048 250.74 25.9048 249.583C25.9827 248.954 26.2878 248.375 26.7626 247.955C27.2374 247.535 27.8493 247.303 28.4832 247.302L120.323 247.809L136.179 247.93C136.769 247.894 137.362 247.935 137.942 248.051C138.514 248.238 138.997 248.631 139.297 249.153C139.582 249.638 139.706 250.202 139.65 250.762C139.65 251.28 139.65 251.798 139.65 252.293C139.65 254.288 139.65 256.117 139.65 257.803C139.65 259.489 139.65 260.91 139.65 262.21C139.65 262.838 139.65 263.422 139.65 263.962C139.692 264.455 139.613 264.951 139.418 265.405C139.275 265.71 139.068 265.979 138.812 266.196C138.555 266.413 138.255 266.572 137.931 266.662C137.672 266.75 137.397 266.776 137.126 266.739Z" fill="#E0E0E0"/>
<path d="M85.8856 205.428L34.0547 205.193L34.0326 210.052L85.8635 210.287L85.8856 205.428Z" fill="#0A1128"/>
<path opacity="0.2" d="M85.8856 205.428L34.0547 205.193L34.0326 210.052L85.8635 210.287L85.8856 205.428Z" fill="white"/>
<path d="M38.7416 257.748C38.7091 258.191 38.5472 258.615 38.2759 258.967C38.0047 259.319 37.6361 259.584 37.2159 259.728C36.7956 259.873 36.3422 259.89 35.9118 259.78C35.4814 259.669 35.0931 259.434 34.7949 259.105C34.4967 258.775 34.3018 258.365 34.2343 257.926C34.1669 257.487 34.2298 257.037 34.4154 256.634C34.601 256.23 34.9011 255.889 35.2784 255.654C35.6557 255.42 36.0936 255.301 36.5379 255.312C37.1517 255.347 37.7274 255.622 38.1399 256.077C38.5524 256.533 38.7686 257.133 38.7416 257.748Z" fill="#0A1128"/>
<path d="M45.7605 257.781C45.7822 258.091 45.7397 258.403 45.6357 258.697C45.5317 258.99 45.3685 259.259 45.1561 259.487C44.9437 259.715 44.6867 259.896 44.4012 260.02C44.1156 260.144 43.8075 260.208 43.4961 260.208C43.1847 260.208 42.8767 260.144 42.5911 260.02C42.3055 259.896 42.0486 259.715 41.8362 259.487C41.6238 259.259 41.4606 258.99 41.3566 258.697C41.2526 258.403 41.2101 258.091 41.2318 257.781C41.2101 257.47 41.2526 257.158 41.3566 256.865C41.4606 256.571 41.6238 256.302 41.8362 256.074C42.0486 255.847 42.3055 255.665 42.5911 255.541C42.8767 255.417 43.1847 255.353 43.4961 255.353C43.8075 255.353 44.1156 255.417 44.4012 255.541C44.6867 255.665 44.9437 255.847 45.1561 256.074C45.3685 256.302 45.5317 256.571 45.6357 256.865C45.7397 257.158 45.7822 257.47 45.7605 257.781Z" fill="#0A1128"/>
<path d="M52.7902 257.813C52.7576 258.257 52.5957 258.681 52.3245 259.033C52.0533 259.385 51.6847 259.649 51.2644 259.794C50.8442 259.938 50.3907 259.956 49.9604 259.845C49.53 259.735 49.1416 259.5 48.8434 259.17C48.5452 258.841 48.3503 258.431 48.2829 257.992C48.2154 257.553 48.2784 257.103 48.464 256.699C48.6496 256.296 48.9497 255.955 49.327 255.72C49.7043 255.485 50.1422 255.367 50.5864 255.378C51.1993 255.415 51.7732 255.691 52.1852 256.146C52.5972 256.601 52.8143 257.2 52.7902 257.813Z" fill="#0A1128"/>
<path d="M59.8092 257.847C59.7767 258.29 59.6148 258.714 59.3436 259.066C59.0723 259.418 58.7037 259.683 58.2835 259.827C57.8632 259.972 57.4098 259.99 56.9794 259.879C56.549 259.768 56.1607 259.533 55.8625 259.204C55.5643 258.874 55.3694 258.464 55.3019 258.025C55.2345 257.586 55.2975 257.136 55.4831 256.733C55.6687 256.329 55.9687 255.988 56.346 255.754C56.7233 255.519 57.1612 255.4 57.6055 255.412C58.2183 255.449 58.7923 255.724 59.2042 256.179C59.6162 256.635 59.8334 257.233 59.8092 257.847Z" fill="#0A1128"/>
<path d="M66.8281 257.869C66.7977 258.313 66.6375 258.738 66.3674 259.091C66.0974 259.445 65.7294 259.712 65.3092 259.858C64.8889 260.004 64.4351 260.023 64.0039 259.914C63.5727 259.804 63.1833 259.57 62.884 259.241C62.5847 258.911 62.3888 258.502 62.3206 258.062C62.2523 257.622 62.3148 257.172 62.5002 256.768C62.6857 256.363 62.9859 256.022 63.3635 255.787C63.7411 255.552 64.1796 255.433 64.6243 255.445C65.2352 255.482 65.8075 255.756 66.2191 256.209C66.6308 256.662 66.8493 257.257 66.8281 257.869Z" fill="#0A1128"/>
<path d="M73.8579 257.902C73.8278 258.343 73.6693 258.766 73.4018 259.119C73.1344 259.472 72.7696 259.739 72.3525 259.887C71.9354 260.035 71.4841 260.058 71.0542 259.952C70.6243 259.847 70.2344 259.619 69.9327 259.295C69.631 258.971 69.4305 258.566 69.3559 258.13C69.2814 257.694 69.336 257.245 69.5131 256.839C69.6902 256.434 69.982 256.089 70.3526 255.847C70.7232 255.605 71.1565 255.477 71.5991 255.478C72.2197 255.501 72.8059 255.769 73.2293 256.223C73.6527 256.677 73.8787 257.281 73.8579 257.902Z" fill="#0A1128"/>
<path d="M80.8767 257.935C80.8983 258.245 80.8559 258.557 80.7519 258.851C80.6479 259.144 80.4847 259.413 80.2723 259.641C80.0599 259.869 79.8029 260.05 79.5174 260.174C79.2318 260.299 78.9237 260.363 78.6124 260.363C78.301 260.363 77.9929 260.299 77.7073 260.174C77.4217 260.05 77.1648 259.869 76.9524 259.641C76.74 259.413 76.5768 259.144 76.4728 258.851C76.3688 258.557 76.3264 258.245 76.348 257.935C76.3264 257.624 76.3688 257.312 76.4728 257.019C76.5768 256.725 76.74 256.456 76.9524 256.229C77.1648 256.001 77.4217 255.819 77.7073 255.695C77.9929 255.571 78.301 255.507 78.6124 255.507C78.9237 255.507 79.2318 255.571 79.5174 255.695C79.8029 255.819 80.0599 256.001 80.2723 256.229C80.4847 256.456 80.6479 256.725 80.7519 257.019C80.8559 257.312 80.8983 257.624 80.8767 257.935Z" fill="#0A1128"/>
<path d="M87.8955 257.968C87.8654 258.41 87.7069 258.833 87.4394 259.185C87.1719 259.538 86.8072 259.805 86.3901 259.953C85.973 260.101 85.5217 260.124 85.0918 260.019C84.6618 259.914 84.272 259.685 83.9703 259.361C83.6685 259.037 83.4681 258.632 83.3935 258.196C83.319 257.76 83.3736 257.311 83.5507 256.906C83.7277 256.5 84.0195 256.155 84.3902 255.913C84.7608 255.671 85.1941 255.543 85.6367 255.544C86.2573 255.567 86.8435 255.835 87.2669 256.289C87.6903 256.744 87.9163 257.347 87.8955 257.968Z" fill="#0A1128"/>
<path d="M94.9142 258.001C94.8838 258.445 94.7237 258.87 94.4536 259.224C94.1836 259.577 93.8156 259.844 93.3954 259.99C92.9752 260.136 92.5213 260.155 92.0901 260.046C91.6589 259.936 91.2694 259.702 90.9702 259.373C90.6709 259.044 90.475 258.634 90.4067 258.194C90.3385 257.754 90.401 257.304 90.5864 256.9C90.7719 256.495 91.072 256.154 91.4497 255.919C91.8273 255.684 92.2658 255.565 92.7105 255.577C93.3214 255.614 93.8936 255.888 94.3053 256.341C94.717 256.794 94.9355 257.389 94.9142 258.001Z" fill="#0A1128"/>
<g opacity="0.2">
<path opacity="0.2" d="M38.7416 257.748C38.7091 258.191 38.5472 258.615 38.2759 258.967C38.0047 259.319 37.6361 259.584 37.2159 259.728C36.7956 259.873 36.3422 259.89 35.9118 259.78C35.4814 259.669 35.0931 259.434 34.7949 259.105C34.4967 258.775 34.3018 258.365 34.2343 257.926C34.1669 257.487 34.2298 257.037 34.4154 256.634C34.601 256.23 34.9011 255.889 35.2784 255.654C35.6557 255.42 36.0936 255.301 36.5379 255.312C37.1517 255.347 37.7274 255.622 38.1399 256.077C38.5524 256.533 38.7686 257.133 38.7416 257.748Z" fill="white"/>
<path opacity="0.2" d="M45.7605 257.781C45.7822 258.091 45.7397 258.403 45.6357 258.697C45.5317 258.99 45.3685 259.259 45.1561 259.487C44.9437 259.715 44.6867 259.896 44.4012 260.02C44.1156 260.145 43.8075 260.209 43.4961 260.209C43.1847 260.209 42.8767 260.145 42.5911 260.02C42.3055 259.896 42.0486 259.715 41.8362 259.487C41.6238 259.259 41.4606 258.99 41.3566 258.697C41.2526 258.403 41.2101 258.091 41.2318 257.781C41.2101 257.47 41.2526 257.158 41.3566 256.865C41.4606 256.571 41.6238 256.302 41.8362 256.075C42.0486 255.847 42.3055 255.665 42.5911 255.541C42.8767 255.417 43.1847 255.353 43.4961 255.353C43.8075 255.353 44.1156 255.417 44.4012 255.541C44.6867 255.665 44.9437 255.847 45.1561 256.075C45.3685 256.302 45.5317 256.571 45.6357 256.865C45.7397 257.158 45.7822 257.47 45.7605 257.781Z" fill="white"/>
<path opacity="0.2" d="M52.7904 257.814C52.7579 258.257 52.596 258.681 52.3248 259.033C52.0535 259.385 51.685 259.65 51.2647 259.794C50.8444 259.939 50.391 259.957 49.9606 259.846C49.5303 259.735 49.1419 259.5 48.8437 259.171C48.5455 258.841 48.3506 258.431 48.2831 257.992C48.2157 257.553 48.2787 257.103 48.4643 256.7C48.6499 256.296 48.9499 255.955 49.3272 255.721C49.7045 255.486 50.1424 255.367 50.5867 255.379C51.1995 255.416 51.7735 255.691 52.1854 256.146C52.5974 256.602 52.8146 257.2 52.7904 257.814Z" fill="white"/>
<path opacity="0.2" d="M59.8092 257.847C59.7767 258.29 59.6148 258.714 59.3436 259.066C59.0723 259.418 58.7037 259.683 58.2835 259.827C57.8632 259.972 57.4098 259.99 56.9794 259.879C56.549 259.768 56.1607 259.533 55.8625 259.204C55.5643 258.874 55.3694 258.464 55.3019 258.025C55.2345 257.586 55.2975 257.136 55.4831 256.733C55.6687 256.329 55.9687 255.988 56.346 255.754C56.7233 255.519 57.1612 255.4 57.6055 255.412C58.2183 255.449 58.7923 255.724 59.2042 256.18C59.6162 256.635 59.8334 257.233 59.8092 257.847Z" fill="white"/>
<path opacity="0.2" d="M66.8281 257.869C66.7977 258.313 66.6375 258.738 66.3674 259.092C66.0974 259.445 65.7294 259.712 65.3092 259.858C64.8889 260.004 64.4351 260.023 64.0039 259.914C63.5727 259.804 63.1833 259.57 62.884 259.241C62.5847 258.912 62.3888 258.502 62.3206 258.062C62.2523 257.622 62.3148 257.172 62.5002 256.768C62.6857 256.363 62.9859 256.022 63.3635 255.787C63.7411 255.552 64.1796 255.433 64.6243 255.445C65.2352 255.482 65.8075 255.756 66.2191 256.209C66.6308 256.662 66.8493 257.257 66.8281 257.869Z" fill="white"/>
<path opacity="0.2" d="M73.8579 257.902C73.8278 258.343 73.6693 258.767 73.4018 259.119C73.1344 259.472 72.7696 259.739 72.3525 259.887C71.9354 260.035 71.4841 260.058 71.0542 259.952C70.6243 259.847 70.2344 259.619 69.9327 259.295C69.631 258.971 69.4305 258.566 69.3559 258.13C69.2814 257.694 69.336 257.245 69.5131 256.839C69.6902 256.434 69.982 256.089 70.3526 255.847C70.7232 255.605 71.1565 255.477 71.5991 255.478C72.2197 255.501 72.8059 255.769 73.2293 256.223C73.6527 256.678 73.8787 257.281 73.8579 257.902Z" fill="white"/>
<path opacity="0.2" d="M80.8767 257.935C80.8983 258.246 80.8559 258.557 80.7519 258.851C80.6479 259.145 80.4847 259.414 80.2723 259.641C80.0599 259.869 79.8029 260.051 79.5174 260.175C79.2318 260.299 78.9237 260.363 78.6124 260.363C78.301 260.363 77.9929 260.299 77.7073 260.175C77.4217 260.051 77.1648 259.869 76.9524 259.641C76.74 259.414 76.5768 259.145 76.4728 258.851C76.3688 258.557 76.3264 258.246 76.348 257.935C76.3264 257.624 76.3688 257.313 76.4728 257.019C76.5768 256.726 76.74 256.457 76.9524 256.229C77.1648 256.001 77.4217 255.82 77.7073 255.695C77.9929 255.571 78.301 255.507 78.6124 255.507C78.9237 255.507 79.2318 255.571 79.5174 255.695C79.8029 255.82 80.0599 256.001 80.2723 256.229C80.4847 256.457 80.6479 256.726 80.7519 257.019C80.8559 257.313 80.8983 257.624 80.8767 257.935Z" fill="white"/>
<path opacity="0.2" d="M87.8955 257.968C87.8654 258.41 87.7069 258.833 87.4394 259.186C87.1719 259.538 86.8072 259.805 86.3901 259.953C85.973 260.101 85.5217 260.124 85.0918 260.019C84.6618 259.914 84.272 259.685 83.9703 259.361C83.6685 259.037 83.4681 258.632 83.3935 258.196C83.319 257.76 83.3736 257.311 83.5507 256.906C83.7277 256.5 84.0195 256.155 84.3902 255.913C84.7608 255.671 85.1941 255.543 85.6367 255.544C86.2573 255.567 86.8435 255.835 87.2669 256.289C87.6903 256.744 87.9163 257.347 87.8955 257.968Z" fill="white"/>
<path opacity="0.2" d="M94.9145 258.001C94.8841 258.445 94.7239 258.87 94.4539 259.224C94.1838 259.577 93.8158 259.844 93.3956 259.99C92.9754 260.136 92.5215 260.155 92.0903 260.046C91.6592 259.936 91.2697 259.702 90.9704 259.373C90.6711 259.044 90.4752 258.634 90.407 258.194C90.3387 257.754 90.4012 257.304 90.5867 256.9C90.7721 256.496 91.0723 256.155 91.4499 255.919C91.8276 255.684 92.266 255.565 92.7108 255.577C93.3216 255.614 93.8939 255.888 94.3055 256.341C94.7172 256.794 94.9357 257.389 94.9145 258.001Z" fill="white"/>
</g>
<path d="M84.9424 98.9365C85.7078 98.5994 86.3572 98.0447 86.8098 97.3414C87.2624 96.638 87.4981 95.8171 87.4877 94.9808C87.5162 94.4372 87.4338 93.8934 87.2454 93.3826C87.057 92.8719 86.7666 92.4048 86.3918 92.0099C86.0171 91.615 85.5659 91.3005 85.0657 91.0856C84.5655 90.8707 84.0268 90.7599 83.4824 90.7599C82.938 90.7599 82.3993 90.8707 81.8992 91.0856C81.399 91.3005 80.9478 91.615 80.573 92.0099C80.1983 92.4048 79.9079 92.8719 79.7195 93.3826C79.5311 93.8934 79.4487 94.4372 79.4772 94.9808C79.4604 95.8255 79.6942 96.6562 80.1492 97.3681C80.6042 98.0799 81.2599 98.6411 82.0335 98.9806C75.8631 99.9061 76.1386 106.605 76.1386 106.605L90.7272 106.672C90.7272 106.672 91.0687 99.851 84.9424 98.9365Z" fill="#0A1128"/>
<path opacity="0.1" d="M84.9424 98.9365C85.7078 98.5994 86.3572 98.0447 86.8098 97.3414C87.2624 96.638 87.4981 95.8171 87.4877 94.9808C87.5162 94.4372 87.4338 93.8934 87.2454 93.3826C87.057 92.8719 86.7666 92.4048 86.3918 92.0099C86.0171 91.615 85.5659 91.3005 85.0657 91.0856C84.5655 90.8707 84.0268 90.7599 83.4824 90.7599C82.938 90.7599 82.3993 90.8707 81.8992 91.0856C81.399 91.3005 80.9478 91.615 80.573 92.0099C80.1983 92.4048 79.9079 92.8719 79.7195 93.3826C79.5311 93.8934 79.4487 94.4372 79.4772 94.9808C79.4604 95.8255 79.6942 96.6562 80.1492 97.3681C80.6042 98.0799 81.2599 98.6411 82.0335 98.9806C75.8631 99.9061 76.1386 106.605 76.1386 106.605L90.7272 106.672C90.7272 106.672 91.0687 99.851 84.9424 98.9365Z" fill="black"/>
<path d="M108.649 110.993L56.6523 110.757L56.6241 116.971L108.62 117.207L108.649 110.993Z" fill="#0A1128"/>
<path opacity="0.2" d="M108.649 110.993L56.6523 110.757L56.6241 116.971L108.62 117.207L108.649 110.993Z" fill="white"/>
</svg>
