<svg width="300" height="186" viewBox="0 0 300 186" fill="none" xmlns="http://www.w3.org/2000/svg">
<path d="M289.884 185.473C289.884 185.535 225.127 185.589 145.266 185.589C65.4041 185.589 0.621094 185.535 0.621094 185.473C0.621094 185.411 65.364 185.353 145.266 185.353C225.167 185.353 289.884 185.406 289.884 185.473Z" fill="#263238"/>
<path d="M29.874 38.4025L29.874 180.332C29.874 183.171 32.1755 185.473 35.0145 185.473H243.174C246.013 185.473 248.314 183.171 248.314 180.332V38.4025C248.314 35.5635 246.013 33.262 243.174 33.262H35.0145C32.1755 33.262 29.874 35.5635 29.874 38.4025Z" fill="#263238"/>
<path d="M44.8201 38.0598L44.8201 180.675H227.241V38.0598H44.8201Z" fill="#EBEBEB"/>
<path d="M237.335 103.524C238.491 103.523 239.621 103.865 240.583 104.507C241.545 105.149 242.294 106.061 242.737 107.129C243.18 108.197 243.296 109.373 243.071 110.507C242.845 111.641 242.289 112.682 241.471 113.5C240.654 114.317 239.612 114.874 238.478 115.099C237.344 115.325 236.169 115.208 235.101 114.766C234.033 114.323 233.12 113.573 232.479 112.611C231.837 111.65 231.495 110.519 231.496 109.363C231.497 107.815 232.112 106.33 233.207 105.236C234.302 104.141 235.787 103.525 237.335 103.524Z" fill="#455A64"/>
<path d="M36.1626 86.9852V131.745C36.1626 132.045 36.4057 132.288 36.7056 132.288H38.0319C38.3317 132.288 38.5748 132.045 38.5748 131.745V86.9852C38.5748 86.6854 38.3317 86.4423 38.0319 86.4423H36.7056C36.4057 86.4423 36.1626 86.6854 36.1626 86.9852Z" fill="#455A64"/>
<path d="M108.664 66.4234C107.969 71.3947 108.499 75.5649 105.548 79.4814C104.387 81.0169 102.785 82.3298 102.259 84.1857C101.89 85.4809 102.104 86.8873 101.756 88.1913C100.933 91.2711 97.4705 92.6419 94.9559 94.6269C91.7693 97.1236 89.8689 100.978 88.9699 104.93C88.0708 108.882 88.0797 112.972 88.1065 117.022C88.1065 118.749 88.2578 120.747 89.6642 121.749C90.6344 122.439 91.9117 122.425 93.1 122.385L115.958 121.629C116.644 121.606 117.396 121.553 117.877 121.072C118.236 120.625 118.445 120.075 118.473 119.501C120.455 106.743 122.432 93.9845 124.406 81.2261L108.664 66.4234Z" fill="#263238"/>
<path d="M171.079 79.6866C168.106 67.4519 173.567 69.0051 171.969 56.5167C171.568 53.4013 169.125 38.9813 167.963 36.0439C164.915 28.429 152.253 13.1278 136.987 23.7959C136.213 25.8254 138.029 32.7371 139.613 34.2236C141.197 35.7101 148.354 30.8412 149.689 32.5502C150.74 33.8854 151.331 35.5232 152.222 36.9741C153.041 38.3093 154.109 39.4843 154.816 40.8773C155.635 42.4973 155.925 44.331 156.151 46.1335C156.877 51.8881 157.091 57.794 155.738 63.433C154.189 69.8908 150.655 75.7122 148.795 82.0854C147.04 88.1205 146.82 94.4982 148.154 100.64C148.356 101.893 148.822 103.088 149.52 104.147C151.158 106.372 154.385 106.898 157.028 106.114C159.672 105.331 161.871 103.488 163.931 101.708C165.743 100.115 167.55 98.4592 168.778 96.3897C170.113 94.1288 170.701 91.494 171.261 88.9438C171.618 87.5454 171.825 86.1133 171.88 84.6712C171.815 82.9835 171.546 81.3098 171.079 79.6866Z" fill="#263238"/>
<path d="M150.579 89.976C150.623 85.2762 150.579 84.1903 150.579 84.2303C150.579 84.2704 160.495 82.5613 162.52 69.619C163.526 63.179 163.183 52.631 162.618 44.0058C162.11 36.2439 156.948 26.733 149.217 27.5697L125.077 33.7249C123.943 33.8482 122.897 34.392 122.145 35.2489C121.393 36.1058 120.989 37.2135 121.014 38.3535L123.719 90.2386C123.885 90.6929 124.136 91.1114 124.458 91.4714C130.017 98.7838 139.39 102.736 146.898 97.4442C148.965 95.4653 150.269 92.8209 150.579 89.976Z" fill="#9F7362"/>
<path d="M157.651 52.7961C157.655 53.2289 157.491 53.6465 157.193 53.9599C156.894 54.2733 156.485 54.4578 156.053 54.474C155.842 54.4916 155.629 54.4667 155.428 54.4008C155.227 54.3349 155.041 54.2293 154.881 54.0903C154.721 53.9513 154.591 53.7817 154.498 53.5916C154.405 53.4014 154.351 53.1945 154.339 52.983C154.333 52.5507 154.496 52.1331 154.794 51.8196C155.092 51.506 155.501 51.3214 155.933 51.3052C156.144 51.2876 156.356 51.3125 156.558 51.3783C156.759 51.4442 156.946 51.5497 157.106 51.6886C157.266 51.8275 157.397 51.9971 157.49 52.1873C157.584 52.3775 157.638 52.5845 157.651 52.7961Z" fill="#263238"/>
<path d="M140.726 53.165C140.731 53.5977 140.567 54.0153 140.268 54.3287C139.97 54.6422 139.561 54.8266 139.128 54.8428C138.917 54.8592 138.705 54.8333 138.504 54.7666C138.303 54.7 138.117 54.594 137.958 54.4547C137.798 54.3155 137.668 54.1459 137.575 53.9557C137.482 53.7656 137.427 53.5588 137.415 53.3474C137.411 52.915 137.576 52.4981 137.874 52.1849C138.172 51.8717 138.581 51.6869 139.013 51.6696C139.224 51.652 139.437 51.677 139.638 51.7432C139.84 51.8094 140.026 51.9153 140.186 52.0548C140.345 52.1943 140.476 52.3644 140.568 52.5551C140.661 52.7458 140.715 52.9532 140.726 53.165Z" fill="#263238"/>
<path d="M142.332 50.7575C142.056 50.8376 140.876 49.814 138.909 49.2487C136.942 48.6835 135.291 48.8615 135.126 48.6568C135.046 48.5589 135.362 48.3675 136.087 48.2696C137.127 48.1642 138.176 48.2655 139.176 48.5678C140.154 48.8339 141.064 49.3041 141.847 49.9475C142.345 50.4059 142.465 50.7263 142.332 50.7575Z" fill="#263238"/>
<path d="M160.233 48.5279C160.051 48.7505 158.498 48.5724 156.557 49.2222C154.617 49.872 153.357 50.9491 153.103 50.8689C152.979 50.8378 153.13 50.4995 153.678 50.01C154.473 49.3345 155.394 48.8232 156.388 48.5057C157.343 48.1728 158.358 48.0483 159.365 48.1407C160.046 48.2297 160.322 48.4256 160.233 48.5279Z" fill="#263238"/>
<path d="M149.307 63.1037C149.307 63.0013 150.406 62.8055 152.204 62.5741C152.649 62.5251 153.094 62.4317 153.17 62.129C153.245 61.8264 153.081 61.3101 152.863 60.7938L151.505 57.3224C149.623 52.3822 148.256 48.3232 148.456 48.2476C148.657 48.1719 150.344 52.1152 152.226 57.0553C152.671 58.2748 153.116 59.4364 153.526 60.5446C153.699 61.0653 153.997 61.6528 153.766 62.3248C153.701 62.4866 153.6 62.6313 153.47 62.7478C153.341 62.8643 153.186 62.9495 153.018 62.9969C152.766 63.0654 152.506 63.1013 152.244 63.1037C150.437 63.1927 149.311 63.2016 149.307 63.1037Z" fill="#263238"/>
<path d="M150.579 84.2302C144.48 84.339 138.471 82.752 133.221 79.6461C133.221 79.6461 137.601 88.5918 150.547 87.3545L150.579 84.2302Z" fill="#65463C"/>
<path d="M142.817 45.6304C142.644 46.1156 140.859 45.8886 138.763 46.1467C136.667 46.4048 134.976 46.979 134.7 46.5428C134.575 46.3381 134.869 45.8797 135.55 45.4079C136.454 44.8164 137.487 44.4502 138.563 44.3398C139.634 44.2098 140.722 44.3348 141.736 44.7047C142.506 45.0163 142.893 45.3946 142.817 45.6304Z" fill="#263238"/>
<path d="M161.309 45.4346C160.931 45.8396 159.436 45.4346 157.642 45.4079C155.848 45.3812 154.331 45.6882 153.979 45.2654C153.828 45.0563 154.064 44.6513 154.727 44.2641C155.645 43.7832 156.673 43.5529 157.709 43.5965C158.738 43.5985 159.748 43.8767 160.633 44.402C161.26 44.8204 161.478 45.2343 161.309 45.4346Z" fill="#263238"/>
<path d="M142.777 27.2895C142.632 27.0237 142.433 26.7905 142.194 26.6041C138.362 23.2394 132.648 22.4072 127.81 24.0183C122.972 25.6294 119.594 31.749 117.307 36.3064C115.455 39.9915 113.439 45.3545 113.35 49.4891C112.745 53.2187 112.62 53.3923 111.432 56.975C110.066 61.1007 108.103 65.2398 108.508 69.5658C108.77 72.4275 110.07 75.2091 109.714 78.0575C109.358 80.9059 107.342 83.3982 106.728 86.2644C106.327 88.107 106.527 90.0296 106.696 91.8855C106.897 94.3138 107.278 96.7238 107.836 99.0955C107.896 99.4473 108.049 99.7763 108.281 100.048C108.578 100.308 108.934 100.493 109.318 100.586C115.522 102.638 122.015 104.717 128.455 103.733C128.92 103.702 129.365 103.537 129.737 103.257C129.791 103.205 129.835 103.143 129.866 103.074C131.673 99.1178 124.877 93.9818 124.677 89.589C124.485 85.2719 124.121 80.5009 127.005 77.2831C129.479 74.5282 130.058 71.3549 127.45 63.9624C126.904 62.4436 126.599 60.8488 126.546 59.2359C126.546 59.0312 126.546 58.8265 126.546 58.6217C126.724 53.7261 131.175 50.3035 134.508 46.7208C139.143 41.7064 142.069 35.3524 142.866 28.5712C142.954 28.1438 142.923 27.7007 142.777 27.2895Z" fill="#263238"/>
<path d="M142.529 28.144C143.708 30.5117 146.485 31.4953 148.942 32.47C151.602 33.5219 154.167 34.7979 156.611 36.2842C157.702 36.8946 158.692 37.6692 159.548 38.5807C160.754 39.9604 161.364 41.754 161.907 43.5075C162.616 45.801 163.26 48.1109 163.838 50.4371C165.539 45.9375 166.015 40.895 164.657 36.2797C163.3 31.6644 159.984 27.5521 155.538 25.714C151.092 23.8759 145.573 24.5702 142.039 27.8325" fill="#263238"/>
<path d="M109.514 69.2188C109.41 68.4967 109.364 67.7674 109.376 67.038C109.406 64.5545 109.947 62.1038 110.967 59.8393C111.988 57.5748 113.464 55.5452 115.305 53.8776C117.779 51.6077 121.064 49.8987 124.348 47.9494C127.477 46.1658 130.28 43.8648 132.64 41.1444C133.654 39.9472 134.585 38.6818 135.426 37.3569C136.148 36.1964 136.794 34.9908 137.362 33.7475C138.193 31.9486 138.843 30.0716 139.302 28.1442C139.485 27.4632 139.569 26.9247 139.649 26.5642L139.734 26.1503C139.742 26.1028 139.755 26.0565 139.774 26.0123C139.778 26.0597 139.778 26.1073 139.774 26.1547C139.774 26.2616 139.738 26.3995 139.712 26.5731C139.649 26.9336 139.578 27.4632 139.409 28.162C138.979 30.1055 138.349 31.9996 137.531 33.8142C136.968 35.0687 136.326 36.2862 135.608 37.4593C134.768 38.7971 133.836 40.0746 132.818 41.2823C131.686 42.6097 130.441 43.8367 129.097 44.9496C127.648 46.1381 126.106 47.2082 124.486 48.1496C121.188 50.1034 117.922 51.7991 115.465 54.0333C113.272 55.9876 111.594 58.4515 110.578 61.2077C109.899 63.0641 109.523 65.0177 109.465 66.9935C109.465 67.6967 109.465 68.2397 109.492 68.6091L109.514 69.0274C109.524 69.0908 109.524 69.1554 109.514 69.2188Z" fill="#455A64"/>
<path d="M109.754 76.4377C109.739 76.3871 109.73 76.3348 109.727 76.282C109.727 76.1707 109.691 76.0194 109.665 75.8369C109.607 75.4364 109.549 74.84 109.5 74.0567C109.356 71.8778 109.525 69.6896 110.003 67.5588C110.345 66.0882 110.884 64.6705 111.605 63.3441C112.449 61.8259 113.539 60.4586 114.832 59.2985C116.25 58.0203 117.756 56.8439 119.34 55.778C120.96 54.6431 122.674 53.5127 124.303 52.1953C127.355 49.694 130.051 46.7859 132.314 43.5522C134.168 40.9197 135.85 38.1693 137.347 35.3186C138.642 32.893 139.617 30.868 140.289 29.5061C140.623 28.8252 140.881 28.2911 141.064 27.9128L141.268 27.4989C141.29 27.4503 141.317 27.404 141.348 27.3609C141.334 27.4118 141.315 27.4611 141.291 27.5078L141.108 27.9306L140.343 29.5506C139.697 30.9437 138.745 32.9598 137.467 35.3987C135.985 38.2682 134.312 41.0352 132.461 43.6813C130.203 46.9362 127.507 49.8642 124.449 52.3822C122.812 53.7174 121.094 54.839 119.474 55.9694C117.897 57.028 116.395 58.1939 114.979 59.4587C113.699 60.6085 112.617 61.9619 111.779 63.4642C111.055 64.7718 110.513 66.1718 110.167 67.6255C109.677 69.7395 109.484 71.9116 109.593 74.0789C109.629 74.8444 109.673 75.4408 109.713 75.8592C109.713 76.0505 109.745 76.2019 109.754 76.3042C109.759 76.3486 109.759 76.3934 109.754 76.4377Z" fill="#455A64"/>
<path d="M165.333 51.8209C165.333 51.8209 165.333 51.7853 165.377 51.7185C165.422 51.6518 165.462 51.545 165.52 51.4248C165.578 51.3046 165.667 51.1444 165.747 50.9486C165.827 50.7528 165.903 50.5258 165.996 50.2721C166.442 48.8041 166.51 47.2469 166.192 45.7458C165.727 43.5169 164.687 41.4485 163.174 39.7464C161.483 37.8193 159.08 36.2482 156.427 34.9398C153.775 33.6313 151.109 32.6388 148.759 31.5707C146.658 30.6589 144.661 29.5266 142.8 28.1927C141.551 27.2797 140.438 26.1949 139.493 24.9704C139.337 24.7479 139.195 24.5521 139.07 24.3785C138.945 24.2049 138.87 24.0491 138.794 23.9334L138.625 23.653C138.604 23.6229 138.587 23.59 138.576 23.5551C138.576 23.5551 138.603 23.5818 138.647 23.6397C138.692 23.6975 138.758 23.7999 138.83 23.9112C138.901 24.0224 139.003 24.1782 139.128 24.3562L139.573 24.9304C140.537 26.1252 141.658 27.1837 142.906 28.0769C144.767 29.3837 146.758 30.4934 148.848 31.3882C151.193 32.443 153.855 33.431 156.53 34.7439C159.204 36.0569 161.626 37.6546 163.335 39.6396C164.863 41.3748 165.905 43.4828 166.357 45.7503C166.663 47.278 166.568 48.8589 166.081 50.3389L165.809 51.0109C165.725 51.2067 165.627 51.3536 165.56 51.4827L165.395 51.7675C165.36 51.7942 165.337 51.8254 165.333 51.8209Z" fill="#455A64"/>
<path d="M148.225 66.5881L145.514 65.698C145.344 65.6213 145.153 65.6026 144.971 65.6446C144.79 65.7383 144.652 65.8974 144.584 66.0897C144.233 66.731 143.995 67.4281 143.881 68.1503C143.827 68.5071 143.852 68.8713 143.952 69.2178C144.053 69.5644 144.228 69.8849 144.464 70.1575C144.728 70.4339 145.068 70.6261 145.441 70.71C145.814 70.7939 146.203 70.7658 146.56 70.6293C146.881 70.457 147.159 70.2168 147.377 69.9254C147.594 69.634 147.746 69.2985 147.82 68.9425C147.994 68.2567 148.222 67.5855 148.501 66.9353L148.225 66.5881Z" fill="#9F7362"/>
<path d="M146.618 70.6252C146.618 70.6474 146.515 70.772 146.226 70.8788C145.808 71.013 145.357 71.0036 144.944 70.8521C144.642 70.7333 144.367 70.5534 144.137 70.3237C143.908 70.094 143.728 69.8193 143.609 69.517C143.315 68.773 143.3 67.9474 143.569 67.1937C143.696 66.8104 143.872 66.4453 144.094 66.1078C144.303 65.7444 144.647 65.4787 145.051 65.369C145.413 65.3257 145.78 65.3891 146.106 65.5515L146.88 65.8897C147.819 66.3348 148.389 66.6063 148.367 66.6641C148.344 66.722 147.73 66.5395 146.76 66.1968L145.968 65.9075C145.708 65.7927 145.422 65.7512 145.14 65.7874C144.854 65.8863 144.615 66.0898 144.472 66.357C144.286 66.6649 144.137 66.9935 144.027 67.3362C143.793 67.9894 143.793 68.7035 144.027 69.3567C144.217 69.8834 144.608 70.3137 145.113 70.554C145.462 70.7097 145.848 70.7622 146.226 70.7053C146.453 70.6608 146.6 70.5896 146.618 70.6252Z" fill="#263238"/>
<path d="M112.456 90.6127L124.606 87.3192C124.606 87.3192 129.36 98.7039 140.046 98.5971C151.755 98.4814 150.602 87.9557 150.602 87.9557L172.197 91.4449L175.25 128.412C175.25 128.412 173.438 161.315 170.176 168.703L175.25 180.666H103.666L102.514 95.6908L112.456 90.6127Z" fill="#0A1128"/>
<g opacity="0.2">
<path opacity="0.2" d="M171.146 164.136C170.914 163.068 170.322 162.125 169.81 161.15C168.591 158.724 167.968 156.041 166.802 153.584C164.675 149.102 160.856 145.662 156.899 142.662C152.943 139.663 148.728 136.948 145.328 133.338L145.185 133.423C148.879 139.4 152.725 145.693 156.57 151.577L164.99 164.484C165.534 165.449 166.266 166.296 167.145 166.971C168.066 167.581 169.37 167.768 170.26 167.118C171.15 166.468 171.377 165.205 171.146 164.136Z" fill="black"/>
</g>
<path d="M204.801 151.422C202.282 142.52 196.465 128.452 194.12 123.071C191.774 117.69 183.376 101.348 183.376 101.348C183.376 101.348 179.134 92.7448 171.359 91.3162L168.511 124.282L160.384 116.6C160.384 116.6 144.518 128.047 144.785 132.658L164.051 152.975C164.051 152.975 167.928 161.507 175.685 167.324C183.443 173.141 184.021 177.017 190.612 176.625C197.204 176.234 195.846 178.566 199.919 172.175C203.991 165.784 207.32 160.341 204.801 151.422Z" fill="#0A1128"/>
<path d="M155.755 141.857C155.72 141.879 155.355 141.274 154.62 140.41C153.646 139.302 152.614 138.245 151.527 137.246C150.437 136.234 149.426 135.139 148.505 133.97C148.158 133.525 147.891 133.142 147.718 132.875C147.615 132.738 147.53 132.589 147.464 132.43C147.587 132.541 147.696 132.667 147.789 132.804C147.985 133.053 148.269 133.414 148.634 133.85C149.586 134.981 150.605 136.053 151.687 137.059C152.781 138.065 153.804 139.144 154.75 140.29C155.027 140.645 155.286 141.015 155.524 141.398C155.619 141.541 155.697 141.695 155.755 141.857Z" fill="#263238"/>
<path d="M159.747 141.114C159.585 141.016 159.435 140.897 159.302 140.762C159.035 140.526 158.652 140.175 158.194 139.725C157.272 138.835 156.035 137.562 154.744 136.093C153.454 134.625 152.359 133.223 151.598 132.19C151.215 131.674 150.913 131.251 150.708 130.953C150.593 130.805 150.495 130.645 150.414 130.477C150.55 130.604 150.673 130.746 150.779 130.9L151.718 132.092C152.51 133.098 153.623 134.469 154.909 135.938C156.195 137.406 157.41 138.693 158.301 139.609L159.355 140.7C159.498 140.826 159.629 140.965 159.747 141.114Z" fill="#263238"/>
<path d="M163.543 139.093C163.383 138.99 163.234 138.87 163.098 138.737C162.818 138.497 162.417 138.141 161.923 137.696C160.944 136.806 159.609 135.551 158.176 134.135C156.743 132.72 155.474 131.389 154.58 130.415C154.134 129.925 153.77 129.525 153.529 129.244C153.397 129.106 153.276 128.957 153.169 128.799C153.331 128.913 153.48 129.044 153.614 129.191L154.713 130.303C155.643 131.251 156.938 132.555 158.358 133.975C159.778 135.395 161.104 136.672 162.052 137.589L163.178 138.684C163.314 138.807 163.436 138.944 163.543 139.093Z" fill="#263238"/>
<path d="M165.24 134.879C165.24 134.879 165.098 134.776 164.871 134.554L163.932 133.619L160.816 130.504L157.674 127.415L156.731 126.471C156.607 126.362 156.496 126.238 156.401 126.102C156.543 126.187 156.675 126.289 156.793 126.405C157.033 126.609 157.372 126.916 157.79 127.295C158.622 128.056 159.757 129.128 160.981 130.339C162.205 131.55 163.286 132.676 164.056 133.499C164.444 133.913 164.751 134.251 164.947 134.487C165.058 134.607 165.156 134.738 165.24 134.879Z" fill="#263238"/>
<path d="M166.156 130.842C166.208 130.955 166.244 131.075 166.263 131.198L166.303 131.358L166.197 131.229C165.676 130.61 164.301 128.848 162.578 126.872C161.488 125.617 160.464 124.508 159.716 123.712L158.826 122.768C158.709 122.659 158.608 122.535 158.524 122.399C158.655 122.487 158.778 122.588 158.889 122.702C159.116 122.906 159.441 123.213 159.828 123.592C160.607 124.362 161.652 125.456 162.747 126.707C163.997 128.124 165.166 129.61 166.25 131.158L166.179 131.184C166.155 131.072 166.148 130.956 166.156 130.842Z" fill="#263238"/>
<path d="M169.299 129.408C169.175 129.272 169.064 129.123 168.97 128.963C168.774 128.67 168.48 128.247 168.115 127.735C166.204 125.058 163.96 122.634 161.439 120.521C160.954 120.116 160.549 119.795 160.282 119.577C160.13 119.473 159.991 119.35 159.868 119.212C160.035 119.291 160.191 119.388 160.336 119.501C160.629 119.702 161.043 120.004 161.542 120.392C162.841 121.415 164.059 122.538 165.182 123.752C166.307 124.966 167.337 126.265 168.262 127.637C168.614 128.167 168.885 128.598 169.059 128.91C169.16 129.065 169.241 129.233 169.299 129.408Z" fill="#263238"/>
<path d="M185.468 175.69C185.468 175.69 185.312 175.575 185.023 175.334C184.733 175.094 184.293 174.733 183.737 174.266L178.863 170.185L175.378 167.261C173.98 166.134 172.643 164.934 171.373 163.665C169.959 162.193 168.662 160.614 167.492 158.943C166.17 157.092 165.005 155.134 164.007 153.09V153.117L144.157 132.604L144.113 132.56V132.502C144.384 131.242 145.145 130.161 145.924 129.128C146.753 128.1 147.645 127.123 148.595 126.204C150.464 124.362 152.435 122.675 154.407 121.081C156.379 119.488 158.364 117.966 160.34 116.577L160.415 116.524L160.482 116.591C163.21 119.19 165.823 121.731 168.369 124.126C169.005 124.727 169.637 125.318 170.278 125.875C170.925 126.425 171.521 127.033 172.058 127.691C172.196 127.842 172.339 127.989 172.503 128.136C172.654 128.272 172.813 128.4 172.979 128.518C173.305 128.774 173.615 129.051 173.905 129.346C174.479 129.934 174.991 130.561 175.49 131.175C175.988 131.79 176.482 132.39 177.021 132.956C177.544 133.494 178.133 133.963 178.774 134.353C179.406 134.74 180.065 135.07 180.683 135.448C181.294 135.821 181.864 136.256 182.384 136.748C182.9 137.224 183.372 137.718 183.843 138.194C184.315 138.67 184.765 139.155 185.179 139.64C186.009 140.561 186.68 141.614 187.163 142.756C187.906 144.733 188.259 146.835 188.205 148.947C188.205 150.794 188.058 152.369 187.996 153.655C187.933 154.942 187.911 155.93 187.92 156.602C187.92 156.931 187.92 157.185 187.942 157.363C187.965 157.541 187.942 157.625 187.942 157.625C187.942 157.625 187.902 157.274 187.876 156.602C187.849 155.93 187.876 154.937 187.916 153.651C187.956 152.365 188.089 150.789 188.085 148.947C188.129 146.852 187.77 144.768 187.026 142.809C186.162 140.62 184.226 138.804 182.259 136.872C181.745 136.389 181.183 135.961 180.581 135.595C179.971 135.225 179.313 134.896 178.672 134.504C178.021 134.108 177.423 133.631 176.891 133.085C176.349 132.533 175.846 131.923 175.347 131.304C174.849 130.686 174.337 130.072 173.772 129.498C173.492 129.21 173.194 128.939 172.881 128.688C172.726 128.567 172.548 128.443 172.392 128.296C172.236 128.149 172.089 127.998 171.947 127.851C171.409 127.204 170.813 126.608 170.167 126.071C169.521 125.505 168.889 124.918 168.248 124.317C165.698 121.927 163.081 119.386 160.358 116.791H160.5C158.528 118.193 156.548 119.697 154.581 121.286C152.613 122.875 150.646 124.557 148.795 126.395C147.856 127.309 146.974 128.279 146.156 129.302C145.381 130.316 144.638 131.389 144.375 132.568L144.344 132.471L164.167 153.006C165.155 155.041 166.309 156.991 167.616 158.836C168.787 160.512 170.084 162.095 171.497 163.571C172.754 164.842 174.077 166.044 175.463 167.172L178.93 170.118L183.768 174.239L185.036 175.33C185.325 175.557 185.468 175.69 185.468 175.69Z" fill="#263238"/>
<path d="M196.91 158.36C196.849 158.117 196.807 157.87 196.786 157.621C196.719 157.105 196.634 156.42 196.528 155.596C196.421 154.773 196.305 153.714 196.176 152.592C196.109 152.027 196.056 151.43 195.945 150.812C195.842 150.195 195.616 149.604 195.281 149.076C194.556 148.008 193.448 147.358 192.5 146.744C191.552 146.13 190.662 145.613 189.919 145.182L188.138 144.171C187.915 144.059 187.699 143.931 187.493 143.789C187.73 143.871 187.959 143.973 188.178 144.096C188.623 144.305 189.233 144.625 189.99 145.039C190.746 145.453 191.636 145.965 192.607 146.566C193.577 147.167 194.694 147.817 195.464 148.947C195.82 149.5 196.056 150.122 196.158 150.772C196.27 151.39 196.318 151.987 196.381 152.552C196.492 153.674 196.594 154.693 196.683 155.561C196.772 156.428 196.817 157.074 196.866 157.594C196.905 157.848 196.919 158.104 196.91 158.36Z" fill="#263238"/>
<path d="M188.356 125.817C188.272 125.966 188.169 126.104 188.049 126.227C187.836 126.48 187.524 126.841 187.123 127.272C186.08 128.4 184.981 129.474 183.83 130.49C182.679 131.508 181.478 132.466 180.229 133.361C179.848 133.643 179.414 133.844 178.952 133.953C178.824 133.976 178.695 133.986 178.565 133.984C178.521 133.99 178.476 133.99 178.431 133.984C178.431 133.962 178.618 133.984 178.93 133.886C179.366 133.749 179.773 133.534 180.132 133.25C181.066 132.542 182.357 131.523 183.692 130.339C185.027 129.155 186.198 128.016 187.021 127.183L187.965 126.187C188.079 126.047 188.211 125.923 188.356 125.817Z" fill="#263238"/>
<path d="M180.011 110.502C180.004 110.579 179.989 110.655 179.967 110.729C179.931 110.876 179.878 111.09 179.802 111.366C179.651 111.913 179.415 112.701 179.112 113.676C178.521 115.625 177.59 118.286 176.887 121.304C176.316 123.889 176.075 126.536 176.171 129.181C176.199 129.981 176.27 130.779 176.384 131.571C176.469 132.137 176.527 132.462 176.509 132.462C176.476 132.392 176.452 132.319 176.438 132.243C176.407 132.097 176.344 131.883 176.295 131.603C176.146 130.809 176.05 130.006 176.006 129.199C175.861 126.538 176.081 123.87 176.66 121.268C177.368 118.229 178.32 115.576 178.952 113.64C179.264 112.701 179.522 111.926 179.709 111.352L179.918 110.729C179.937 110.649 179.969 110.572 180.011 110.502Z" fill="#263238"/>
<path d="M112.456 90.6124C112.456 90.6124 101.232 93.9904 96.6521 99.1353C93.1984 103.016 88.4229 121.455 88.4229 121.455C88.4229 121.455 76.3751 167.007 76.6689 170.532C76.9626 174.057 83.1311 180.025 87.5417 182.286C91.9522 184.547 99.2957 186.986 107.814 176.407C112.554 170.527 117.16 164.969 119.386 159.859C120.482 157.184 121.043 154.321 121.037 151.43L135.448 134.878L120.454 118.811L107.227 135.857L112.456 90.6124Z" fill="#0A1128"/>
<path d="M121.801 123.071C121.693 123.231 121.569 123.38 121.432 123.516C121.178 123.806 120.822 124.224 120.386 124.749C119.496 125.795 118.357 127.286 117.062 128.919C115.969 130.329 114.795 131.674 113.546 132.947C113.06 133.428 112.655 133.806 112.357 134.051C112.213 134.189 112.055 134.311 111.885 134.416C112.008 134.255 112.145 134.106 112.295 133.971C112.571 133.708 112.958 133.312 113.43 132.818C114.369 131.834 115.588 130.397 116.879 128.764C118.17 127.13 119.354 125.648 120.262 124.629C120.707 124.117 121.094 123.712 121.365 123.445C121.498 123.307 121.644 123.182 121.801 123.071Z" fill="#263238"/>
<path d="M122.941 126.026C122.867 126.185 122.774 126.334 122.665 126.471C122.478 126.752 122.193 127.152 121.832 127.637C121.111 128.608 120.052 129.921 118.891 131.336C117.729 132.751 116.607 134.006 115.806 134.896C115.424 135.315 115.103 135.671 114.845 135.96C114.732 136.094 114.607 136.218 114.471 136.329C114.553 136.168 114.657 136.018 114.778 135.884C114.987 135.617 115.295 135.239 115.668 134.772L118.699 131.153C119.883 129.738 120.925 128.447 121.69 127.499L122.58 126.382C122.69 126.253 122.81 126.134 122.941 126.026Z" fill="#263238"/>
<path d="M125.211 129.172C125.13 129.315 125.033 129.448 124.922 129.569L124.09 130.601C123.386 131.491 122.438 132.693 121.388 134.046C120.338 135.399 119.367 136.605 118.633 137.451C118.264 137.873 117.961 138.212 117.743 138.439C117.64 138.564 117.522 138.676 117.391 138.772C117.469 138.629 117.565 138.496 117.676 138.376C117.908 138.096 118.184 137.749 118.508 137.348C119.212 136.458 120.164 135.252 121.21 133.903C122.256 132.555 123.231 131.344 123.969 130.494C124.334 130.072 124.641 129.733 124.859 129.511C124.963 129.385 125.081 129.271 125.211 129.172Z" fill="#263238"/>
<path d="M128.099 132.657C128.034 132.787 127.95 132.907 127.85 133.014C127.681 133.227 127.427 133.534 127.107 133.904C126.47 134.651 125.558 135.662 124.543 136.765L121.935 139.592C121.595 140 121.226 140.384 120.832 140.74C120.897 140.612 120.979 140.494 121.076 140.388C121.245 140.17 121.495 139.859 121.815 139.498C122.447 138.746 123.355 137.718 124.37 136.623L126.987 133.806C127.332 133.399 127.703 133.015 128.099 132.657Z" fill="#263238"/>
<path d="M130.165 134.349C129.916 134.778 129.63 135.184 129.31 135.564C128.754 136.294 127.975 137.282 127.085 138.359C126.195 139.436 125.398 140.424 124.829 141.14C124.536 141.541 124.217 141.923 123.876 142.284C124.112 141.847 124.386 141.431 124.695 141.042C125.234 140.299 126.03 139.298 126.92 138.212L129.212 135.461C129.503 135.068 129.821 134.696 130.165 134.349Z" fill="#263238"/>
<path d="M107.319 133.917C107.297 133.917 107.243 133.632 107.083 133.134C106.839 132.437 106.494 131.781 106.059 131.184C105.408 130.303 104.651 129.503 103.807 128.803C102.769 127.946 101.658 127.181 100.487 126.516C98.3434 125.32 96.1116 124.289 93.8113 123.431C92.9212 123.098 92.2091 122.853 91.7106 122.684C91.4477 122.609 91.1904 122.515 90.9407 122.403C91.0119 122.404 91.0825 122.416 91.1499 122.439C91.2878 122.475 91.4836 122.523 91.7373 122.599C92.2447 122.742 92.979 122.964 93.8692 123.28C96.1924 124.097 98.4409 125.112 100.59 126.315C101.772 126.987 102.891 127.764 103.932 128.639C104.775 129.358 105.523 130.182 106.157 131.091C106.588 131.707 106.919 132.387 107.136 133.107C107.195 133.303 107.236 133.504 107.261 133.708C107.291 133.774 107.311 133.845 107.319 133.917Z" fill="#263238"/>
<path d="M107.506 134.79C107.471 134.698 107.443 134.605 107.422 134.509C107.373 134.296 107.306 134.024 107.226 133.69C107.053 132.952 106.812 131.91 106.523 130.677C105.927 128.132 105.076 124.624 104.057 120.77C103.038 116.916 102.05 113.445 101.316 110.939C100.955 109.706 100.657 108.714 100.426 107.97C100.332 107.637 100.256 107.369 100.194 107.16C100.162 107.068 100.141 106.973 100.132 106.875C100.176 106.962 100.212 107.053 100.239 107.147C100.31 107.352 100.399 107.619 100.515 107.944C100.746 108.638 101.071 109.644 101.458 110.894C102.233 113.387 103.238 116.854 104.266 120.712C105.295 124.571 106.109 128.087 106.661 130.642C106.941 131.919 107.159 132.952 107.297 133.673C107.36 134.011 107.413 134.287 107.453 134.496C107.482 134.592 107.5 134.69 107.506 134.79Z" fill="#263238"/>
<path d="M88.0884 161.844L88.1685 161.586C88.2308 161.413 88.3154 161.141 88.4266 160.834C88.6581 160.175 89.0008 159.201 89.5081 157.968C90.1196 156.453 90.8925 155.009 91.8135 153.66C92.9084 152.075 94.5284 150.58 96.3175 148.956C98.1067 147.331 99.7712 145.244 101.538 142.983C103.305 140.722 105.139 138.238 107.092 135.626C109.046 133.013 111.098 130.25 113.292 127.406C115.486 124.562 117.801 121.62 120.369 118.736L120.449 118.642L120.533 118.736L128.771 127.606L135.349 134.727L135.425 134.807L135.349 134.883C132.648 137.838 130.062 140.744 127.632 143.588C126.421 145.008 125.251 146.419 124.152 147.825C123.871 148.177 123.604 148.528 123.342 148.884C123.075 149.228 122.829 149.587 122.607 149.961C122.181 150.704 121.84 151.492 121.593 152.311C121.09 153.931 120.818 155.569 120.422 157.131C120.234 157.903 119.997 158.661 119.71 159.401C119.421 160.131 119.069 160.807 118.757 161.493C117.548 163.996 116.178 166.418 114.654 168.743C112.457 172.074 109.876 175.135 106.963 177.862L106.238 178.534C106.007 178.739 105.793 178.93 105.584 179.104C105.179 179.46 104.832 179.754 104.542 179.994C104.253 180.234 104.044 180.39 103.892 180.515L103.665 180.684C103.665 180.684 103.732 180.617 103.879 180.497L104.516 179.958C104.8 179.731 105.143 179.429 105.544 179.068L106.189 178.49L106.91 177.809C109.793 175.055 112.349 171.978 114.529 168.641C116.04 166.316 117.398 163.896 118.593 161.395C118.904 160.714 119.256 160.029 119.536 159.317C119.817 158.582 120.051 157.829 120.235 157.065C120.622 155.511 120.894 153.869 121.401 152.236C121.65 151.401 121.993 150.598 122.425 149.841C122.654 149.461 122.904 149.094 123.173 148.742C123.435 148.386 123.707 148.03 123.983 147.678C125.086 146.263 126.257 144.852 127.467 143.428C129.893 140.579 132.479 137.669 135.185 134.714V134.865L128.602 127.744L120.391 118.874H120.56C118.001 121.753 115.687 124.686 113.488 127.526C111.289 130.365 109.233 133.12 107.257 135.733C105.281 138.345 103.452 140.811 101.685 143.076C99.9181 145.342 98.2536 147.447 96.4244 149.053C94.5952 150.66 93.0107 152.169 91.9114 153.713C90.9883 155.051 90.2095 156.484 89.5882 157.986C89.0675 159.21 88.6981 160.184 88.4711 160.834C88.351 161.159 88.2575 161.408 88.1952 161.582C88.1329 161.755 88.0884 161.844 88.0884 161.844Z" fill="#263238"/>
<path d="M122.158 90.4035C122.189 90.4622 122.216 90.5232 122.238 90.5859L122.443 91.12C122.748 91.7712 123.118 92.39 123.547 92.967C125.133 94.9954 127.012 96.776 129.123 98.2499H129.097C130.548 98.7484 132.141 99.2513 133.859 99.6741C135.652 100.134 137.488 100.402 139.338 100.475C142.085 100.556 144.813 99.9874 147.3 98.8151C149.325 97.8456 151.052 96.3481 152.298 94.4802C153.142 93.2251 153.715 91.8079 153.98 90.3189C154.029 90.0563 154.06 89.8204 154.078 89.6113C154.096 89.4021 154.118 89.233 154.118 89.095V88.7745C154.112 88.7377 154.112 88.7001 154.118 88.6633C154.156 89.2208 154.129 89.781 154.038 90.3323C153.803 91.8453 153.246 93.2903 152.405 94.5692C151.159 96.483 149.416 98.0215 147.362 99.0198C144.848 100.219 142.085 100.801 139.302 100.72C137.435 100.647 135.582 100.373 133.774 99.9011C132.161 99.4976 130.568 99.0134 129.003 98.4502C126.885 96.9565 125.011 95.1428 123.449 93.0738C123.023 92.4835 122.665 91.8476 122.381 91.1779C122.305 90.9509 122.247 90.7684 122.203 90.6304C122.18 90.5565 122.165 90.4805 122.158 90.4035Z" fill="#263238"/>
<path d="M141.024 116.346C140.722 116.903 140.587 117.536 140.637 118.168C140.686 118.8 140.918 119.404 141.305 119.907C142.626 118.968 143.841 117.888 144.927 116.685L145.212 116.395L146.138 113.747L143.659 112.412L141.358 112.109L141.024 116.346Z" fill="#65463C"/>
<path d="M144.883 114.686C144.303 115.664 143.881 116.727 143.632 117.837C143.382 118.953 143.464 120.118 143.868 121.188C143.896 121.28 143.95 121.362 144.024 121.424C144.087 121.462 144.156 121.486 144.229 121.495L145.439 121.753C145.723 121.216 145.96 120.654 146.147 120.076" fill="#65463C"/>
<path d="M126.805 130.993C126.805 130.993 130.013 126.266 130.908 125.278C131.414 124.705 132.062 124.273 132.786 124.028C132.786 124.028 137.531 121.251 139.053 119.372C140.575 117.494 142.902 114.09 142.902 114.09L144.064 113.734L145.23 114.895C145.23 114.895 144.785 120.267 147.108 120.895L148.363 120.534V110.244L140.842 105.139L134.936 102.024C134.936 102.024 130.641 109.724 129.386 110.885C128.131 112.047 121.277 119.279 120.534 120.085C120.534 120.067 121.028 124.308 126.805 130.993Z" fill="#9F7362"/>
<path d="M128.099 99.2026L138.3 95.1971L151.025 100.022C151.025 100.022 156.325 113.093 156.966 114.099C157.607 115.105 160.438 118.22 160.438 118.22C160.16 119.572 159.56 120.836 158.688 121.905C157.429 123.472 156.112 125.216 154.954 126.026C154.954 126.026 149.645 123.512 149.013 120.953C148.381 118.394 146.164 112.728 146.164 112.728L144.277 109.168L140.641 106.697L136.765 107.249C136.765 107.249 136.253 109.715 134.361 109.074L132.47 108.073L134.611 105.402C134.611 105.402 131.918 108.602 130.182 107.049L129.546 106.315L131.647 104.49C131.647 104.49 129.639 105.95 128.999 104.855L131.01 101.196C131.01 101.196 127.855 101.303 128.099 99.2026Z" fill="#9F7362"/>
<path d="M160.419 118.22C160.419 118.22 160.325 118.131 160.161 117.953L159.422 117.152C159.106 116.796 158.71 116.355 158.26 115.817C158.033 115.554 157.789 115.269 157.539 114.958C157.259 114.635 157.01 114.286 156.796 113.916C155.999 112.292 155.167 110.271 154.179 107.943C153.191 105.616 152.11 102.963 150.921 100.048L150.97 100.101L138.264 95.2725H138.339L128.139 99.3003L128.21 99.2069C128.172 99.5124 128.226 99.8223 128.366 100.097C128.531 100.363 128.769 100.576 129.051 100.711C129.658 100.988 130.32 101.122 130.987 101.103H131.187L131.089 101.272L129.91 103.422L129.082 104.926V104.824C129.138 104.915 129.214 104.992 129.304 105.05C129.394 105.108 129.497 105.145 129.603 105.157C129.835 105.181 130.068 105.154 130.288 105.077C130.744 104.922 131.174 104.702 131.566 104.423L131.708 104.601L129.607 106.43V106.266L130.244 107C130.558 107.273 130.968 107.41 131.383 107.383C131.803 107.344 132.209 107.212 132.571 106.995C133.3 106.56 133.953 106.01 134.508 105.366L134.681 105.509L132.54 108.157L132.509 107.992L134.401 108.998C134.663 109.085 134.942 109.109 135.215 109.069C135.48 109.013 135.722 108.882 135.914 108.691C136.291 108.288 136.552 107.789 136.666 107.249L136.688 107.178H136.755L140.627 106.63H140.667H140.698L144.33 109.105L146.213 112.665C147.134 115.073 147.935 117.267 148.558 119.221C148.709 119.711 148.856 120.187 148.972 120.65C149.03 120.873 149.1 121.093 149.181 121.309C149.275 121.507 149.381 121.701 149.497 121.887C149.964 122.532 150.52 123.107 151.148 123.596C152.019 124.281 152.942 124.897 153.908 125.439C154.237 125.626 154.491 125.759 154.664 125.853L154.922 125.995C154.922 125.995 154.829 125.959 154.651 125.875C154.473 125.79 154.206 125.661 153.881 125.479C152.902 124.956 151.968 124.351 151.09 123.672C150.448 123.182 149.88 122.602 149.404 121.949C149.28 121.758 149.169 121.559 149.07 121.353C148.986 121.133 148.913 120.909 148.852 120.681C148.732 120.236 148.58 119.751 148.429 119.261C147.793 117.316 146.987 115.127 146.052 112.728L144.156 109.167L144.188 109.198L140.547 106.737H140.618L136.746 107.289L136.831 107.205C136.708 107.786 136.43 108.323 136.025 108.758C135.803 108.98 135.522 109.134 135.215 109.203C134.906 109.255 134.589 109.227 134.294 109.123L132.402 108.117L132.282 108.055L132.367 107.952L134.503 105.282L134.677 105.424C134.105 106.091 133.429 106.659 132.674 107.107C132.284 107.343 131.846 107.486 131.392 107.525C130.916 107.555 130.447 107.395 130.088 107.08L129.452 106.346L129.376 106.261L129.461 106.185L131.561 104.356L131.708 104.539C131.298 104.83 130.848 105.063 130.373 105.229C130.121 105.312 129.854 105.343 129.59 105.318C129.448 105.3 129.313 105.251 129.194 105.174C129.074 105.097 128.974 104.994 128.9 104.872L128.869 104.815L128.9 104.757L129.728 103.252L130.911 101.103L131.014 101.272C130.308 101.293 129.607 101.15 128.967 100.854C128.643 100.699 128.373 100.453 128.188 100.146C128.029 99.8344 127.965 99.483 128.005 99.1356V99.0689L128.072 99.0422L138.277 95.0366H138.317H138.357L151.024 99.9279H151.064V99.9679L154.29 107.872C155.265 110.2 156.071 112.238 156.858 113.854C157.069 114.219 157.311 114.565 157.584 114.886C157.829 115.198 158.069 115.487 158.292 115.754L159.44 117.089L160.152 117.913L160.419 118.22Z" fill="#65463C"/>
<path d="M130.836 101.348C130.887 101.21 130.964 101.083 131.063 100.974C131.304 100.655 131.59 100.373 131.913 100.137C132.737 99.5543 133.898 98.8333 135.18 98.0099C136.462 97.1866 137.619 96.4567 138.509 95.9715C138.689 95.8717 138.889 95.811 139.094 95.7933C139.3 95.7757 139.507 95.8015 139.702 95.8692C139.973 95.9849 140.053 96.1451 140.044 96.1496C139.929 96.0685 139.803 96.0027 139.671 95.9537C139.488 95.9082 139.298 95.8993 139.111 95.9275C138.925 95.9558 138.746 96.0207 138.585 96.1184C137.744 96.6258 136.591 97.4046 135.305 98.2058L132.011 100.271C131.581 100.585 131.187 100.947 130.836 101.348Z" fill="#65463C"/>
<path d="M146.173 101.196C145.935 101.171 145.7 101.127 145.469 101.063C145.024 100.96 144.379 100.796 143.591 100.56C142.803 100.324 141.878 100.017 140.863 99.6206C140.376 99.3627 139.829 99.2398 139.279 99.2645C138.683 99.3444 138.095 99.4724 137.521 99.6473C136.947 99.813 136.404 100.072 135.914 100.413C135.468 100.754 135.049 101.131 134.663 101.539C133.902 102.304 133.212 103.003 132.616 103.564C132.02 104.125 131.512 104.561 131.147 104.841C130.965 104.979 130.818 105.086 130.702 105.148C130.586 105.211 130.546 105.246 130.542 105.237C130.711 105.072 130.89 104.916 131.076 104.77C131.423 104.472 131.908 104.022 132.487 103.435C133.065 102.847 133.742 102.153 134.499 101.374C134.89 100.955 135.314 100.568 135.767 100.217C136.276 99.859 136.839 99.5869 137.436 99.4114C138.027 99.2345 138.631 99.105 139.243 99.0242C139.542 98.9883 139.846 99.0171 140.133 99.1087C140.413 99.1978 140.667 99.3135 140.921 99.4114C141.922 99.8119 142.839 100.137 143.618 100.391C144.397 100.644 145.029 100.836 145.469 100.965C145.709 101.023 145.945 101.1 146.173 101.196Z" fill="#65463C"/>
<path d="M147.464 105.268C147.278 105.247 147.096 105.202 146.921 105.135L145.47 104.69L143.325 103.991L142.065 103.573C141.63 103.408 141.184 103.273 140.73 103.168C139.834 103.056 138.924 103.224 138.127 103.648C137.343 103.996 136.604 104.205 136.03 104.472C135.41 104.766 134.85 105.173 134.379 105.673C134.379 105.673 134.379 105.624 134.455 105.544C134.536 105.433 134.624 105.326 134.717 105.224C135.073 104.853 135.494 104.551 135.959 104.334C136.542 104.044 137.294 103.818 138.042 103.466C138.449 103.279 138.872 103.13 139.306 103.021C139.785 102.894 140.287 102.875 140.775 102.963C141.243 103.074 141.704 103.214 142.154 103.381L143.414 103.826L145.541 104.57L146.965 105.095C147.136 105.138 147.303 105.196 147.464 105.268Z" fill="#65463C"/>
<path d="M135.247 134.789C135.167 134.811 135.085 134.822 135.002 134.825C134.846 134.825 134.61 134.852 134.308 134.856C133.451 134.873 132.596 134.805 131.753 134.652C131.168 134.547 130.595 134.382 130.044 134.157C129.412 133.886 128.835 133.503 128.339 133.027C127.199 131.967 126.176 130.789 125.286 129.511C124.316 128.176 123.399 126.903 122.652 125.679C121.977 124.602 121.421 123.457 120.991 122.261C120.704 121.451 120.525 120.607 120.457 119.751C120.434 119.52 120.427 119.288 120.435 119.057C120.425 118.975 120.425 118.893 120.435 118.812C120.457 118.812 120.457 119.146 120.529 119.742C120.629 120.583 120.829 121.409 121.125 122.203C121.574 123.379 122.141 124.506 122.816 125.568C123.568 126.774 124.49 128.042 125.455 129.373C126.336 130.637 127.345 131.808 128.464 132.867C129.377 133.727 130.528 134.293 131.766 134.491C132.598 134.657 133.442 134.749 134.29 134.767C134.908 134.785 135.242 134.772 135.247 134.789Z" fill="#263238"/>
<path d="M160.398 116.622C160.431 116.695 160.452 116.773 160.46 116.854C160.503 117.083 160.525 117.315 160.527 117.548C160.515 118.404 160.314 119.248 159.939 120.018C159.38 121.151 158.675 122.205 157.843 123.156C156.953 124.25 155.893 125.408 154.727 126.565C153.561 127.722 152.395 128.755 151.296 129.649C150.337 130.472 149.313 131.216 148.234 131.874C147.499 132.314 146.678 132.589 145.826 132.68C145.595 132.702 145.363 132.702 145.132 132.68C145.05 132.676 144.969 132.661 144.892 132.635C144.892 132.609 145.225 132.671 145.817 132.609C146.647 132.486 147.442 132.193 148.154 131.75C149.209 131.083 150.213 130.339 151.158 129.524C152.248 128.634 153.406 127.584 154.563 126.44C155.72 125.296 156.788 124.144 157.678 123.058C158.508 122.129 159.217 121.098 159.788 119.991C160.169 119.242 160.39 118.422 160.438 117.583C160.451 116.952 160.371 116.627 160.398 116.622Z" fill="#263238"/>
<g opacity="0.2">
<path opacity="0.2" d="M125.826 145.742C123.876 148.017 122.243 149.174 121.477 152.067C120.832 154.506 120.142 158.858 117.605 163.451C113.982 170.043 109.754 175.913 104.948 179.625C113.288 178.089 120.169 171.534 122.839 163.482C124.237 159.272 124.441 154.724 125.955 150.576C127.254 147.051 129.466 143.922 131.981 141.131C133.432 139.525 134.682 137.802 134.785 135.635C132.056 138.314 128.794 142.28 125.826 145.742Z" fill="black"/>
</g>
<g opacity="0.2">
<path opacity="0.2" d="M88.8811 159.824C88.0334 162.31 86.7873 164.641 85.1916 166.727C84.1724 165.699 83.8564 164.115 84.1012 162.686C84.398 161.263 84.9744 159.914 85.7969 158.716C90.154 151.742 96.4783 146.139 103.043 141.176C101.001 143.875 98.8091 146.457 96.4783 148.911C93.5098 152 90.3098 155.289 88.8811 159.824Z" fill="black"/>
</g>
<path d="M145.403 141.701C145.376 141.784 145.339 141.864 145.291 141.937L144.931 142.591C144.619 143.156 144.134 143.958 143.507 144.932C142.879 145.907 142.091 147.042 141.175 148.266C140.258 149.49 139.181 150.794 138.001 152.111C136.822 153.428 135.62 154.612 134.503 155.672C133.386 156.731 132.336 157.616 131.432 158.342C130.529 159.067 129.781 159.633 129.247 160.002L128.637 160.447C128.568 160.501 128.494 160.547 128.415 160.585C128.472 160.519 128.538 160.46 128.611 160.411L129.194 159.966C129.71 159.575 130.44 158.992 131.325 158.253C132.211 157.514 133.248 156.602 134.361 155.556C135.473 154.51 136.644 153.308 137.828 151.995C139.012 150.682 140.053 149.383 141.001 148.177C141.949 146.971 142.728 145.845 143.369 144.883C144.01 143.922 144.517 143.134 144.855 142.582C145.016 142.329 145.145 142.137 145.251 141.955C145.293 141.865 145.344 141.78 145.403 141.701Z" fill="#263238"/>
<g opacity="0.2">
<path opacity="0.2" d="M187.893 156.108L188.899 157.483C190.663 153.177 190.705 148.357 189.015 144.02C187.319 139.739 183.883 136.775 179.668 134.879C181.529 135.965 182.748 137.233 184.221 138.622C187.893 142.08 188.855 146.504 187.875 156.108" fill="black"/>
</g>
<path d="M52.9507 168.062V168.507H50.8144V168.146L51.9671 167.056C52.2475 166.785 52.2964 166.611 52.2964 166.455C52.2964 166.188 52.114 166.037 51.7579 166.037C51.6292 166.029 51.5005 166.053 51.3828 166.106C51.2651 166.158 51.1617 166.239 51.0814 166.339L50.7031 166.05C50.8366 165.889 51.006 165.762 51.1978 165.678C51.3895 165.595 51.5981 165.558 51.8069 165.57C52.4344 165.57 52.8394 165.886 52.8394 166.402C52.8363 166.581 52.7912 166.757 52.7077 166.915C52.6243 167.074 52.5047 167.21 52.3588 167.314L51.5843 168.053L52.9507 168.062Z" fill="#263238"/>
<path d="M53.2451 166.625C53.246 166.558 53.2666 166.493 53.3043 166.438C53.342 166.383 53.3951 166.34 53.457 166.316C53.5189 166.291 53.5868 166.285 53.6521 166.298C53.7174 166.312 53.7772 166.344 53.8241 166.392C53.871 166.439 53.9027 166.499 53.9154 166.565C53.9281 166.63 53.9212 166.698 53.8954 166.76C53.8697 166.821 53.8264 166.874 53.7708 166.911C53.7153 166.948 53.6501 166.968 53.5834 166.968C53.5383 166.969 53.4933 166.961 53.4514 166.944C53.4095 166.927 53.3715 166.902 53.3398 166.87C53.3081 166.838 53.2833 166.799 53.267 166.757C53.2508 166.715 53.2433 166.67 53.2451 166.625ZM53.2451 168.205C53.2451 168.115 53.2808 168.029 53.3442 167.966C53.4077 167.902 53.4937 167.867 53.5834 167.867C53.6731 167.867 53.7591 167.902 53.8226 167.966C53.886 168.029 53.9216 168.115 53.9216 168.205C53.9216 168.294 53.886 168.381 53.8226 168.444C53.7591 168.507 53.6731 168.543 53.5834 168.543C53.4937 168.543 53.4077 168.507 53.3442 168.444C53.2808 168.381 53.2451 168.294 53.2451 168.205Z" fill="#263238"/>
<path d="M55.2696 165.619V168.516H54.7355V166.068H54.1213V165.623L55.2696 165.619Z" fill="#263238"/>
<path d="M58.4516 167.857H57.9175V168.516H57.3968V167.857H55.8035V167.488L57.2321 165.619H57.8107L56.4755 167.399H57.4235V166.82H57.9309V167.403H58.4516V167.857Z" fill="#263238"/>
<path d="M203.483 167.266H62.6167V167.978H203.483V167.266Z" fill="white"/>
<path d="M207.391 167.835C207.388 167.972 207.357 168.108 207.299 168.232C207.242 168.357 207.159 168.468 207.056 168.559C206.953 168.65 206.833 168.719 206.702 168.762C206.571 168.804 206.433 168.819 206.297 168.805C205.482 168.805 205.001 168.28 205.001 167.314C205.001 166.349 205.602 165.725 206.47 165.725C206.745 165.716 207.018 165.782 207.258 165.917L207.049 166.335C206.879 166.233 206.682 166.183 206.484 166.193C205.918 166.193 205.562 166.544 205.562 167.221C205.665 167.114 205.79 167.031 205.929 166.977C206.067 166.923 206.215 166.9 206.363 166.909C206.493 166.896 206.624 166.91 206.748 166.951C206.871 166.992 206.985 167.058 207.082 167.145C207.179 167.232 207.257 167.338 207.31 167.457C207.363 167.576 207.391 167.705 207.391 167.835ZM206.853 167.857C206.853 167.546 206.617 167.35 206.257 167.35C206.182 167.341 206.107 167.348 206.036 167.369C205.965 167.391 205.898 167.426 205.841 167.474C205.784 167.522 205.738 167.581 205.704 167.648C205.671 167.715 205.651 167.787 205.647 167.862C205.647 168.147 205.869 168.369 206.27 168.369C206.343 168.378 206.416 168.371 206.486 168.35C206.556 168.328 206.621 168.292 206.676 168.243C206.731 168.195 206.775 168.136 206.806 168.069C206.836 168.003 206.852 167.93 206.853 167.857Z" fill="#263238"/>
<path d="M207.663 166.807C207.663 166.714 207.7 166.624 207.766 166.558C207.832 166.492 207.921 166.455 208.014 166.455C208.107 166.455 208.197 166.492 208.263 166.558C208.329 166.624 208.366 166.714 208.366 166.807C208.366 166.9 208.329 166.99 208.263 167.055C208.197 167.121 208.107 167.158 208.014 167.158C207.921 167.158 207.832 167.121 207.766 167.055C207.7 166.99 207.663 166.9 207.663 166.807ZM207.663 168.436C207.663 168.343 207.7 168.253 207.766 168.187C207.832 168.121 207.921 168.084 208.014 168.084C208.107 168.084 208.197 168.121 208.263 168.187C208.329 168.253 208.366 168.343 208.366 168.436C208.366 168.529 208.329 168.618 208.263 168.684C208.197 168.75 208.107 168.787 208.014 168.787C207.921 168.787 207.832 168.75 207.766 168.684C207.7 168.618 207.663 168.529 207.663 168.436Z" fill="#263238"/>
<path d="M208.722 167.265C208.722 166.281 209.261 165.725 209.973 165.725C210.685 165.725 211.223 166.281 211.223 167.265C211.223 168.249 210.685 168.805 209.973 168.805C209.261 168.805 208.722 168.249 208.722 167.265ZM210.663 167.265C210.663 166.544 210.382 166.21 209.973 166.21C209.563 166.21 209.283 166.544 209.283 167.265C209.283 167.986 209.563 168.32 209.973 168.32C210.382 168.32 210.663 167.986 210.663 167.265Z" fill="#263238"/>
<path d="M211.597 167.265C211.597 166.281 212.135 165.725 212.847 165.725C213.559 165.725 214.098 166.281 214.098 167.265C214.098 168.249 213.559 168.805 212.847 168.805C212.135 168.805 211.597 168.249 211.597 167.265ZM213.537 167.265C213.537 166.544 213.257 166.21 212.847 166.21C212.438 166.21 212.157 166.544 212.157 167.265C212.157 167.986 212.438 168.32 212.847 168.32C213.257 168.32 213.537 167.986 213.537 167.265Z" fill="#263238"/>
<path d="M219.011 167.003H218.415V165.29H220.129V165.882H219.011V167.003Z" fill="#263238"/>
<path d="M220.129 169.241H218.415V167.528H219.011V168.645H220.129V169.241Z" fill="#263238"/>
<path d="M222.862 169.241H221.148V168.645H222.27V167.528H222.862V169.241Z" fill="#263238"/>
<path d="M222.862 166.999H222.27V165.882H221.148V165.29H222.862V166.999Z" fill="#263238"/>
<path d="M61.992 54.0601C63.3583 52.5783 63.2648 50.2695 61.783 48.9031C60.3013 47.5368 57.9925 47.6303 56.6261 49.1121C55.2597 50.5938 55.3533 52.9027 56.835 54.269C58.3168 55.6354 60.6256 55.5418 61.992 54.0601Z" fill="#E0E0E0"/>
<path d="M62.956 51.5808C62.9293 51.5808 62.956 51.2514 62.7958 50.6906C62.6185 50.0317 62.2581 49.4366 61.7563 48.9742C61.2545 48.5118 60.6319 48.2011 59.9608 48.0781C59.3356 47.9657 58.6917 48.0226 58.096 48.2428C57.4398 48.4843 56.8698 48.9149 56.4581 49.4801C56.0104 50.0848 55.7688 50.8173 55.7688 51.5696C55.7688 52.322 56.0104 53.0545 56.4581 53.6592C56.8698 54.2244 57.4398 54.6549 58.096 54.8965C58.6537 55.1027 59.2543 55.166 59.8428 55.0805C60.4313 54.9949 60.9891 54.7634 61.4651 54.4069C62.1176 53.9228 62.588 53.2329 62.8003 52.4486C62.9471 51.8968 62.9338 51.5585 62.9605 51.5585C62.9701 51.6354 62.9701 51.7131 62.9605 51.7899C62.962 52.015 62.9351 52.2393 62.8804 52.4575C62.7181 53.1498 62.3591 53.7803 61.8466 54.273C61.3341 54.7658 60.69 55.0998 59.9919 55.2347C59.2969 55.3687 58.5782 55.3031 57.919 55.0455C57.2597 54.788 56.6869 54.349 56.2668 53.7794C55.7878 53.1363 55.5291 52.3559 55.5291 51.5541C55.5291 50.7522 55.7878 49.9718 56.2668 49.3288C56.4859 49.0205 56.7552 48.7513 57.0634 48.5321C57.3513 48.3124 57.673 48.1411 58.0159 48.0247C58.6475 47.7978 59.3286 47.7455 59.9875 47.8734C60.6855 48.0084 61.3296 48.3423 61.8421 48.8351C62.3546 49.3279 62.7137 49.9584 62.8759 50.6506C62.9306 50.8689 62.9576 51.0932 62.956 51.3182C62.9681 51.4053 62.9681 51.4937 62.956 51.5808Z" fill="#263238"/>
<path d="M122.095 51.0555C122.095 51.1178 109.794 51.1712 94.6215 51.1712C79.4494 51.1712 67.1479 51.1178 67.1479 51.0555C67.1479 50.9932 79.445 50.9398 94.6215 50.9398C109.798 50.9398 122.095 50.9709 122.095 51.0555Z" fill="#263238"/>
<path d="M191.35 53.405C192.809 51.945 192.809 49.5779 191.35 48.1179C189.89 46.6579 187.522 46.6579 186.062 48.1179C184.602 49.5779 184.602 51.945 186.062 53.405C187.522 54.8649 189.89 54.8649 191.35 53.405Z" fill="#E0E0E0"/>
<path d="M202.76 53.405C204.22 51.945 204.22 49.5779 202.76 48.1179C201.3 46.6579 198.933 46.6579 197.473 48.1179C196.013 49.5779 196.013 51.945 197.473 53.405C198.933 54.8649 201.3 54.8649 202.76 53.405Z" fill="#E0E0E0"/>
<path d="M212.95 54.2155C214.859 53.4294 215.77 51.2444 214.984 49.3352C214.197 47.426 212.012 46.5155 210.103 47.3017C208.194 48.0878 207.284 50.2728 208.07 52.182C208.856 54.0912 211.041 55.0016 212.95 54.2155Z" fill="#E0E0E0"/>
<path d="M64.8162 136.681C65.4749 134.389 66.8946 132.172 69.0843 131.229C71.363 130.245 74.0022 130.806 76.3344 131.652C78.6665 132.497 80.9585 133.637 83.4553 133.788C85.9521 133.939 88.7293 132.764 89.4725 130.397C90.1668 128.171 88.8272 125.795 87.1449 124.166C85.3679 122.458 83.1898 121.225 80.8112 120.58C78.4326 119.936 75.93 119.9 73.5339 120.476C71.1377 121.052 68.9252 122.222 67.0999 123.878C65.2747 125.534 63.8955 127.623 63.0894 129.952" fill="#0A1128"/>
<g opacity="0.3">
<path opacity="0.3" d="M87.1268 124.179C85.3498 122.472 83.1717 121.239 80.7931 120.594C78.4145 119.949 75.9119 119.913 73.5158 120.489C71.1197 121.066 68.9071 122.236 67.0819 123.892C65.2566 125.548 63.8774 127.636 63.0713 129.965L64.8159 136.694C65.4746 134.402 66.8944 132.186 69.0841 131.242C71.3628 130.259 74.002 130.82 76.3341 131.665C78.6662 132.511 80.9583 133.65 83.4551 133.801C85.9518 133.953 88.729 132.778 89.4723 130.41C90.1488 128.171 88.8091 125.795 87.1268 124.179Z" fill="black"/>
</g>
<path d="M45.1843 146.633C41.5526 143.183 41.7351 137.171 43.5465 132.498C45.3579 127.824 49.3323 124.233 53.7384 121.87C58.0531 119.604 62.8248 118.345 67.6954 118.187C72.5661 118.029 77.4093 118.976 81.8618 120.957C79.6819 121.051 77.5583 121.678 75.6768 122.783C73.7953 123.888 72.2133 125.437 71.0691 127.295C69.0752 130.602 68.6346 134.616 66.9879 138.11C65.1331 142.051 61.8384 145.13 57.7818 146.716C53.7252 148.301 49.2152 148.271 45.1799 146.633" fill="#0A1128"/>
<path d="M43.4405 125.888C39.435 121.139 38.8786 113.515 39.475 107.316C40.0714 101.116 41.5 94.8852 40.5254 88.7344C39.9468 85.0939 38.5315 81.6135 38.0553 77.9595C37.5791 74.3056 38.2555 70.1665 41.0861 67.8033C44.344 65.0928 49.4755 65.7293 52.8624 68.2795C56.2493 70.8297 58.2031 74.8263 59.6496 78.8185C62.8006 87.5817 63.9578 97.2974 61.3675 106.243C58.7773 115.189 52.7022 123.191 43.7876 125.888" fill="#0A1128"/>
<path d="M41.5085 164.862C41.491 164.68 41.491 164.497 41.5085 164.315C41.5085 163.958 41.5085 163.424 41.5352 162.748C41.5886 161.382 41.7177 159.414 42.0248 156.993C42.3824 154.158 42.898 151.346 43.5692 148.568C44.4066 145.158 45.7001 141.877 47.4145 138.813C49.1378 135.753 51.2501 132.931 53.6987 130.414C55.6918 128.36 57.8984 126.525 60.2812 124.94C61.287 124.241 62.2617 123.716 63.0984 123.227C63.9351 122.737 64.7051 122.408 65.3237 122.109L66.7702 121.5C66.9351 121.423 67.1063 121.36 67.282 121.313C67.1265 121.407 66.9644 121.491 66.7969 121.562L65.3771 122.225C64.7763 122.541 64.0419 122.924 63.1919 123.391C62.3418 123.859 61.4116 124.428 60.4191 125.136C55.1755 128.712 50.8261 133.449 47.7082 138.977C44.0098 145.448 42.995 152.253 42.2607 157.024C41.9269 159.432 41.7622 161.395 41.6687 162.752C41.6331 163.407 41.602 163.932 41.5797 164.319C41.5702 164.502 41.5464 164.683 41.5085 164.862Z" fill="#263238"/>
<path d="M6.7986 107.151C-0.647263 111.642 -0.620558 115.732 0.62116 119.591C1.86288 123.449 6.43365 126.133 10.2211 124.687C12.3619 123.868 13.9151 122.016 15.2414 120.138C16.5677 118.26 17.8094 116.266 19.6653 114.922C21.5212 113.578 24.2138 113.066 26.0831 114.397" fill="#0A1128"/>
<g opacity="0.3">
<path opacity="0.3" d="M6.7986 107.151C-0.647263 111.642 -0.620558 115.732 0.62116 119.591C1.86288 123.449 6.43365 126.133 10.2211 124.687C12.3619 123.868 13.9151 122.016 15.2414 120.138C16.5677 118.26 17.8094 116.266 19.6653 114.922C20.9451 113.972 22.5275 113.521 24.1159 113.654L6.7986 107.151Z" fill="black"/>
</g>
<path d="M24.106 113.654L26.082 114.397C25.4965 113.987 24.8168 113.731 24.106 113.654Z" fill="black"/>
<path d="M1.22654 112.078C3.17146 109.385 7.98256 108.606 11.0179 109.95C14.0532 111.295 16.2785 113.956 18.2724 116.626C20.2662 119.297 22.2022 122.092 24.9483 123.939C27.6943 125.786 31.5619 126.458 34.2945 124.597C36.1015 123.373 37.1474 121.246 37.4767 119.092C37.8061 116.938 37.4767 114.735 37.0317 112.599C36.3774 109.483 35.3048 106.216 32.8036 104.231C30.022 102.006 26.1544 101.917 22.6028 102.033C18.5216 102.166 14.3825 102.478 10.555 103.884C6.72749 105.291 2.82431 108.335 1.20874 112.096" fill="#0A1128"/>
<path d="M35.3087 158.898C35.3087 158.898 35.3087 158.845 35.3087 158.738C35.3087 158.631 35.3087 158.453 35.282 158.257C35.282 157.812 35.2464 157.189 35.2197 156.41C35.1707 154.777 35.1084 152.463 35.0239 149.614C34.9393 146.766 34.8191 143.33 34.61 139.542C34.4008 135.755 34.1159 131.589 33.5418 127.254C33.3001 125.147 32.8878 123.064 32.309 121.024C31.7167 119.139 30.9524 117.312 30.0258 115.567C29.1946 113.984 28.2297 112.474 27.1418 111.054C26.1859 109.822 25.1338 108.667 23.9953 107.6C22.3358 106.066 20.458 104.787 18.4231 103.804C18.0626 103.635 17.7422 103.47 17.4573 103.359L16.7319 103.043L16.2868 102.865C16.1845 102.821 16.1355 102.798 16.1355 102.789C16.1904 102.796 16.2442 102.809 16.2957 102.829L16.7408 102.981L17.484 103.234C17.7733 103.341 18.0938 103.497 18.4676 103.653C20.5388 104.604 22.4524 105.866 24.1421 107.396C25.3021 108.46 26.3737 109.616 27.3466 110.854C28.4519 112.281 29.4318 113.802 30.2751 115.398C31.2193 117.157 31.997 119 32.5983 120.903C33.1856 122.962 33.6039 125.065 33.8489 127.192C34.4275 131.545 34.699 135.715 34.8948 139.507C35.0906 143.299 35.1796 146.717 35.2375 149.587C35.2953 152.458 35.3176 154.781 35.3265 156.388C35.3265 157.171 35.3265 157.79 35.3265 158.239C35.3265 158.431 35.3265 158.591 35.3265 158.72C35.3278 158.78 35.3219 158.84 35.3087 158.898Z" fill="#263238"/>
<path d="M38.0008 162.263C37.6453 161.22 37.3715 160.152 37.1819 159.067C36.6674 156.102 36.5536 153.081 36.8436 150.086C37.2973 145.648 38.2483 141.275 39.6787 137.05C41.2052 132.261 43.2836 127.138 45.055 121.633C45.9274 118.958 46.6408 116.234 47.1913 113.475C47.683 110.909 48.0351 108.318 48.2461 105.713C48.5856 101.284 48.6659 96.8396 48.4864 92.4015C48.3573 88.6096 48.1526 85.5475 48.0413 83.4246C47.979 82.3832 47.9345 81.5643 47.8989 80.9857C47.8989 80.7231 47.8989 80.5139 47.8678 80.3492C47.8618 80.2782 47.8618 80.2067 47.8678 80.1356C47.8891 80.2049 47.9011 80.2768 47.9034 80.3492C47.9034 80.5095 47.939 80.7186 47.9657 80.9812C48.0146 81.5598 48.0814 82.3743 48.1704 83.4157C48.3351 85.5342 48.5754 88.6007 48.7312 92.3926C48.9484 96.8424 48.8934 101.301 48.5665 105.744C48.363 108.368 48.0153 110.979 47.5251 113.564C46.9709 116.328 46.2516 119.057 45.371 121.735C43.5907 127.259 41.5123 132.372 39.9724 137.148C38.5405 141.35 37.5734 145.696 37.0884 150.108C36.7812 153.085 36.8605 156.089 37.3243 159.045C37.5068 160.086 37.6759 160.896 37.8227 161.435C37.8851 161.687 37.934 161.892 37.9696 162.049C37.9866 162.119 37.997 162.191 38.0008 162.263Z" fill="#263238"/>
<path d="M56.4583 165.628H21.4988L20.7021 158.898H56.4583V165.628Z" fill="#455A64"/>
<path d="M25.2507 164.862L29.6212 185.05H48.6164L52.7065 164.862H25.2507Z" fill="#455A64"/>
<path d="M56.4584 165.628C56.4584 165.721 48.7722 165.775 39.2924 165.748C29.8127 165.721 22.1265 165.623 22.1265 165.534C22.1265 165.445 29.8127 165.387 39.2924 165.414C48.7722 165.441 56.4584 165.539 56.4584 165.628Z" fill="#455A64"/>
<path d="M50.4403 175.588C49.4909 174.87 48.4565 174.272 47.3605 173.808C46.1673 173.337 44.8999 173.083 43.6175 173.056C42.0457 173.059 40.4871 173.344 39.0156 173.897C37.4223 174.436 35.9313 175.063 34.4849 175.41C33.1973 175.687 31.87 175.726 30.5684 175.526C29.6904 175.402 28.8391 175.132 28.0493 174.729C27.8393 174.615 27.6371 174.487 27.444 174.347C27.3105 174.249 27.2482 174.191 27.2527 174.182C27.2571 174.173 27.5509 174.355 28.1072 174.627C28.8996 174.976 29.7396 175.206 30.5995 175.308C31.8723 175.476 33.1646 175.42 34.4181 175.143C35.8201 174.792 37.3066 174.16 38.9132 173.617C40.4201 173.047 42.02 172.763 43.6309 172.78C44.9459 172.821 46.242 173.105 47.454 173.617C48.269 173.959 49.0352 174.408 49.7327 174.952C49.9219 175.09 50.1032 175.238 50.2756 175.397C50.3389 175.453 50.3942 175.517 50.4403 175.588Z" fill="#263238"/>
<path d="M50.1914 176.924C49.275 176.234 48.2837 175.65 47.2362 175.183C46.0895 174.714 44.8656 174.462 43.6268 174.44C42.1076 174.443 40.601 174.714 39.1761 175.241C37.6362 175.753 36.1898 176.349 34.8101 176.723C33.5904 177.082 32.319 177.232 31.0493 177.168C30.1909 177.118 29.3518 176.892 28.5837 176.505C28.3765 176.399 28.1785 176.275 27.9918 176.136C27.8672 176.038 27.8049 175.984 27.8093 175.976C27.8138 175.967 28.0986 176.145 28.6371 176.389C29.4056 176.717 30.2277 176.901 31.0627 176.932C32.3033 176.97 33.5419 176.806 34.73 176.447C36.0652 176.069 37.5161 175.468 39.0738 174.947C40.5339 174.41 42.0796 174.141 43.6357 174.155C44.9092 174.192 46.1636 174.474 47.3297 174.988C48.1143 175.333 48.8492 175.782 49.5149 176.323C49.6965 176.461 49.8703 176.61 50.0356 176.768C50.1424 176.87 50.2003 176.924 50.1914 176.924Z" fill="white"/>
<path d="M50.8052 174.253C49.8219 173.519 48.7607 172.895 47.6408 172.393C46.424 171.868 45.1266 171.555 43.8044 171.467C42.1821 171.434 40.569 171.718 39.0556 172.304C37.4089 172.86 35.8779 173.527 34.3647 173.839C33.0257 174.067 31.658 174.067 30.3191 173.839C29.4178 173.699 28.543 173.422 27.7244 173.02C27.5047 172.905 27.2935 172.774 27.0924 172.628C26.9544 172.526 26.8876 172.468 26.8965 172.459C26.9054 172.45 27.2036 172.637 27.7867 172.904C28.6104 173.254 29.477 173.492 30.3636 173.612C31.6762 173.803 33.0113 173.777 34.3157 173.536C35.7666 173.225 37.3021 172.548 38.9577 171.992C40.509 171.388 42.1672 171.106 43.8311 171.164C45.185 171.265 46.5099 171.607 47.7432 172.174C48.5747 172.547 49.3578 173.019 50.0753 173.581C50.2718 173.729 50.4591 173.89 50.6361 174.062C50.7518 174.182 50.8096 174.253 50.8052 174.253Z" fill="white"/>
<path d="M56.7655 165.659C56.7655 165.752 48.9013 165.824 39.2034 165.824C29.5056 165.824 21.6414 165.752 21.6414 165.659C21.6414 165.565 29.5011 165.49 39.2034 165.49C48.9058 165.49 56.7655 165.565 56.7655 165.659Z" fill="#263238"/>
<path d="M264.311 84.1551H260.376V87.0034H264.311V84.1551Z" fill="#455A64"/>
<path d="M231.305 61.074H224.535V80.8392H231.305V61.074Z" fill="#0A1128"/>
<g opacity="0.3">
<path opacity="0.3" d="M231.304 61.074H224.534V80.8392H231.304V61.074Z" fill="black"/>
</g>
<path d="M231.304 59.4586V82.2189H250.682L255.297 79.4507V62.6852L250.606 59.4586H231.304Z" fill="#0A1128"/>
<path d="M238.759 59.4586H237.281V82.2234H238.759V59.4586Z" fill="#455A64"/>
<path d="M247.082 82.0275C247.028 82.0275 246.984 77.0027 246.984 70.8075C246.984 64.6122 247.028 59.5875 247.082 59.5875C247.135 59.5875 247.184 64.6122 247.184 70.8075C247.184 77.0027 247.157 82.0275 247.082 82.0275Z" fill="#263238"/>
<path d="M246.917 77.7552C244.2 77.8916 241.477 77.8916 238.759 77.7552C238.759 77.7017 240.584 77.6572 242.84 77.6572C245.097 77.6572 246.917 77.7017 246.917 77.7552Z" fill="#263238"/>
<path d="M246.917 76.4951C244.2 76.6316 241.477 76.6316 238.759 76.4951C238.759 76.4417 240.584 76.3972 242.84 76.3972C245.097 76.3972 246.917 76.4417 246.917 76.4951Z" fill="#263238"/>
<path d="M246.917 75.2357C244.2 75.3722 241.477 75.3722 238.759 75.2357C238.759 75.1823 240.584 75.1378 242.84 75.1378C245.097 75.1378 246.917 75.1823 246.917 75.2357Z" fill="#263238"/>
<path d="M246.917 73.9763C244.2 74.1128 241.477 74.1128 238.759 73.9763C238.759 73.9229 240.584 73.8784 242.84 73.8784C245.097 73.8784 246.917 73.9229 246.917 73.9763Z" fill="#263238"/>
<path d="M246.917 72.7169C244.2 72.8534 241.477 72.8534 238.759 72.7169C238.759 72.6635 240.584 72.619 242.84 72.619C245.097 72.619 246.917 72.6635 246.917 72.7169Z" fill="#263238"/>
<path d="M246.917 71.4441C244.2 71.5806 241.477 71.5806 238.759 71.4441C238.759 71.3907 240.584 71.3462 242.84 71.3462C245.097 71.3462 246.917 71.4041 246.917 71.4441Z" fill="#263238"/>
<path d="M246.917 70.1975C244.2 70.334 241.477 70.334 238.759 70.1975C238.759 70.1441 240.584 70.0996 242.84 70.0996C245.097 70.0996 246.917 70.1441 246.917 70.1975Z" fill="#263238"/>
<path d="M246.917 68.9381C244.2 69.0746 241.477 69.0746 238.759 68.9381C238.759 68.8847 240.584 68.8402 242.84 68.8402C245.097 68.8402 246.917 68.8847 246.917 68.9381Z" fill="#263238"/>
<path d="M246.917 67.6787C244.2 67.8151 241.477 67.8151 238.759 67.6787C238.759 67.6253 240.584 67.5808 242.84 67.5808C245.097 67.5808 246.917 67.6253 246.917 67.6787Z" fill="#263238"/>
<path d="M246.917 66.4193C244.2 66.5558 241.477 66.5558 238.759 66.4193C238.759 66.3659 240.584 66.3214 242.84 66.3214C245.097 66.3214 246.917 66.3659 246.917 66.4193Z" fill="#263238"/>
<path d="M246.917 65.1599C244.2 65.2964 241.477 65.2964 238.759 65.1599C238.759 65.1065 240.584 65.062 242.84 65.062C245.097 65.062 246.917 65.1065 246.917 65.1599Z" fill="#263238"/>
<path d="M246.917 63.8999C244.2 64.0364 241.477 64.0364 238.759 63.8999C238.759 63.8465 240.584 63.802 242.84 63.802C245.097 63.802 246.917 63.8465 246.917 63.8999Z" fill="#263238"/>
<path d="M246.917 62.645C246.917 62.6984 245.092 62.7429 242.84 62.7429C240.588 62.7429 238.759 62.6984 238.759 62.645C241.477 62.5085 244.2 62.5085 246.917 62.645Z" fill="#263238"/>
<path d="M246.917 61.3855C246.917 61.4389 245.092 61.4835 242.84 61.4835C240.588 61.4835 238.759 61.4389 238.759 61.3855C241.477 61.2491 244.2 61.2491 246.917 61.3855Z" fill="#263238"/>
<path d="M246.917 60.1261C246.917 60.1795 245.092 60.224 242.84 60.224C240.588 60.224 238.759 60.1795 238.759 60.1261C241.477 59.9896 244.2 59.9896 246.917 60.1261Z" fill="#263238"/>
<path d="M246.917 79.1788C246.917 79.2322 245.092 79.2811 242.84 79.2811C240.588 79.2811 238.759 79.2322 238.759 79.1788C238.759 79.1254 240.584 79.0764 242.84 79.0764C245.097 79.0764 246.917 79.1254 246.917 79.1788Z" fill="#263238"/>
<path d="M246.917 80.6031C246.917 80.6565 245.092 80.701 242.84 80.701C240.588 80.701 238.759 80.6565 238.759 80.6031C241.477 80.4666 244.2 80.4666 246.917 80.6031Z" fill="#263238"/>
<path d="M251.844 55.8131V56.859C251.844 57.0921 251.908 57.3208 252.028 57.5207C252.148 57.7206 252.32 57.8842 252.525 57.9939L255.298 59.4581V82.7481H258.231C258.483 82.7487 258.732 82.6996 258.964 82.6037C259.197 82.5077 259.408 82.3667 259.586 82.1889C259.763 82.0111 259.904 81.7999 260 81.5674C260.096 81.335 260.145 81.0859 260.145 80.8344H271.476C271.913 80.835 272.346 80.7494 272.75 80.5826C273.154 80.4158 273.521 80.171 273.83 79.8622C274.139 79.5534 274.384 79.1867 274.552 78.7831C274.719 78.3794 274.805 77.9467 274.805 77.5098V57.2417C274.804 56.9375 274.683 56.6462 274.468 56.4311C274.252 56.216 273.961 56.0946 273.657 56.0935H272.193V54.8206L269.718 52.4796L259.339 52.8801L252.806 54.5714C252.531 54.6424 252.287 54.803 252.113 55.0278C251.939 55.2526 251.844 55.5288 251.844 55.8131Z" fill="#0A1128"/>
<path d="M274.805 57.5849C274.805 57.6383 269.655 57.2867 263.313 56.7971C256.971 56.3076 251.835 55.8714 251.84 55.8136C251.844 55.7557 256.989 56.1117 263.331 56.5969C269.673 57.082 274.809 57.527 274.805 57.5849Z" fill="#263238"/>
<path d="M260.114 61.688C260.171 61.688 260.216 65.9784 260.216 71.2702C260.216 76.5619 260.171 80.8568 260.114 80.8568C260.056 80.8568 260.016 76.5664 260.016 71.2702C260.016 65.974 260.065 61.688 260.114 61.688Z" fill="#263238"/>
<path d="M264.817 56.6857C264.109 57.5871 263.348 58.446 262.539 59.2582C261.777 60.1137 260.967 60.925 260.113 61.6882C260.821 60.7878 261.582 59.9303 262.392 59.1202C263.153 58.2626 263.963 57.4498 264.817 56.6857Z" fill="#263238"/>
<path d="M257.785 57.3312C257.572 57.3284 257.365 57.4024 257.201 57.5397C257.038 57.6769 256.929 57.8683 256.895 58.0789C256.868 58.2949 256.928 58.5128 257.061 58.6848C257.195 58.8567 257.391 58.9686 257.607 58.9957C257.823 59.0228 258.041 58.9631 258.213 58.8295C258.385 58.696 258.497 58.4996 258.524 58.2836C258.524 57.7317 258.293 57.3312 257.772 57.3312" fill="#263238"/>
<path d="M255.297 82.7481C255.24 82.7481 255.195 77.5409 255.195 71.1143C255.195 64.6876 255.24 59.4804 255.297 59.4804C255.355 59.4804 255.4 64.6876 255.4 71.1143C255.4 77.5409 255.351 82.7481 255.297 82.7481Z" fill="#263238"/>
<path d="M250.682 82.2189C250.629 82.2189 250.566 77.123 250.544 70.8387C250.522 64.5545 250.544 59.4586 250.606 59.4586C250.669 59.4586 250.722 64.5545 250.744 70.8387C250.767 77.123 250.74 82.2189 250.682 82.2189Z" fill="#263238"/>
<path d="M248.702 61.3543C248.843 61.3225 248.99 61.3451 249.115 61.4176C249.239 61.4901 249.332 61.607 249.373 61.7449C249.415 61.8828 249.403 62.0314 249.339 62.1607C249.276 62.2901 249.166 62.3906 249.031 62.442C248.897 62.4935 248.748 62.4921 248.614 62.438C248.481 62.384 248.373 62.2813 248.312 62.1508C248.251 62.0203 248.242 61.8715 248.286 61.7344C248.33 61.5974 248.425 61.4822 248.551 61.4122" fill="#263238"/>
<path d="M260.113 80.6789H272.205V82.3968C272.205 82.6329 272.112 82.8593 271.945 83.0263C271.778 83.1932 271.551 83.287 271.315 83.287H260.113V80.6656V80.6789Z" fill="#263238"/>
<path d="M265.156 83.3005H259.277C259.144 83.3005 259.037 83.4081 259.037 83.5408V84.1862C259.037 84.3189 259.144 84.4265 259.277 84.4265H265.156C265.289 84.4265 265.397 84.3189 265.397 84.1862V83.5408C265.397 83.4081 265.289 83.3005 265.156 83.3005Z" fill="#263238"/>
<path d="M271.07 87.003H254.856C254.603 87.003 254.398 87.2082 254.398 87.4614V88.6942C254.398 88.9474 254.603 89.1526 254.856 89.1526H271.07C271.323 89.1526 271.528 88.9474 271.528 88.6942V87.4614C271.528 87.2082 271.323 87.003 271.07 87.003Z" fill="#263238"/>
<path d="M275.962 86.0105H270.59C270.103 86.0105 269.708 86.405 269.708 86.8917V89.2639C269.708 89.7505 270.103 90.1451 270.59 90.1451H275.962C276.448 90.1451 276.843 89.7505 276.843 89.2639V86.8917C276.843 86.405 276.448 86.0105 275.962 86.0105Z" fill="#263238"/>
<path d="M265.036 89.1529H258.934V110.186H265.036V89.1529Z" fill="#263238"/>
<path d="M258.862 109.274H265.093V184.138C265.093 184.492 264.952 184.832 264.702 185.082C264.451 185.332 264.112 185.473 263.758 185.473H260.197C259.843 185.473 259.504 185.332 259.253 185.082C259.003 184.832 258.862 184.492 258.862 184.138V109.274Z" fill="#263238"/>
<path d="M265.881 166.518H257.843C257.256 166.518 256.779 166.994 256.779 167.581V172.553C256.779 173.14 257.256 173.616 257.843 173.616H265.881C266.468 173.616 266.944 173.14 266.944 172.553V167.581C266.944 166.994 266.468 166.518 265.881 166.518Z" fill="#455A64"/>
<path d="M266.945 167.613H270.581C270.858 167.613 271.124 167.723 271.32 167.919C271.516 168.115 271.627 168.381 271.627 168.659V171.476C271.627 171.613 271.6 171.749 271.547 171.876C271.494 172.003 271.417 172.118 271.32 172.215C271.223 172.312 271.108 172.39 270.981 172.442C270.854 172.495 270.718 172.522 270.581 172.522H266.945V167.626V167.613Z" fill="#455A64"/>
<path d="M256.779 172.526H253.143C252.866 172.526 252.6 172.416 252.404 172.219C252.207 172.023 252.097 171.757 252.097 171.48V168.663C252.097 168.525 252.124 168.389 252.177 168.262C252.229 168.136 252.306 168.02 252.404 167.923C252.501 167.826 252.616 167.749 252.743 167.696C252.87 167.644 253.006 167.617 253.143 167.617H256.779V172.512V172.526Z" fill="#455A64"/>
<path d="M269.9 108.059H254.069C253.484 108.059 253.01 108.533 253.01 109.118V111.971C253.01 112.556 253.484 113.031 254.069 113.031H269.9C270.485 113.031 270.959 112.556 270.959 111.971V109.118C270.959 108.533 270.485 108.059 269.9 108.059Z" fill="#263238"/>
<path d="M283.559 179.896H241.193C240.244 179.896 239.475 180.665 239.475 181.614V183.755C239.475 184.704 240.244 185.473 241.193 185.473H283.559C284.507 185.473 285.277 184.704 285.277 183.755V181.614C285.277 180.665 284.507 179.896 283.559 179.896Z" fill="#455A64"/>
<path d="M292.376 109.564H270.239V111.526H292.376V109.564Z" fill="#263238"/>
<path d="M298.651 107.374H291.646C290.901 107.374 290.298 107.978 290.298 108.723V112.341C290.298 113.086 290.901 113.689 291.646 113.689H298.651C299.396 113.689 300 113.086 300 112.341V108.723C300 107.978 299.396 107.374 298.651 107.374Z" fill="#263238"/>
<path d="M221.945 60.1348L222.217 81.4532L225.078 82.7484V58.9421C224.874 59.0088 221.945 60.1348 221.945 60.1348Z" fill="#0A1128"/>
<path d="M235.586 82.4993C235.528 82.4993 235.483 77.2742 235.483 70.8342C235.483 64.3942 235.528 59.1647 235.586 59.1647C235.643 59.1647 235.688 64.3853 235.688 70.8342C235.688 77.2831 235.652 82.4993 235.586 82.4993Z" fill="#263238"/>
<path d="M223.653 81.7648C223.6 81.7648 223.555 76.7668 223.555 70.6027C223.555 64.4386 223.6 59.4406 223.653 59.4406C223.707 59.4406 223.756 64.4342 223.756 70.6027C223.756 76.7712 223.711 81.7648 223.653 81.7648Z" fill="#263238"/>
<path d="M230.819 71.3818C228.954 71.5183 227.081 71.5183 225.216 71.3818C227.081 71.2513 228.954 71.2513 230.819 71.3818Z" fill="#263238"/>
<path d="M269.589 80.0826C269.531 80.0826 269.486 74.9866 269.486 68.7024C269.486 62.4181 269.531 57.3266 269.589 57.3266C269.647 57.3266 269.687 62.4181 269.687 68.7024C269.687 74.9866 269.642 80.0826 269.589 80.0826Z" fill="#263238"/>
<path d="M108.744 44.5626L103.782 35.8127C106.864 30.8293 107.971 24.8731 106.884 19.1152C105.797 13.3572 102.595 8.21421 97.9087 4.69726C93.2219 1.1803 87.389 -0.456133 81.5568 0.109707C75.7246 0.675547 70.315 3.40272 66.3917 7.75503C62.4685 12.1073 60.3153 17.7699 60.3555 23.6293C60.3958 29.4888 62.6266 35.1212 66.6093 39.4192C70.5921 43.7172 76.0386 46.3697 81.878 46.8554C87.7174 47.341 93.5273 45.6246 98.1653 42.0435L108.744 44.5626Z" fill="#FAFAFA"/>
<path d="M108.744 44.5621L98.1381 42.1365L98.0312 42.1143L98.098 42.0252L98.2004 42.1276C96.7158 43.2821 95.0992 44.2562 93.3848 45.0294C91.3336 45.9423 89.1617 46.5553 86.9359 46.8497C85.708 47.0207 84.4674 47.0832 83.2285 47.0366C82.5921 47.001 81.9423 46.9877 81.2881 46.9343L79.3076 46.6316C74.7341 45.7381 70.5277 43.51 67.2191 40.2284C63.9106 36.9469 61.6482 32.7588 60.7174 28.1928C60.0426 24.7432 60.1368 21.1873 60.9933 17.7783C61.8781 14.2139 63.6007 10.9121 66.0181 8.14724L66.9749 7.09245C67.2909 6.74085 67.6648 6.44711 68.003 6.12222C68.3413 5.79733 68.684 5.46798 69.0667 5.19649L70.1883 4.35978C70.5592 4.07496 70.9504 3.81762 71.3588 3.58982L72.5471 2.86883L73.7888 2.26354C74.1954 2.05266 74.6146 1.86687 75.0439 1.70722C78.3781 0.388081 81.9663 -0.164074 85.5429 0.0916496C88.9234 0.322647 92.2116 1.29513 95.174 2.94004C100.5 5.90302 104.483 10.7994 106.3 16.6167C107.023 19.0888 107.365 21.6566 107.315 24.2317C107.252 26.4679 106.866 28.6833 106.171 30.8097C105.587 32.5721 104.798 34.26 103.821 35.8389V35.7677L108.717 44.5532L103.701 35.8389V35.8033V35.7677C104.662 34.1909 105.436 32.5076 106.007 30.7519C106.687 28.6398 107.06 26.441 107.115 24.2228C107.151 21.6773 106.8 19.1411 106.073 16.7013C104.27 10.9473 100.327 6.10469 95.0582 3.17147C92.1259 1.55045 88.8727 0.594695 85.5295 0.372038C81.9968 0.121032 78.4529 0.667072 75.1596 1.96981C74.7366 2.12905 74.3234 2.31333 73.9223 2.52168L72.694 3.11806L71.519 3.83461C71.1187 4.0607 70.7349 4.31503 70.3707 4.59566L69.2625 5.42347C68.896 5.70977 68.5454 6.01584 68.2122 6.3403C67.874 6.66074 67.5046 6.94558 67.193 7.29718L66.2495 8.33417C63.8656 11.0662 62.1661 14.3263 61.2915 17.8451C60.441 21.214 60.3453 24.7292 61.0111 28.1394C61.6574 31.3653 62.9867 34.4156 64.9098 37.0851C68.3706 41.9169 73.5406 45.2505 79.3699 46.4091L81.3281 46.7117C81.9779 46.7696 82.6188 46.7829 83.2508 46.823C84.4789 46.8738 85.7091 46.8158 86.927 46.6494C89.1267 46.3623 91.2743 45.7628 93.3047 44.8692C95.0096 44.1083 96.6197 43.1508 98.1025 42.0163L98.5475 41.6825L98.2137 42.1276L98.1737 42.0163L108.744 44.5621Z" fill="#263238"/>
<path d="M77.2245 23.5463C77.2219 24.0168 77.0799 24.476 76.8164 24.8659C76.553 25.2558 76.18 25.5589 75.7444 25.737C75.3088 25.915 74.8303 25.96 74.3691 25.8663C73.908 25.7725 73.485 25.5443 73.1535 25.2103C72.822 24.8763 72.5969 24.4516 72.5067 23.9898C72.4164 23.528 72.4649 23.0498 72.6462 22.6156C72.8275 22.1813 73.1334 21.8106 73.5252 21.55C73.9171 21.2895 74.3773 21.151 74.8479 21.1518C75.1615 21.1518 75.472 21.2139 75.7615 21.3344C76.051 21.455 76.3138 21.6316 76.5347 21.8542C76.7557 22.0768 76.9303 22.3409 77.0487 22.6313C77.1671 22.9217 77.2269 23.2327 77.2245 23.5463Z" fill="#263238"/>
<path d="M86.7401 23.5463C86.7375 24.0168 86.5955 24.476 86.3321 24.8659C86.0686 25.2558 85.6956 25.5589 85.26 25.737C84.8244 25.915 84.3459 25.96 83.8848 25.8663C83.4237 25.7725 83.0006 25.5443 82.6692 25.2103C82.3377 24.8763 82.1126 24.4516 82.0223 23.9898C81.932 23.528 81.9805 23.0498 82.1618 22.6156C82.3431 22.1813 82.649 21.8106 83.0409 21.55C83.4327 21.2895 83.893 21.151 84.3635 21.1518C84.6771 21.1518 84.9876 21.2139 85.2771 21.3344C85.5667 21.455 85.8294 21.6316 86.0504 21.8542C86.2713 22.0768 86.446 22.3409 86.5644 22.6313C86.6827 22.9217 86.7425 23.2327 86.7401 23.5463Z" fill="#263238"/>
<path d="M96.233 22.3538C96.466 22.763 96.5724 23.2321 96.5388 23.7017C96.5052 24.1714 96.3332 24.6205 96.0444 24.9924C95.7556 25.3643 95.363 25.6422 94.9163 25.791C94.4695 25.9398 93.9887 25.9528 93.5346 25.8284C93.0805 25.704 92.6735 25.4477 92.365 25.092C92.0565 24.7363 91.8604 24.2971 91.8014 23.83C91.7425 23.3628 91.8234 22.8887 92.0339 22.4675C92.2444 22.0463 92.575 21.697 92.984 21.4637C93.2556 21.3081 93.5553 21.2077 93.8658 21.1682C94.1763 21.1287 94.4916 21.151 94.7934 21.2337C95.0953 21.3164 95.3779 21.458 95.6249 21.6502C95.872 21.8424 96.0786 22.0815 96.233 22.3538Z" fill="#263238"/>
</svg>
