<svg width="300" height="173" viewBox="0 0 300 173" fill="none" xmlns="http://www.w3.org/2000/svg">
<path d="M300 171.899C300 171.966 232.835 172.024 150.005 172.024C67.1742 172.024 0 171.957 0 171.899C0 171.841 67.1501 171.774 150.005 171.774C232.86 171.774 300 171.827 300 171.899Z" fill="#263238"/>
<path d="M247.37 0H52.6293C51.0171 0 49.4709 0.640437 48.331 1.78042C47.191 2.92041 46.5505 4.46656 46.5505 6.07874V143.623C46.5505 145.235 47.191 146.781 48.331 147.921C49.4709 149.061 51.0171 149.702 52.6293 149.702H127.379C127.379 149.702 132.134 164.405 117.397 172.01H187.281C187.281 172.01 170.643 166.306 174.921 149.702H247.37C248.983 149.702 250.529 149.061 251.669 147.921C252.809 146.781 253.449 145.235 253.449 143.623V6.07874C253.449 4.46656 252.809 2.92041 251.669 1.78042C250.529 0.640437 248.983 0 247.37 0Z" fill="#455A64"/>
<path d="M152.599 135.239C155.251 139.022 151.102 143.17 147.305 140.533C147.179 140.446 147.07 140.336 146.982 140.211C144.34 136.423 148.479 132.284 152.277 134.916C152.401 135.005 152.51 135.114 152.599 135.239Z" fill="#263238"/>
<path d="M247.072 8.24459H52.5187C51.6495 8.24459 50.9448 8.94922 50.9448 9.81842V123.938C50.9448 124.807 51.6495 125.512 52.5187 125.512H247.072C247.941 125.512 248.646 124.807 248.646 123.938V9.81842C248.646 8.94922 247.941 8.24459 247.072 8.24459Z" fill="#FAFAFA"/>
<path d="M247.072 125.752H52.5234C52.0417 125.752 51.5797 125.561 51.2387 125.221C50.8976 124.881 50.7054 124.42 50.7041 123.938V9.81841C50.7054 9.33674 50.8976 8.87523 51.2387 8.53508C51.5797 8.19494 52.0417 8.00393 52.5234 8.00393H247.072C247.553 8.00393 248.015 8.1951 248.355 8.53538C248.695 8.87566 248.886 9.33718 248.886 9.81841V123.938C248.886 124.419 248.695 124.881 248.355 125.221C248.015 125.561 247.553 125.752 247.072 125.752ZM52.5234 8.48522C52.1694 8.48522 51.8298 8.62553 51.579 8.87541C51.3282 9.12529 51.1867 9.46438 51.1854 9.81841V123.938C51.1867 124.292 51.3282 124.631 51.579 124.881C51.8298 125.131 52.1694 125.271 52.5234 125.271H247.072C247.426 125.271 247.765 125.131 248.015 124.881C248.265 124.631 248.405 124.292 248.405 123.938V9.81841C248.405 9.46483 248.265 9.12573 248.015 8.8757C247.765 8.62568 247.426 8.48522 247.072 8.48522H52.5234Z" fill="white"/>
<path d="M67.1597 12.7736C67.1616 13.0862 67.0706 13.3924 66.8983 13.6532C66.726 13.9141 66.4802 14.1179 66.1919 14.2389C65.9036 14.3599 65.5859 14.3925 65.279 14.3327C64.9722 14.2729 64.69 14.1233 64.4682 13.9029C64.2465 13.6825 64.0952 13.4012 64.0335 13.0947C63.9718 12.7882 64.0025 12.4703 64.1217 12.1813C64.2409 11.8923 64.4432 11.6452 64.703 11.4713C64.9628 11.2974 65.2684 11.2046 65.5811 11.2046C65.9981 11.2045 66.3982 11.3695 66.6939 11.6635C66.9897 11.9575 67.1572 12.3566 67.1597 12.7736Z" fill="#455A64"/>
<path d="M57.5914 12.7736C57.5914 13.0858 57.4988 13.391 57.3253 13.6506C57.1519 13.9102 56.9053 14.1126 56.6168 14.2321C56.3284 14.3515 56.011 14.3828 55.7048 14.3219C55.3985 14.261 55.1172 14.1106 54.8965 13.8898C54.6757 13.6691 54.5253 13.3878 54.4644 13.0816C54.4035 12.7753 54.4348 12.4579 54.5543 12.1695C54.6737 11.881 54.8761 11.6344 55.1357 11.461C55.3953 11.2875 55.7005 11.1949 56.0127 11.1949C56.4314 11.1949 56.8329 11.3613 57.129 11.6573C57.425 11.9534 57.5914 12.3549 57.5914 12.7736Z" fill="#455A64"/>
<path d="M62.1829 12.7736C62.1829 13.0858 62.0903 13.391 61.9169 13.6506C61.7434 13.9102 61.4969 14.1126 61.2084 14.2321C60.9199 14.3515 60.6025 14.3828 60.2963 14.3219C59.9901 14.261 59.7088 14.1106 59.488 13.8898C59.2672 13.6691 59.1169 13.3878 59.056 13.0816C58.9951 12.7753 59.0263 12.4579 59.1458 12.1695C59.2653 11.881 59.4676 11.6344 59.7272 11.461C59.9868 11.2875 60.292 11.1949 60.6043 11.1949C61.023 11.1949 61.4245 11.3613 61.7205 11.6573C62.0166 11.9534 62.1829 12.3549 62.1829 12.7736Z" fill="#455A64"/>
<path d="M248.79 17.5143C248.79 17.5817 204.463 17.6395 149.802 17.6395C95.142 17.6395 50.8052 17.5817 50.8052 17.5143C50.8052 17.4469 95.1179 17.3892 149.802 17.3892C204.487 17.3892 248.79 17.4614 248.79 17.5143Z" fill="#263238"/>
<path d="M237.944 28.0252L202.227 28.0938L202.282 56.6489L237.999 56.5803L237.944 28.0252Z" fill="#F5F5F5"/>
<path d="M236.672 29.8277L203.462 29.8915L203.51 54.8513L236.72 54.7876L236.672 29.8277Z" fill="#EBEBEB"/>
<path d="M203.506 54.8675L215.076 39.3314L222.281 49.0294L227.142 43.8266L236.715 54.8098L203.506 54.8675Z" fill="#E0E0E0"/>
<path d="M225.308 37.4158C225.306 37.9326 225.152 38.4373 224.863 38.8663C224.575 39.2953 224.166 39.6294 223.689 39.8265C223.211 40.0236 222.685 40.0749 222.179 39.974C221.672 39.873 221.206 39.6243 220.84 39.2592C220.475 38.8941 220.225 38.4289 220.123 37.9223C220.021 37.4156 220.072 36.8901 220.268 36.412C220.464 35.9339 220.797 35.5246 221.226 35.2356C221.654 34.9466 222.159 34.7908 222.676 34.788C223.021 34.7861 223.364 34.8527 223.684 34.984C224.004 35.1153 224.295 35.3088 224.54 35.5531C224.784 35.7974 224.978 36.0878 225.11 36.4076C225.242 36.7273 225.309 37.07 225.308 37.4158Z" fill="#E0E0E0"/>
<path d="M237.95 89.1639L202.234 89.2324L202.288 117.788L238.005 117.719L237.95 89.1639Z" fill="#F5F5F5"/>
<path d="M236.678 90.9663L203.469 91.0301L203.517 115.99L236.726 115.926L236.678 90.9663Z" fill="#EBEBEB"/>
<path d="M203.506 116.006L215.076 100.47L222.281 110.163L227.142 104.965L236.715 115.944L203.506 116.006Z" fill="#E0E0E0"/>
<path d="M225.308 98.5497C225.31 99.068 225.158 99.5751 224.872 100.007C224.585 100.439 224.177 100.776 223.699 100.976C223.22 101.175 222.694 101.228 222.185 101.128C221.677 101.029 221.209 100.78 220.842 100.414C220.475 100.048 220.225 99.5819 220.123 99.0737C220.021 98.5656 220.072 98.0386 220.27 97.5596C220.468 97.0807 220.804 96.6712 221.234 96.3831C221.665 96.0949 222.172 95.9411 222.69 95.9411C223.033 95.9405 223.373 96.0075 223.69 96.1382C224.008 96.269 224.296 96.4609 224.539 96.7032C224.782 96.9454 224.976 97.2332 225.107 97.55C225.239 97.8668 225.308 98.2065 225.308 98.5497Z" fill="#E0E0E0"/>
<path d="M94.7495 28.0354L59.0327 28.104L59.0875 56.6591L94.8043 56.5906L94.7495 28.0354Z" fill="#F5F5F5"/>
<path d="M93.4775 29.8379L60.2683 29.9017L60.3162 54.8615L93.5254 54.7978L93.4775 29.8379Z" fill="#EBEBEB"/>
<path d="M60.3059 54.8675L71.8762 39.3314L79.0812 49.0294L83.9422 43.8266L93.5152 54.8098L60.3059 54.8675Z" fill="#E0E0E0"/>
<path d="M82.1086 37.4158C82.1058 37.9319 81.9502 38.4355 81.6615 38.8633C81.3729 39.291 80.964 39.6238 80.4865 39.8195C80.009 40.0152 79.4842 40.0652 78.9783 39.9631C78.4725 39.8611 78.0081 39.6115 77.6439 39.2459C77.2797 38.8803 77.0318 38.4151 76.9316 37.9089C76.8314 37.4026 76.8833 36.878 77.0808 36.4013C77.2782 35.9245 77.6125 35.5168 78.0413 35.2297C78.4701 34.9426 78.9743 34.7889 79.4904 34.7879C79.8352 34.7873 80.1768 34.8549 80.4953 34.9868C80.8139 35.1188 81.1032 35.3125 81.3466 35.5568C81.59 35.801 81.7826 36.0911 81.9134 36.4101C82.0442 36.7292 82.1106 37.071 82.1086 37.4158Z" fill="#E0E0E0"/>
<path d="M94.7558 58.8141L59.0391 58.8827L59.0939 87.4378L94.8106 87.3692L94.7558 58.8141Z" fill="#F5F5F5"/>
<path d="M93.4834 60.6118L60.2742 60.6756L60.3221 85.6354L93.5313 85.5716L93.4834 60.6118Z" fill="#EBEBEB"/>
<path d="M60.3059 85.6463L71.8762 70.1053L79.0812 79.8034L83.9422 74.6054L93.5152 85.5837L60.3059 85.6463Z" fill="#E0E0E0"/>
<path d="M82.1087 68.1897C82.1115 68.707 81.9608 69.2135 81.6756 69.6451C81.3904 70.0767 80.9835 70.4139 80.5065 70.614C80.0295 70.8142 79.5038 70.8683 78.996 70.7695C78.4883 70.6707 78.0213 70.4234 77.6541 70.059C77.287 69.6945 77.0363 69.2293 76.9337 68.7223C76.8312 68.2153 76.8814 67.6892 77.078 67.2108C77.2746 66.7323 77.6088 66.3229 78.0383 66.0346C78.4677 65.7462 78.9731 65.5917 79.4904 65.5908C80.1819 65.5895 80.8457 65.8623 81.3364 66.3494C81.8271 66.8365 82.1048 67.4983 82.1087 68.1897Z" fill="#E0E0E0"/>
<path d="M94.7573 89.8623L59.0405 89.9309L59.0953 118.486L94.8121 118.417L94.7573 89.8623Z" fill="#F5F5F5"/>
<path d="M93.4853 91.6648L60.2761 91.7285L60.324 116.688L93.5333 116.625L93.4853 91.6648Z" fill="#EBEBEB"/>
<path d="M60.3059 116.695L71.8762 101.158L79.0812 110.852L83.9422 105.654L93.5152 116.637L60.3059 116.695Z" fill="#E0E0E0"/>
<path d="M82.1087 99.238C82.1096 99.7549 81.9573 100.26 81.6709 100.691C81.3845 101.121 80.977 101.457 80.4998 101.655C80.0226 101.854 79.4973 101.907 78.9901 101.807C78.483 101.707 78.0169 101.459 77.6507 101.094C77.2845 100.729 77.0348 100.264 76.933 99.7574C76.8312 99.2506 76.882 98.725 77.0789 98.2471C77.2759 97.7692 77.6101 97.3605 78.0393 97.0725C78.4686 96.7845 78.9736 96.6303 79.4904 96.6294C80.1832 96.6294 80.8477 96.9039 81.3384 97.3928C81.8292 97.8818 82.1061 98.5453 82.1087 99.238Z" fill="#E0E0E0"/>
<path d="M243.298 56.1237C242.171 55.9546 241.02 56.0611 239.943 56.4341C238.866 56.8071 237.895 57.4355 237.114 58.2655C234.597 60.7922 224.119 70.0186 224.119 70.0186L208.92 66.9769L206.792 73.7727C206.792 73.7727 224.744 79.3557 226.044 78.8745C227.343 78.3932 237.114 71.8042 237.114 71.8042L243.298 56.1237Z" fill="#0A1128"/>
<path d="M228.011 32.7226L154.837 42.6551L162.777 101.154L235.951 91.2216L228.011 32.7226Z" fill="#EBEBEB"/>
<path d="M228.013 32.6991L227.662 32.752L226.641 32.9012L222.675 33.4547L207.707 35.5195L154.861 42.7389L154.972 42.5945C157.34 60.0077 160.059 79.967 162.932 101.086L162.773 100.966L235.93 91.0512L235.829 91.1859L230.135 48.7454C229.457 43.6341 228.922 39.6249 228.557 36.8912C228.379 35.5243 228.239 34.4847 228.148 33.7628C228.056 33.0408 228.013 32.6847 228.013 32.6847C228.013 32.6847 228.071 33.036 228.167 33.7339C228.263 34.4318 228.412 35.481 228.605 36.8334C228.98 39.5623 229.534 43.5715 230.241 48.654C231.642 58.8815 233.654 73.5128 236.075 91.1667V91.287H235.954L162.798 101.25H162.653V101.105C159.789 79.9814 157.085 60.0221 154.721 42.6089V42.4838H154.847L207.789 35.3607L222.738 33.3633L226.684 32.8435L227.695 32.7135L228.013 32.6991Z" fill="#263238"/>
<path d="M225.282 37.8571L157.312 46.7824L164.02 97.8707L231.99 88.9453L225.282 37.8571Z" fill="#0A1128"/>
<path d="M164.809 97.1106L184.254 62.1013L201.672 79.9862L210.21 67.9972L232.84 87.8698L164.809 97.1106Z" fill="#0A1128"/>
<path d="M204.689 55.3584C204.833 56.4179 204.659 57.4961 204.19 58.4568C203.721 59.4175 202.977 60.2174 202.053 60.7554C201.129 61.2935 200.067 61.5454 199 61.4794C197.932 61.4133 196.909 61.0323 196.058 60.3845C195.208 59.7366 194.569 58.8511 194.221 57.8399C193.874 56.8287 193.835 55.7373 194.108 54.7036C194.381 53.67 194.955 52.7406 195.756 52.033C196.558 51.3254 197.551 50.8714 198.611 50.7284C200.031 50.5367 201.469 50.9168 202.608 51.785C203.748 52.6532 204.497 53.9386 204.689 55.3584Z" fill="#0A1128"/>
<g opacity="0.2">
<path opacity="0.2" d="M164.809 97.1106L184.253 62.1013L201.671 79.9862L210.21 67.9972L232.84 87.8698L164.809 97.1106Z" fill="black"/>
</g>
<g opacity="0.2">
<path opacity="0.2" d="M204.689 55.3585C204.833 56.4179 204.659 57.4962 204.19 58.4568C203.721 59.4175 202.977 60.2175 202.053 60.7555C201.129 61.2935 200.066 61.5454 198.999 61.4794C197.932 61.4134 196.909 61.0323 196.058 60.3845C195.208 59.7367 194.568 58.8512 194.221 57.84C193.874 56.8288 193.834 55.7373 194.108 54.7036C194.381 53.67 194.954 52.7406 195.756 52.033C196.557 51.3254 197.551 50.8714 198.61 50.7284C200.03 50.5368 201.468 50.9168 202.608 51.7851C203.748 52.6533 204.497 53.9386 204.689 55.3585Z" fill="black"/>
</g>
<path d="M260.572 63.7089C261.265 58.9489 259.056 57.452 255.586 56.0082C251.254 54.2129 242.995 55.1081 240.185 57.6205L237.008 67.0346C235.675 68.5892 235.887 70.962 236.657 72.8631C237.427 74.7642 238.668 76.468 239.241 78.4316C240.353 82.2387 239.573 85.6029 239.309 89.5543C239.251 90.4688 238.548 92.1533 239.222 92.7694C239.896 93.3854 240.777 93.3566 241.628 93.3229C248.268 93.0514 254.78 91.4043 260.75 88.4859C258.483 83.9136 255.985 78.6193 257.444 75.1155C258.949 71.4557 260 67.6248 260.572 63.7089Z" fill="#0A1128"/>
<path d="M230.597 73.4454L228.451 80.7515C228.451 80.7515 239.66 84.828 245.729 84.7558C251.418 84.6836 253.045 84.0387 255.047 79.4616C257.049 74.8845 259.321 69.5903 259.797 66.5533C260.138 65.5459 260.379 64.5078 260.519 63.4538C261.352 57.221 253.781 55.5798 252.66 61.7692L251.755 65.0853C251.755 65.0853 249.69 69.7539 249.594 70.0138C248.679 72.4203 247.096 76.3139 245.951 76.7519C244.805 77.1899 230.597 73.4454 230.597 73.4454Z" fill="#0A1128"/>
<path d="M257.968 73.7727C257.955 73.8323 257.936 73.8903 257.911 73.946L257.713 74.4273C257.54 74.8653 257.27 75.5054 256.881 76.314C256.418 77.3093 255.893 78.2739 255.307 79.2017C254.539 80.4351 253.619 81.567 252.568 82.5708C252.262 82.8533 251.941 83.1185 251.606 83.3649C251.25 83.6148 250.883 83.8461 250.503 84.058L249.892 84.3371L249.579 84.4719L249.247 84.5633L248.573 84.751L247.866 84.8377C245.846 84.9498 243.819 84.8059 241.835 84.4093C237.282 83.5493 232.794 82.3753 228.402 80.8959L228.292 80.8574L228.325 80.7419L228.595 79.8178L230.467 73.4358L230.501 73.3203L230.616 73.3492C234.717 74.4465 238.596 75.4043 242.124 76.0492C243.01 76.2033 243.871 76.338 244.709 76.4054C245.117 76.4463 245.528 76.4463 245.936 76.4054C246.03 76.3938 246.122 76.3712 246.21 76.338C246.291 76.3092 246.36 76.2552 246.408 76.184C246.526 76.0322 246.632 75.8712 246.725 75.7027C247.515 74.3407 248.121 72.9978 248.694 71.7946C249.82 69.3881 250.682 67.4196 251.283 66.0768C251.577 65.4175 251.808 64.8977 251.971 64.5367C252.044 64.3682 252.106 64.2383 252.149 64.1372C252.193 64.0362 252.217 64.0025 252.222 64.0073C252.227 64.0121 252.222 64.0554 252.174 64.1469C252.125 64.2383 252.077 64.3827 252.01 64.5511L251.37 66.072C250.797 67.4293 249.955 69.393 248.848 71.8235C248.285 73.0363 247.693 74.3743 246.923 75.7605C246.823 75.94 246.71 76.1121 246.586 76.2755C246.515 76.3696 246.42 76.4428 246.311 76.4872C246.209 76.5264 246.102 76.5523 245.994 76.5642C245.571 76.61 245.145 76.61 244.723 76.5642C243.871 76.5017 243.005 76.3669 242.119 76.2177C238.572 75.5872 234.693 74.6391 230.568 73.5465L230.717 73.4599L228.85 79.8467L228.581 80.7707L228.499 80.6167C232.877 82.0937 237.35 83.2708 241.888 84.1398C243.853 84.5391 245.859 84.6894 247.861 84.5874L248.549 84.5104L249.204 84.3323L249.526 84.2457L249.834 84.1109L250.431 83.8462C250.803 83.6419 251.163 83.4169 251.509 83.1724C251.845 82.9342 252.166 82.6771 252.472 82.4023C253.518 81.4175 254.437 80.305 255.206 79.091C255.797 78.1806 256.334 77.2355 256.813 76.261C257.218 75.4621 257.497 74.8171 257.689 74.3936L257.906 73.9123C257.921 73.8635 257.942 73.8166 257.968 73.7727Z" fill="#263238"/>
<path d="M238.693 65.2586C238.462 65.7179 238.201 66.1617 237.913 66.587C237.244 67.6123 236.777 68.7557 236.536 69.9561C236.386 71.1708 236.591 72.4032 237.128 73.5032C237.358 73.9628 237.56 74.4353 237.735 74.9182C237.642 74.8143 237.564 74.6976 237.504 74.5717C237.309 74.2491 237.13 73.9165 236.97 73.5754C236.719 73.0711 236.523 72.542 236.382 71.9967C236.208 71.3176 236.176 70.6099 236.286 69.9176C236.532 68.6839 237.035 67.5161 237.764 66.4907C238.034 66.0517 238.345 65.6392 238.693 65.2586Z" fill="#263238"/>
<g opacity="0.2">
<path opacity="0.2" d="M239.684 83.8799C239.675 84.2974 239.756 84.7119 239.922 85.0949C240.088 85.478 240.335 85.8204 240.647 86.0987C241.273 86.6525 242.022 87.0499 242.832 87.2586C244.094 87.6157 245.417 87.709 246.717 87.5326C248.017 87.3562 249.266 86.914 250.388 86.2335C252.621 84.8714 254.142 82.3831 254.758 79.8563C254.758 79.8563 253.348 81.6323 252.419 82.5564C251.259 83.7269 249.727 84.4569 248.087 84.6211C245.262 85.0206 242.403 84.4478 239.612 83.8751" fill="black"/>
</g>
<path d="M213.381 166.066L215.494 161.979L223.195 165.888L220.167 171.899L219.686 171.687C217.506 170.725 208.674 166.648 207.476 165.498C206.109 164.213 213.381 166.066 213.381 166.066Z" fill="#0A1128"/>
<g opacity="0.5">
<path opacity="0.5" d="M217.381 170.421C217.822 169.83 218.467 169.424 219.191 169.281C219.904 169.137 220.645 169.264 221.27 169.637L220.182 171.783L217.381 170.421Z" fill="white"/>
</g>
<g opacity="0.4">
<path opacity="0.4" d="M209.772 165.276C209.772 165.276 207.149 164.771 207.245 165.276C207.341 165.782 216.105 170.258 220.148 171.884L220.22 171.706L209.95 166.595C209.95 166.595 210.21 165.522 209.772 165.276Z" fill="white"/>
</g>
<path d="M220.346 171.779L220.206 171.726L219.816 171.552L218.372 170.903C217.174 170.349 215.523 169.555 213.723 168.645C211.923 167.736 210.311 166.865 209.151 166.239L207.784 165.474L207.418 165.257C207.332 165.209 207.288 165.18 207.293 165.175L207.428 165.238L207.803 165.44L209.199 166.181C210.369 166.802 211.986 167.654 213.786 168.588C215.586 169.521 217.227 170.301 218.421 170.879L219.831 171.557L220.216 171.745C220.26 171.752 220.304 171.763 220.346 171.779Z" fill="#263238"/>
<path d="M209.892 166.73C209.945 166.467 209.971 166.199 209.969 165.931C209.929 165.666 209.86 165.406 209.762 165.156C209.959 165.362 210.069 165.636 210.07 165.921C210.111 166.203 210.048 166.491 209.892 166.73Z" fill="#263238"/>
<path d="M212.741 166.73C212.712 166.73 212.669 166.547 212.65 166.311C212.615 166.172 212.615 166.027 212.65 165.888C212.679 165.888 212.722 166.07 212.741 166.301C212.776 166.442 212.776 166.589 212.741 166.73Z" fill="#263238"/>
<path d="M213.531 166.72C213.502 166.72 213.425 166.585 213.352 166.398C213.28 166.21 213.242 166.056 213.271 166.046C213.3 166.037 213.377 166.176 213.449 166.364C213.507 166.473 213.536 166.596 213.531 166.72Z" fill="#263238"/>
<path d="M214.291 166.181C214.291 166.21 214.089 166.143 213.863 166.032C213.721 165.977 213.591 165.894 213.483 165.786C213.483 165.758 213.69 165.825 213.911 165.936C214.132 166.046 214.306 166.181 214.291 166.181Z" fill="#263238"/>
<path d="M214.686 165.748C214.508 165.771 214.328 165.738 214.171 165.652C214.001 165.6 213.852 165.497 213.742 165.358C213.909 165.408 214.07 165.474 214.224 165.555C214.382 165.608 214.537 165.672 214.686 165.748Z" fill="#263238"/>
<path d="M212.823 165.931C212.649 165.873 212.487 165.787 212.342 165.676C212.171 165.561 212.01 165.432 211.86 165.291C211.772 165.208 211.693 165.116 211.624 165.016C211.582 164.953 211.567 164.875 211.581 164.8C211.59 164.759 211.611 164.721 211.642 164.693C211.673 164.664 211.713 164.646 211.754 164.641C211.99 164.645 212.216 164.73 212.396 164.881C212.576 165.033 212.698 165.242 212.741 165.474C212.771 165.608 212.771 165.748 212.741 165.883C212.735 165.934 212.717 165.984 212.688 166.027C212.721 165.849 212.721 165.666 212.688 165.488C212.642 165.304 212.543 165.136 212.404 165.007C212.244 164.844 212.026 164.751 211.798 164.747C211.687 164.747 211.673 164.872 211.73 164.968C211.795 165.062 211.869 165.15 211.952 165.228C212.087 165.369 212.234 165.5 212.39 165.618C212.64 165.815 212.828 165.912 212.823 165.931Z" fill="#263238"/>
<path d="M212.679 165.888C212.671 165.753 212.714 165.621 212.799 165.517C212.881 165.396 212.99 165.296 213.117 165.223C213.196 165.171 213.286 165.14 213.381 165.133C213.475 165.125 213.569 165.141 213.656 165.18C213.7 165.217 213.729 165.27 213.735 165.327C213.742 165.385 213.725 165.442 213.689 165.488C213.638 165.56 213.572 165.62 213.497 165.666C213.377 165.743 213.248 165.802 213.112 165.844C212.99 165.892 212.858 165.912 212.727 165.902C212.727 165.902 212.871 165.863 213.083 165.777C213.21 165.726 213.331 165.661 213.444 165.584C213.564 165.512 213.704 165.348 213.593 165.267C213.523 165.239 213.447 165.229 213.371 165.237C213.296 165.244 213.224 165.269 213.16 165.31C213.043 165.372 212.94 165.457 212.857 165.56C212.789 165.664 212.729 165.774 212.679 165.888Z" fill="#263238"/>
<path d="M221.255 169.593C221.255 169.593 221.049 169.464 220.678 169.329C220.2 169.15 219.682 169.108 219.181 169.208C218.683 169.317 218.224 169.558 217.853 169.906C217.569 170.176 217.444 170.388 217.429 170.388C217.445 170.332 217.472 170.28 217.506 170.234C217.591 170.099 217.689 169.973 217.8 169.858C218.167 169.482 218.638 169.225 219.153 169.119C219.667 169.012 220.202 169.062 220.688 169.261C220.833 169.325 220.973 169.4 221.106 169.488C221.231 169.55 221.26 169.589 221.255 169.593Z" fill="#263238"/>
<path d="M222.083 165.993C221.873 166.545 221.628 167.084 221.352 167.606C221.107 168.144 220.829 168.666 220.519 169.17C220.735 168.619 220.98 168.081 221.255 167.558C221.502 167.021 221.778 166.499 222.083 165.993Z" fill="#263238"/>
<path d="M216.809 169.18C216.395 169.074 215.998 168.912 215.629 168.698C215.245 168.522 214.883 168.301 214.551 168.039C214.551 168.01 215.057 168.299 215.677 168.602C216.298 168.905 216.818 169.151 216.809 169.18Z" fill="#263238"/>
<path d="M218.315 169.945C218.315 169.974 218.218 170.027 218.108 170.118C217.997 170.21 217.92 170.296 217.896 170.282C217.872 170.267 217.896 170.137 218.045 170.036C218.194 169.935 218.31 169.916 218.315 169.945Z" fill="#263238"/>
<path d="M219.239 169.55C219.239 169.579 219.162 169.632 219.041 169.67C218.921 169.709 218.815 169.723 218.806 169.695C218.796 169.666 218.887 169.613 219.008 169.574C219.128 169.536 219.234 169.497 219.239 169.55Z" fill="#263238"/>
<path d="M220.216 169.618C220.216 169.618 220.096 169.584 219.966 169.569C219.836 169.555 219.72 169.569 219.706 169.541C219.691 169.512 219.816 169.439 219.98 169.464C220.144 169.488 220.235 169.594 220.216 169.618Z" fill="#263238"/>
<path d="M220.871 169.757C220.871 169.786 220.803 169.8 220.731 169.796C220.659 169.791 220.591 169.757 220.596 169.728C220.601 169.699 220.664 169.685 220.741 169.69C220.818 169.695 220.875 169.728 220.871 169.757Z" fill="#263238"/>
<path d="M263.792 167.702L261.963 163.481L269.842 160.006L272.585 166.147L272.104 166.398C269.982 167.476 261.241 171.74 259.59 171.942C257.762 172.168 263.792 167.702 263.792 167.702Z" fill="#0A1128"/>
<g opacity="0.5">
<path opacity="0.5" d="M269.702 167.351C269.525 166.633 269.619 165.875 269.967 165.223C270.305 164.579 270.872 164.085 271.555 163.837L272.518 166.042L269.702 167.351Z" fill="white"/>
</g>
<g opacity="0.4">
<path opacity="0.4" d="M260.9 170.003C260.9 170.003 258.849 171.716 259.311 171.971C259.774 172.226 268.774 168.251 272.59 166.147L272.499 165.979L262.045 170.71C262.045 170.71 261.367 169.82 260.9 170.003Z" fill="white"/>
</g>
<path d="M272.619 165.921L272.489 165.993L272.114 166.191L270.708 166.884C269.515 167.461 267.859 168.241 266.016 169.059C264.172 169.877 262.478 170.58 261.251 171.071L259.807 171.649L259.407 171.798L259.268 171.841C259.309 171.814 259.352 171.791 259.398 171.774L259.792 171.61L261.236 171.004C262.459 170.494 264.124 169.781 265.987 168.963C267.849 168.145 269.49 167.38 270.689 166.816L272.109 166.152L272.494 165.974L272.619 165.921Z" fill="#263238"/>
<path d="M262.098 170.83C261.931 170.62 261.74 170.43 261.53 170.263C261.299 170.126 261.054 170.015 260.799 169.93C261.083 169.916 261.362 170.003 261.588 170.176C261.834 170.323 262.016 170.556 262.098 170.83Z" fill="#263238"/>
<path d="M263.903 168.621C263.903 168.645 263.715 168.559 263.523 168.429C263.33 168.299 263.181 168.174 263.195 168.15C263.21 168.126 263.383 168.212 263.58 168.342C263.778 168.472 263.917 168.588 263.903 168.621Z" fill="#263238"/>
<path d="M264.394 168C264.394 168.029 264.22 168 264.033 167.938C263.845 167.875 263.696 167.803 263.706 167.779C263.715 167.755 263.874 167.779 264.066 167.842C264.259 167.904 264.399 167.976 264.394 168Z" fill="#263238"/>
<path d="M264.466 167.081C264.466 167.105 264.302 167.211 264.076 167.312C263.85 167.413 263.657 167.481 263.648 167.452C263.638 167.423 263.807 167.322 264.033 167.221C264.259 167.12 264.456 167.052 264.466 167.081Z" fill="#263238"/>
<path d="M264.374 166.494C264.374 166.494 264.23 166.691 263.975 166.831C263.833 166.927 263.665 166.977 263.494 166.975C263.637 166.883 263.788 166.804 263.946 166.739C264.167 166.609 264.35 166.47 264.374 166.494Z" fill="#263238"/>
<path d="M263.33 168.053C263.176 168.155 263.005 168.23 262.825 168.275C262.631 168.331 262.433 168.369 262.233 168.39C262.111 168.405 261.989 168.405 261.867 168.39C261.792 168.382 261.723 168.346 261.675 168.289C261.651 168.254 261.639 168.213 261.639 168.171C261.639 168.129 261.651 168.088 261.675 168.053C261.826 167.874 262.035 167.752 262.265 167.709C262.496 167.666 262.735 167.704 262.94 167.818C263.064 167.882 263.173 167.972 263.258 168.082C263.292 168.119 263.316 168.164 263.33 168.212C263.21 168.079 263.066 167.968 262.907 167.885C262.735 167.8 262.543 167.768 262.353 167.793C262.125 167.816 261.914 167.927 261.766 168.101C261.713 168.198 261.766 168.28 261.901 168.289C262.013 168.301 262.126 168.301 262.238 168.289C262.434 168.271 262.628 168.239 262.82 168.193C263.133 168.106 263.325 168.039 263.33 168.053Z" fill="#263238"/>
<path d="M263.21 168.135C263.21 168.135 263.075 168.049 262.998 167.808C262.963 167.667 262.963 167.52 262.998 167.38C263.007 167.285 263.041 167.194 263.094 167.116C263.148 167.038 263.221 166.974 263.306 166.932C263.362 166.922 263.42 166.934 263.467 166.965C263.515 166.996 263.548 167.045 263.561 167.1C263.582 167.187 263.582 167.278 263.561 167.365C263.545 167.505 263.511 167.643 263.46 167.774C263.423 167.901 263.353 168.015 263.258 168.106C263.258 168.106 263.32 167.972 263.388 167.75C263.429 167.622 263.455 167.49 263.465 167.355C263.465 167.216 263.465 167.004 263.316 167.033C263.166 167.062 263.109 167.264 263.075 167.399C263.046 167.527 263.046 167.66 263.075 167.789C263.109 167.908 263.154 168.024 263.21 168.135Z" fill="#263238"/>
<path d="M271.507 163.832C271.507 163.832 271.271 163.914 270.934 164.112C270.494 164.371 270.135 164.748 269.895 165.199C269.659 165.651 269.556 166.16 269.596 166.667C269.625 167.062 269.712 167.293 269.693 167.298C269.661 167.249 269.638 167.195 269.625 167.139C269.574 166.983 269.54 166.821 269.524 166.658C269.46 166.132 269.557 165.6 269.802 165.13C270.046 164.661 270.428 164.277 270.896 164.03C271.035 163.953 271.182 163.891 271.334 163.847C271.391 163.834 271.449 163.829 271.507 163.832Z" fill="#263238"/>
<path d="M269.24 160.916C269.532 161.43 269.794 161.96 270.025 162.504C270.283 163.035 270.513 163.58 270.713 164.136C270.417 163.624 270.155 163.093 269.929 162.547C269.664 162.019 269.435 161.474 269.24 160.916Z" fill="#263238"/>
<path d="M268.398 167.019C268.061 167.274 267.69 167.483 267.296 167.639C266.92 167.834 266.518 167.975 266.103 168.058C266.103 168.029 266.622 167.832 267.253 167.548C267.883 167.264 268.355 166.995 268.398 167.019Z" fill="#263238"/>
<path d="M269.914 166.335C269.943 166.335 269.914 166.46 269.914 166.605C269.914 166.749 269.914 166.86 269.914 166.869C269.914 166.879 269.818 166.763 269.823 166.6C269.827 166.436 269.89 166.321 269.914 166.335Z" fill="#263238"/>
<path d="M270.179 165.353C270.179 165.353 270.179 165.469 270.145 165.584C270.111 165.7 270.039 165.791 270.015 165.782C269.991 165.772 270.015 165.666 270.049 165.551C270.082 165.435 270.15 165.344 270.179 165.353Z" fill="#263238"/>
<path d="M270.862 164.651C270.862 164.684 270.766 164.728 270.665 164.819C270.564 164.911 270.511 165.012 270.487 165.002C270.463 164.992 270.487 164.853 270.598 164.742C270.708 164.631 270.862 164.627 270.862 164.651Z" fill="#263238"/>
<path d="M271.387 164.256C271.387 164.256 271.387 164.333 271.324 164.391C271.262 164.448 271.214 164.472 271.19 164.448C271.166 164.424 271.19 164.371 271.252 164.314C271.315 164.256 271.368 164.213 271.387 164.256Z" fill="#263238"/>
<path d="M271.839 162.629L260.77 168.939L245.2 137.785C242.89 129.454 240.661 100.128 240.661 100.128L253.478 101.091C253.478 101.091 255.451 122.148 258.551 132.996L271.839 162.629Z" fill="#263238"/>
<path d="M259.851 87.3163C260.159 87.3163 262.401 95.9796 259.668 101.231C259.398 101.741 257.435 104.6 257.435 104.6C250.451 112.835 243.376 128.818 241.398 132.996C237.345 141.611 222.411 169.94 222.411 169.94L212.819 164.448L226.843 128.38L238.876 92.9908L259.851 87.3163Z" fill="#263238"/>
<path d="M253.55 109.576C253.396 109.801 253.261 110.037 253.146 110.284L252.106 112.276C251.23 113.937 249.998 116.218 248.636 118.74C247.274 121.262 246.061 123.553 245.224 125.242C244.805 126.085 244.473 126.768 244.261 127.244C244.135 127.487 244.028 127.737 243.938 127.995C244.095 127.772 244.232 127.535 244.348 127.288C244.607 126.806 244.959 126.123 245.382 125.319C246.258 123.659 247.49 121.377 248.857 118.856C250.224 116.334 251.432 114.043 252.265 112.353C252.688 111.511 253.02 110.828 253.227 110.351C253.354 110.101 253.462 109.842 253.55 109.576Z" fill="#455A64"/>
<path d="M227.069 78.8311C225.373 78.6948 223.686 78.4634 222.016 78.1381C219.961 77.6568 219.994 77.4546 220.091 77.2236C220.341 76.5979 223.739 77.96 223.166 77.2236C222.593 76.4872 218.834 76.0492 219.118 75.4091C219.489 74.5717 223.026 76.0637 223.33 76.1696C223.633 76.2755 223.787 75.8279 223.508 75.746C223.099 75.6353 218.863 74.3358 219.224 73.5128C219.422 73.0315 220.187 73.5128 220.187 73.5128C220.187 73.5128 224.066 75.0241 224.225 74.6294C224.384 74.2348 222.131 73.2626 221.337 72.993C220.543 72.7235 220.375 72.247 220.764 72.0016C221.029 71.8331 223.44 72.6032 224.206 72.892C224.971 73.1807 227.064 73.9989 226.343 72.7476C225.621 71.4962 225.563 70.2833 225.755 69.9224C225.948 69.5614 226.506 69.7395 226.554 70.1871C226.652 70.6639 226.814 71.1253 227.036 71.5588C227.202 71.9134 227.424 72.2385 227.695 72.5214C227.931 72.7668 228.147 72.9738 228.345 73.1567L230.063 74.7738L228.869 78.9803L227.069 78.8311Z" fill="#9F7362"/>
<path d="M248.622 33.1708C248.011 32.2082 246.73 31.828 245.566 31.8424C243.948 31.9073 242.399 32.511 241.164 33.5574C239.929 34.6039 239.08 36.0331 238.751 37.6179C238.519 38.9222 238.654 40.2939 238.269 41.5501C237.919 42.4447 237.453 43.2894 236.883 44.0624C236.311 44.8342 235.914 45.721 235.718 46.6614C235.627 47.134 235.669 47.6226 235.839 48.0729C236.009 48.5232 236.3 48.9176 236.681 49.2123C236.205 49.6937 235.895 50.3137 235.795 50.9829C235.695 51.6521 235.81 52.3357 236.124 52.9351C236.438 53.5345 236.934 54.0187 237.541 54.3175C238.149 54.6164 238.835 54.7146 239.501 54.598C240.199 54.4776 240.945 54.1167 241.581 54.4632C241.875 54.6659 242.136 54.9126 242.355 55.1948C243.318 56.1814 244.925 56.3402 246.206 55.8445C247.478 55.2797 248.544 54.3348 249.257 53.1396C249.459 52.8364 249.738 52.4803 250.085 52.514C250.292 52.5653 250.482 52.6717 250.634 52.822C251.27 53.3237 252.071 53.5691 252.879 53.5099C253.687 53.4508 254.444 53.0913 255 52.5023C255.557 51.9133 255.873 51.1374 255.886 50.3272C255.899 49.517 255.608 48.7313 255.071 48.1246C255.643 47.9423 256.162 47.6256 256.586 47.201C257.01 46.7764 257.325 46.2563 257.507 45.6844C257.852 44.5291 257.805 43.2917 257.372 42.1661C256.765 40.4961 255.562 39.1292 254.383 37.8056C253.305 36.588 252.987 34.7157 251.909 33.5029C251.421 32.83 250.707 32.3551 249.897 32.1649C249.093 32.0967 248.287 32.2765 247.587 32.6798" fill="#263238"/>
<path d="M246.201 33.7483C246.998 33.7483 247.788 33.9063 248.523 34.2133C249.259 34.5203 249.927 34.9701 250.487 35.5367C251.048 36.1034 251.491 36.7756 251.791 37.5145C252.09 38.2534 252.24 39.0443 252.232 39.8415L252.034 56.3258C252.012 56.8397 251.887 57.3439 251.667 57.8092C251.448 58.2744 251.138 58.6914 250.756 59.0358C250.374 59.3802 249.927 59.6452 249.442 59.8154C248.957 59.9856 248.442 60.0575 247.929 60.027C245.657 59.9789 243.809 58.2221 243.804 56.0996C243.804 53.8712 243.746 51.5273 243.746 51.5273C243.746 51.5273 240.859 51.046 240.286 47.3064C240.132 46.3438 240.122 42.9122 240.151 39.726C240.165 38.1358 240.807 36.6154 241.936 35.4959C243.065 34.3764 244.591 33.7483 246.182 33.7483H246.201Z" fill="#9F7362"/>
<path d="M241.027 42.0073C241.027 42.135 241.078 42.2574 241.168 42.3477C241.258 42.4379 241.381 42.4886 241.508 42.4886C241.628 42.4892 241.744 42.4452 241.833 42.3651C241.922 42.285 241.978 42.1746 241.99 42.0555C241.99 41.9278 241.939 41.8054 241.849 41.7151C241.758 41.6249 241.636 41.5742 241.508 41.5742C241.389 41.5736 241.273 41.6176 241.184 41.6977C241.095 41.7778 241.039 41.8882 241.027 42.0073Z" fill="#263238"/>
<path d="M240.921 41.4828C240.979 41.5453 241.345 41.2758 241.884 41.2758C242.423 41.2758 242.779 41.5357 242.846 41.4731C242.914 41.4106 242.813 41.3336 242.649 41.2132C242.424 41.0583 242.157 40.976 241.884 40.9774C241.616 40.9763 241.355 41.0606 241.138 41.218C240.965 41.3384 240.892 41.4539 240.921 41.4828Z" fill="#263238"/>
<path d="M246.196 42.0073C246.196 42.135 246.247 42.2574 246.337 42.3477C246.427 42.4379 246.55 42.4886 246.677 42.4886C246.738 42.4925 246.798 42.4843 246.855 42.4646C246.912 42.4448 246.964 42.4138 247.009 42.3734C247.054 42.3331 247.09 42.2841 247.116 42.2295C247.142 42.1749 247.156 42.1158 247.159 42.0555C247.159 41.9278 247.108 41.8054 247.018 41.7151C246.927 41.6249 246.805 41.5742 246.677 41.5742C246.558 41.5736 246.442 41.6176 246.353 41.6977C246.264 41.7778 246.208 41.8882 246.196 42.0073Z" fill="#263238"/>
<path d="M245.999 41.579C246.062 41.6416 246.423 41.372 246.962 41.372C247.501 41.372 247.857 41.6319 247.924 41.5694C247.992 41.5068 247.895 41.4298 247.727 41.3095C247.504 41.1544 247.238 41.072 246.966 41.0736C246.697 41.0725 246.434 41.1568 246.216 41.3143C246.028 41.4346 245.97 41.5501 245.999 41.579Z" fill="#263238"/>
<path d="M244.127 45.4101C243.853 45.3278 243.57 45.2777 243.284 45.2609C243.154 45.2609 243.029 45.2176 243.005 45.1309C242.995 44.9931 243.027 44.8554 243.097 44.7363C243.217 44.4186 243.347 44.0865 243.487 43.7352C243.846 42.8832 244.139 42.0046 244.363 41.1073C243.931 41.9266 243.567 42.7797 243.275 43.6582L242.899 44.6689C242.818 44.8275 242.794 45.0096 242.832 45.1839C242.851 45.2304 242.88 45.272 242.918 45.3054C242.955 45.3388 243 45.3631 243.049 45.3764C243.122 45.398 243.198 45.4093 243.275 45.4101C243.558 45.4466 243.844 45.4466 244.127 45.4101Z" fill="#263238"/>
<path d="M243.765 51.5273C245.529 51.5552 247.265 51.092 248.78 50.1894C248.78 50.1894 247.568 52.7595 243.818 52.4129L243.765 51.5273Z" fill="#65463C"/>
<path d="M244.333 46.6567C244.434 46.5346 244.563 46.4391 244.709 46.3787C244.855 46.3182 245.014 46.2947 245.171 46.3101C245.284 46.3212 245.394 46.355 245.494 46.4096C245.595 46.4641 245.683 46.5384 245.753 46.6278C245.824 46.7123 245.866 46.8167 245.873 46.9264C245.881 47.0361 245.854 47.1454 245.797 47.239C245.714 47.3328 245.605 47.3996 245.484 47.4305C245.363 47.4614 245.235 47.455 245.118 47.4123C244.874 47.3271 244.649 47.1928 244.459 47.0176C244.399 46.9762 244.349 46.9239 244.309 46.8636C244.291 46.8347 244.282 46.8014 244.282 46.7673C244.282 46.7333 244.291 46.7 244.309 46.6711" fill="#9F7362"/>
<path d="M245.647 45.7662C245.561 45.7662 245.561 46.3245 245.079 46.7288C244.598 47.1331 244.001 47.0657 243.996 47.1427C243.992 47.2197 244.131 47.2534 244.386 47.2583C244.714 47.2624 245.032 47.1517 245.286 46.9454C245.531 46.7443 245.688 46.4562 245.724 46.1416C245.748 45.9058 245.686 45.7662 245.647 45.7662Z" fill="#263238"/>
<path d="M245.98 40.1303C246.028 40.2698 246.547 40.2073 247.154 40.2795C247.76 40.3517 248.246 40.5153 248.328 40.3902C248.41 40.265 248.28 40.1976 248.083 40.0629C247.819 39.8938 247.519 39.7883 247.207 39.7549C246.898 39.7172 246.584 39.7552 246.292 39.8656C246.066 39.9522 245.955 40.0821 245.98 40.1303Z" fill="#263238"/>
<path d="M241.109 39.9859C241.2 40.1014 241.556 39.9859 241.985 39.9859C242.413 39.9859 242.774 40.0629 242.861 39.9426C242.947 39.8223 242.837 39.7645 242.683 39.6538C242.47 39.5209 242.222 39.4541 241.971 39.4618C241.72 39.4695 241.477 39.5514 241.272 39.6971C241.118 39.8078 241.07 39.9282 241.109 39.9859Z" fill="#263238"/>
<path d="M253.584 39.7405C253.319 37.4736 252.251 35.1874 250.301 33.9938C248.598 32.9446 246.851 32.7088 245.156 33.6328C244.443 33.5347 243.716 33.5955 243.029 33.811C242.342 34.0266 241.711 34.3914 241.181 34.8794C240.089 35.9253 239.406 37.3264 239.256 38.8308C239.117 40.3291 239.35 41.8384 239.934 43.225L240.223 39.4324C242.148 38.6046 244.295 36.973 245.036 34.9901C245.414 36.3286 246.137 37.5443 247.133 38.515C248.129 39.4856 249.363 40.1772 250.711 40.5202C250.53 41.6293 250.64 42.7665 251.03 43.8203C251.421 44.8741 252.079 45.8083 252.939 46.5315C253.411 44.2983 253.849 42.0073 253.584 39.7405Z" fill="#263238"/>
<path d="M251.1 42.0073C251.394 43.4512 250.894 44.9336 250.528 46.3679C250.162 47.8021 249.941 49.4145 250.711 50.6995C250.989 51.0242 251.169 51.4215 251.23 51.845C251.15 52.2174 251.019 52.5769 250.841 52.9135C250.76 53.2538 250.789 53.6109 250.923 53.934C251.057 54.2571 251.289 54.5298 251.587 54.7135C252.199 55.0692 252.925 55.1744 253.613 55.0071C254.284 54.8326 254.931 54.5738 255.538 54.237L257.362 53.3322C257.64 53.2104 257.897 53.0483 258.127 52.8509C258.48 52.4754 258.711 52.0025 258.792 51.4936C259.184 49.5248 258.842 47.4805 257.829 45.747C256.866 44.0143 257.29 41.141 255.61 40.0774" fill="#263238"/>
<path d="M256.448 53.5921C256.785 53.5095 257.109 53.3799 257.41 53.207C257.811 52.952 258.149 52.6095 258.4 52.2053C258.65 51.8011 258.805 51.3455 258.854 50.8728C258.908 50.2137 258.796 49.5517 258.527 48.9476C258.377 48.6162 258.189 48.303 257.969 48.0139C257.733 47.7155 257.487 47.4363 257.179 47.1427C256.881 46.8428 256.606 46.521 256.356 46.1801C256.096 45.8085 255.931 45.3789 255.875 44.9288C255.764 44.0047 256.111 43.095 255.961 42.2143C255.888 41.7826 255.65 41.3962 255.297 41.1362C254.94 40.8862 254.545 40.6945 254.128 40.5683C253.298 40.34 252.508 39.9879 251.784 39.5238C250.588 38.7126 249.51 37.7409 248.578 36.6361C247.77 35.7024 247.183 34.8986 246.783 34.3403C246.586 34.0564 246.437 33.859 246.336 33.6858C246.281 33.6106 246.234 33.53 246.196 33.4451C246.196 33.4451 246.268 33.5125 246.379 33.6569L246.86 34.2826C247.284 34.8216 247.89 35.6061 248.708 36.5158C249.643 37.5983 250.716 38.5531 251.899 39.3554C252.614 39.7996 253.389 40.1384 254.2 40.3613C254.645 40.4937 255.066 40.6969 255.447 40.9629C255.848 41.2587 256.119 41.6987 256.202 42.1902C256.356 43.1528 256.005 44.0769 256.116 44.924C256.226 45.771 256.813 46.4256 257.362 47.0032C257.642 47.2876 257.907 47.5864 258.156 47.8984C258.386 48.2032 258.578 48.5344 258.729 48.885C259.006 49.5172 259.114 50.2104 259.042 50.8968C258.979 51.4631 258.765 52.002 258.421 52.4562C258.162 52.8005 257.834 53.0872 257.458 53.2985C257.223 53.4267 256.97 53.5191 256.708 53.5728C256.622 53.5895 256.535 53.596 256.448 53.5921Z" fill="#455A64"/>
<path d="M255.293 38.8404C255.158 38.8325 255.025 38.8049 254.898 38.7586C254.542 38.6605 254.192 38.5433 253.849 38.4072C251.565 37.5202 249.513 36.1263 247.847 34.3307C247.534 33.9841 247.289 33.6906 247.135 33.4836C246.981 33.2766 246.899 33.1515 246.913 33.1419C247.286 33.4779 247.641 33.8329 247.977 34.2055C249.686 35.9114 251.701 37.2811 253.916 38.2436C254.763 38.6383 255.307 38.8019 255.293 38.8404Z" fill="#455A64"/>
<path d="M242.129 33.0552C242.129 33.0312 242.302 32.8242 242.678 32.574C243.173 32.2179 243.762 32.0138 244.372 31.9868C244.714 31.9779 245.053 32.0487 245.363 32.1937C245.615 32.3175 245.836 32.4969 246.008 32.7183C246.095 32.8125 246.163 32.9232 246.207 33.0439C246.25 33.1646 246.27 33.2928 246.263 33.421C246.148 33.2147 246.016 33.0183 245.869 32.8339C245.678 32.6328 245.445 32.4753 245.188 32.3723C244.93 32.2693 244.654 32.2232 244.377 32.2371C243.81 32.2657 243.258 32.4308 242.769 32.7183C242.569 32.8535 242.354 32.9665 242.129 33.0552Z" fill="#455A64"/>
<path d="M28.8248 116.252C28.8248 116.252 31.9917 116.391 30.8799 123.389C29.7681 130.387 28.6179 134.055 28.6179 134.055C28.6179 134.055 28.5312 135.629 29.773 135.46C31.0147 135.292 33.4693 134.04 34.4559 135.306C35.4426 136.572 34.8602 138.377 33.0698 140.326C31.2794 142.275 27.5109 146.679 27.1692 147.064C26.8274 147.449 26.6301 148.243 27.4964 148.267C28.3628 148.291 34.3693 147.002 34.8073 149.889C35.2453 152.777 29.3687 157.378 28.7334 157.893C28.0981 158.408 28.0259 158.774 28.2136 159.154C28.4013 159.534 30.3842 158.909 32.1072 158.61C33.8303 158.312 35.8806 158.273 35.9961 159.963C36.1116 161.652 33.2238 166.22 23.93 170.282L19.5021 171.884L15.8347 168.896C8.37463 162.023 7.1329 156.767 7.79227 155.208C8.45164 153.648 10.3768 154.361 11.9073 155.208C13.4378 156.055 15.1079 157.282 15.4112 156.988C15.7144 156.695 15.7625 156.324 15.3293 155.631C14.8962 154.938 10.8389 148.667 12.1961 146.082C13.5534 143.498 18.8139 146.669 19.6417 146.929C20.4695 147.189 20.5273 146.381 20.3396 145.899C20.1519 145.418 18.0198 140.018 16.9705 137.592C15.9213 135.167 15.8973 133.304 17.293 132.399C18.6888 131.494 20.5514 133.506 21.6728 134.069C22.7942 134.632 23.2225 133.107 23.2225 133.107C23.2225 133.107 23.3236 129.256 24.5605 122.287C25.7975 115.318 28.8922 116.242 28.8922 116.242" fill="#0A1128"/>
<path d="M27.8478 122.523V122.653L27.79 123.028C27.7323 123.365 27.6553 123.851 27.5542 124.472C27.3376 125.733 27.0344 127.538 26.659 129.766C25.9226 134.247 24.9023 140.417 23.7712 147.233C22.6402 154.048 21.6247 160.227 20.8353 164.694L19.8728 169.988C19.7524 170.599 19.6658 171.081 19.5984 171.432C19.5695 171.591 19.5455 171.711 19.5262 171.807C19.5196 171.85 19.5083 171.892 19.4925 171.933C19.4862 171.889 19.4862 171.846 19.4925 171.803L19.5503 171.427C19.6032 171.085 19.6851 170.604 19.7861 169.983C19.9979 168.722 20.3059 166.917 20.6813 164.689C21.4321 160.218 22.4477 154.043 23.5691 147.218C24.6905 140.393 25.7157 134.223 26.505 129.762L27.4676 124.467C27.5831 123.856 27.6745 123.375 27.7371 123.023C27.7708 122.869 27.7949 122.744 27.8141 122.653C27.8204 122.608 27.8317 122.565 27.8478 122.523Z" fill="#263238"/>
<path d="M31.1205 137.198C30.821 137.502 30.4993 137.783 30.1579 138.04L27.8429 140.028C26.938 140.807 26.1102 141.505 25.499 141.991C25.1909 142.237 24.9407 142.429 24.7626 142.554C24.6729 142.628 24.5742 142.689 24.469 142.737C24.7729 142.438 25.0943 142.156 25.4316 141.895L27.737 139.888C28.6418 139.113 29.4744 138.42 30.0905 137.939L30.8317 137.38C30.9204 137.308 31.0173 137.247 31.1205 137.198Z" fill="#263238"/>
<path d="M24.0649 142.55C24.0264 142.578 22.621 140.846 20.9316 138.699C19.2423 136.553 17.8947 134.748 17.9332 134.714C17.9717 134.68 19.3771 136.418 21.0712 138.588C22.7654 140.759 24.1082 142.516 24.0649 142.55Z" fill="#263238"/>
<path d="M22.6739 154.683C22.5647 154.64 22.4613 154.583 22.3658 154.515C22.1733 154.404 21.8845 154.226 21.5669 154.004C20.9027 153.562 19.9979 152.926 19.0401 152.171C18.0823 151.415 17.2449 150.693 16.6336 150.149C16.34 149.88 16.1042 149.668 15.9502 149.495C15.8619 149.417 15.7827 149.33 15.7144 149.235C16.0657 149.487 16.4016 149.76 16.7203 150.053C17.3267 150.568 18.1641 151.275 19.1267 152.026C20.0893 152.777 20.9749 153.432 21.615 153.898C21.9849 154.136 22.3387 154.398 22.6739 154.683Z" fill="#263238"/>
<path d="M30.1002 151.261C29.7609 151.472 29.4052 151.655 29.0366 151.81C28.3724 152.127 27.4435 152.551 26.4183 153.008C25.3932 153.465 24.4546 153.874 23.776 154.163C23.4149 154.333 23.0417 154.476 22.6594 154.592C22.9988 154.381 23.3545 154.197 23.7231 154.043C24.3873 153.73 25.3162 153.302 26.3413 152.844C27.3665 152.387 28.305 151.978 28.9836 151.689C29.3444 151.518 29.7177 151.375 30.1002 151.261Z" fill="#263238"/>
<path d="M30.23 162.109C30.1171 162.188 29.996 162.254 29.869 162.307L28.8535 162.788C27.992 163.183 26.7984 163.712 25.4844 164.29C24.1705 164.867 22.9625 165.382 22.0865 165.733L21.0517 166.152C20.9266 166.21 20.796 166.255 20.6619 166.287C20.7726 166.205 20.894 166.139 21.0228 166.09L22.0384 165.608C22.8951 165.219 24.0887 164.684 25.4074 164.107C26.7262 163.529 27.9342 163.019 28.8054 162.663L29.845 162.239C29.9679 162.182 30.0971 162.138 30.23 162.109Z" fill="#263238"/>
<path d="M20.8496 166.123C20.7179 166.056 20.5923 165.977 20.4742 165.887C20.2432 165.729 19.9063 165.493 19.5116 165.194C18.6934 164.593 17.5865 163.751 16.3929 162.754C15.1993 161.758 14.1597 160.829 13.4185 160.136C13.0479 159.789 12.7543 159.501 12.5569 159.299C12.4473 159.201 12.3474 159.093 12.2585 158.976C12.3853 159.052 12.5018 159.145 12.6051 159.25C12.8457 159.457 13.1489 159.732 13.5051 160.04C14.2655 160.709 15.3196 161.628 16.5084 162.615C17.6972 163.601 18.7945 164.468 19.5886 165.093L20.5512 165.83C20.7389 166.008 20.8593 166.109 20.8496 166.123Z" fill="#263238"/>
<path d="M286.307 141.25C287.003 141.584 287.624 142.054 288.135 142.633C288.645 143.211 289.033 143.887 289.277 144.619C289.754 146.088 289.889 147.647 289.671 149.177C289.339 152.137 287.655 155.121 285.821 157.489C283.328 155.313 282.755 151.521 282.587 149.576C282.317 146.506 283.699 140.793 286.283 141.25" fill="#0A1128"/>
<path d="M288.743 162.369C288.574 161.524 288.63 160.649 288.908 159.833C289.185 159.016 289.672 158.287 290.321 157.72C290.984 157.163 291.75 156.743 292.577 156.486C293.403 156.229 294.273 156.14 295.134 156.223C295.928 156.286 296.78 156.517 297.238 157.186C297.431 157.505 297.536 157.869 297.542 158.242C297.548 158.615 297.454 158.983 297.271 159.308C296.892 159.953 296.349 160.485 295.697 160.853C293.541 162.21 291.202 163.125 288.762 162.388" fill="#0A1128"/>
<path d="M285.547 171.442C285.559 171.237 285.588 171.035 285.634 170.835C285.715 170.407 285.816 169.873 285.937 169.194C286.222 167.363 286.801 165.59 287.65 163.943C288.529 162.298 289.83 160.916 291.419 159.939C291.902 159.653 292.417 159.425 292.954 159.26C293.099 159.215 293.247 159.178 293.397 159.149C293.448 159.133 293.502 159.124 293.556 159.125C292.839 159.377 292.148 159.699 291.496 160.088C289.963 161.087 288.707 162.456 287.843 164.068C287.009 165.697 286.423 167.441 286.105 169.242C285.956 169.93 285.831 170.489 285.735 170.874C285.691 171.069 285.628 171.259 285.547 171.442Z" fill="#263238"/>
<path d="M285.638 145.692C285.661 145.78 285.672 145.871 285.672 145.962C285.672 146.154 285.696 146.41 285.715 146.722C285.754 147.387 285.792 148.344 285.831 149.528C285.903 151.901 285.965 155.179 285.951 158.798C285.937 162.417 285.845 165.695 285.749 168.063C285.701 169.252 285.653 170.209 285.609 170.869C285.609 171.182 285.571 171.437 285.561 171.634C285.558 171.723 285.547 171.812 285.527 171.899C285.517 171.809 285.517 171.719 285.527 171.629C285.527 171.432 285.527 171.182 285.527 170.869C285.527 170.176 285.566 169.223 285.595 168.058C285.653 165.69 285.72 162.413 285.734 158.798C285.749 155.184 285.734 151.906 285.677 149.533C285.677 148.368 285.643 147.415 285.633 146.727C285.633 146.41 285.633 146.159 285.633 145.962C285.628 145.872 285.629 145.782 285.638 145.692Z" fill="#263238"/>
<path d="M284.43 164.174C284.129 162.38 283.404 160.683 282.316 159.225C281.228 157.767 279.808 156.59 278.173 155.79C277.341 155.39 276.248 155.131 275.57 155.751C274.891 156.372 275.035 157.484 275.372 158.346C276.104 160.132 277.348 161.662 278.948 162.742C280.548 163.823 282.432 164.405 284.363 164.415" fill="#0A1128"/>
<path d="M278.587 158.596C278.771 158.654 278.949 158.732 279.117 158.827C279.322 158.921 279.521 159.027 279.713 159.145C279.935 159.284 280.195 159.419 280.474 159.626C280.774 159.828 281.064 160.047 281.34 160.28C281.665 160.544 281.975 160.825 282.269 161.123C282.94 161.808 283.53 162.567 284.031 163.385C284.517 164.209 284.905 165.088 285.186 166.003C285.308 166.403 285.406 166.809 285.479 167.221C285.551 167.578 285.601 167.94 285.629 168.304C285.661 168.601 285.675 168.9 285.672 169.199C285.685 169.425 285.685 169.651 285.672 169.877C285.671 170.07 285.649 170.262 285.605 170.45C285.556 170.45 285.643 169.627 285.499 168.318C285.461 167.962 285.403 167.609 285.325 167.259C285.244 166.856 285.141 166.458 285.017 166.066C284.727 165.169 284.34 164.307 283.862 163.496C283.37 162.692 282.794 161.944 282.144 161.262C281.862 160.965 281.563 160.684 281.249 160.42C280.978 160.182 280.696 159.959 280.402 159.751C279.314 158.962 278.563 158.639 278.587 158.596Z" fill="#263238"/>
<path d="M194.428 23.3091H98.4387V119.298H194.428V23.3091Z" fill="#F5F5F5"/>
<path d="M194.423 119.298C194.423 118.374 194.38 80.8525 194.318 23.3091L194.423 23.4198H98.4486L98.5738 23.2946C98.5738 58.4291 98.5738 91.3881 98.5738 119.284L98.4679 119.173L194.452 119.284L98.4679 119.39H98.3572V119.284C98.3572 91.3688 98.3572 58.4435 98.3572 23.2946V23.1695H98.4919H194.467H194.577V23.2754C194.467 80.8525 194.423 118.374 194.423 119.298Z" fill="#263238"/>
<path d="M185.818 113.576C186.775 113.452 187.741 113.41 188.706 113.451L188.58 113.576V113.003C188.58 112.82 188.58 112.642 188.58 112.464C188.58 112.146 188.58 111.843 188.605 111.545C188.59 111.259 188.621 110.973 188.696 110.698C188.764 110.975 188.793 111.26 188.783 111.545C188.783 111.843 188.783 112.146 188.812 112.464C188.812 112.642 188.812 112.82 188.812 113.003V113.576L188.686 113.701C187.728 113.743 186.769 113.701 185.818 113.576Z" fill="#455A64"/>
<path d="M173.699 113.576C175.715 113.409 177.742 113.409 179.758 113.576C177.742 113.743 175.715 113.743 173.699 113.576Z" fill="#455A64"/>
<path d="M161.58 113.576C163.596 113.409 165.623 113.409 167.64 113.576C165.623 113.743 163.596 113.743 161.58 113.576Z" fill="#455A64"/>
<path d="M149.461 113.576C151.477 113.409 153.504 113.409 155.52 113.576C153.504 113.743 151.477 113.743 149.461 113.576Z" fill="#455A64"/>
<path d="M137.342 113.576C139.358 113.409 141.385 113.409 143.402 113.576C141.385 113.743 139.358 113.743 137.342 113.576Z" fill="#455A64"/>
<path d="M125.223 113.576C127.239 113.409 129.266 113.409 131.282 113.576C129.266 113.743 127.239 113.743 125.223 113.576Z" fill="#455A64"/>
<path d="M113.104 113.576C114.11 113.452 115.124 113.41 116.136 113.451C117.147 113.41 118.159 113.452 119.163 113.576C118.16 113.702 117.147 113.744 116.136 113.701C115.124 113.744 114.109 113.702 113.104 113.576Z" fill="#455A64"/>
<path d="M104.157 110.688C104.28 111.645 104.322 112.611 104.282 113.576L104.157 113.451H105.283L106.197 113.479C106.482 113.469 106.767 113.498 107.044 113.566C106.768 113.641 106.483 113.672 106.197 113.658L105.283 113.682L104.758 113.72H104.176L104.051 113.595C104.003 112.625 104.038 111.652 104.157 110.688Z" fill="#455A64"/>
<path d="M104.157 98.569C104.28 99.5746 104.322 100.589 104.282 101.601C104.322 102.612 104.281 103.624 104.157 104.628C104.033 103.624 103.991 102.612 104.032 101.601C103.991 100.589 104.033 99.5746 104.157 98.569Z" fill="#455A64"/>
<path d="M104.157 86.45C104.28 87.4557 104.322 88.4697 104.282 89.4822C104.322 90.493 104.281 91.5054 104.157 92.5095C104.033 91.5054 103.991 90.493 104.032 89.4822C103.991 88.4697 104.033 87.4557 104.157 86.45Z" fill="#455A64"/>
<path d="M104.157 74.3359C104.281 75.3399 104.322 76.3524 104.282 77.3632C104.322 78.3756 104.28 79.3897 104.157 80.3954C104.033 79.3897 103.991 78.3756 104.032 77.3632C103.991 76.3524 104.033 75.3399 104.157 74.3359Z" fill="#455A64"/>
<path d="M104.157 62.2217C104.281 63.2257 104.322 64.2382 104.282 65.249C104.322 66.2615 104.28 67.2755 104.157 68.2812C104.033 67.2755 103.991 66.2615 104.032 65.249C103.991 64.2382 104.033 63.2257 104.157 62.2217Z" fill="#455A64"/>
<path d="M104.157 50.0979C104.28 51.102 104.322 52.1144 104.282 53.1252C104.322 54.1377 104.28 55.1517 104.157 56.1574C104.033 55.1517 103.991 54.1377 104.032 53.1252C103.991 52.1144 104.033 51.102 104.157 50.0979Z" fill="#455A64"/>
<path d="M104.157 37.9789C104.28 38.983 104.322 39.9954 104.282 41.0062C104.322 42.0187 104.28 43.0327 104.157 44.0384C104.033 43.0327 103.991 42.0187 104.032 41.0062C103.991 39.9954 104.033 38.983 104.157 37.9789Z" fill="#455A64"/>
<path d="M107.044 29.0124C106.087 29.136 105.121 29.1779 104.157 29.1375L104.277 29.0124V29.5851C104.277 29.768 104.277 29.9461 104.277 30.1242C104.277 30.4418 104.277 30.7451 104.253 31.0435C104.264 31.3288 104.233 31.6142 104.161 31.8905C104.09 31.6141 104.061 31.3286 104.075 31.0435C104.075 30.7451 104.075 30.4418 104.046 30.1242C104.046 29.9461 104.046 29.768 104.046 29.5851C104.046 29.4889 104.046 29.3926 104.046 29.2964V29.0124L104.171 28.8873C105.131 28.8449 106.092 28.8867 107.044 29.0124Z" fill="#455A64"/>
<path d="M119.163 29.0124C118.159 29.1361 117.147 29.1779 116.136 29.1375C115.124 29.178 114.11 29.1362 113.104 29.0124C114.109 28.8858 115.124 28.8439 116.136 28.8873C117.147 28.844 118.16 28.8859 119.163 29.0124Z" fill="#455A64"/>
<path d="M131.282 29.0124C129.266 29.1792 127.239 29.1792 125.223 29.0124C127.239 28.8456 129.266 28.8456 131.282 29.0124Z" fill="#455A64"/>
<path d="M143.402 29.0124C141.385 29.1792 139.358 29.1792 137.342 29.0124C139.358 28.8456 141.385 28.8456 143.402 29.0124Z" fill="#455A64"/>
<path d="M155.52 29.0124C153.504 29.1792 151.477 29.1792 149.461 29.0124C151.477 28.8456 153.504 28.8456 155.52 29.0124Z" fill="#455A64"/>
<path d="M167.64 29.0124C165.623 29.1792 163.596 29.1792 161.58 29.0124C163.596 28.8456 165.623 28.8456 167.64 29.0124Z" fill="#455A64"/>
<path d="M179.758 29.0124C177.742 29.1792 175.715 29.1792 173.699 29.0124C175.715 28.8456 177.742 28.8456 179.758 29.0124Z" fill="#455A64"/>
<path d="M188.706 31.9002C188.579 30.9432 188.537 29.9768 188.58 29.0124C188.831 29.2627 188.648 29.0798 188.701 29.1376H187.579L186.66 29.1087C186.377 29.1194 186.093 29.0902 185.818 29.0221C186.093 28.9503 186.376 28.9195 186.66 28.9306H187.579H188.123H188.701C188.759 28.9836 188.58 28.8055 188.831 29.0558C188.869 30.0057 188.827 30.9572 188.706 31.9002Z" fill="#455A64"/>
<path d="M188.706 44.0384C188.579 43.033 188.537 42.0187 188.581 41.0062C188.537 39.9954 188.579 38.9827 188.706 37.9789C188.829 38.983 188.871 39.9954 188.831 41.0062C188.871 42.0187 188.829 43.0327 188.706 44.0384Z" fill="#455A64"/>
<path d="M188.706 56.1574C188.579 55.152 188.537 54.1377 188.581 53.1252C188.537 52.1144 188.579 51.1017 188.706 50.0979C188.83 51.1019 188.871 52.1144 188.831 53.1252C188.871 54.1377 188.829 55.1517 188.706 56.1574Z" fill="#455A64"/>
<path d="M188.706 68.2764C188.579 67.2709 188.537 66.2567 188.581 65.2442C188.537 64.2334 188.579 63.2207 188.706 62.2169C188.83 63.2209 188.871 64.2334 188.831 65.2442C188.871 66.2567 188.829 67.2707 188.706 68.2764Z" fill="#455A64"/>
<path d="M188.706 80.3954C188.579 79.3899 188.537 78.3756 188.581 77.3632C188.537 76.3524 188.579 75.3397 188.706 74.3359C188.83 75.3399 188.871 76.3524 188.831 77.3632C188.871 78.3756 188.829 79.3897 188.706 80.3954Z" fill="#455A64"/>
<path d="M188.706 92.5095C188.579 91.5057 188.537 90.493 188.581 89.4822C188.537 88.4697 188.579 87.4554 188.706 86.45C188.829 87.4557 188.871 88.4697 188.831 89.4822C188.871 90.493 188.83 91.5054 188.706 92.5095Z" fill="#455A64"/>
<path d="M188.706 104.629C188.579 103.625 188.537 102.612 188.581 101.601C188.537 100.589 188.579 99.5745 188.706 98.569C188.829 99.5747 188.871 100.589 188.831 101.601C188.871 102.612 188.83 103.624 188.706 104.629Z" fill="#455A64"/>
<path d="M142.299 55.0263C142.137 55.0253 141.975 55.0043 141.818 54.9638C141.346 54.8541 140.917 54.61 140.581 54.2611C140.305 53.9921 140.093 53.665 139.96 53.3037C139.827 52.9423 139.776 52.5558 139.811 52.1723C139.871 51.6877 140.085 51.2353 140.422 50.8824C140.794 50.4727 141.313 50.227 141.866 50.199L141.77 50.2952C141.712 49.5778 141.898 48.8618 142.299 48.2642C142.544 47.9539 142.881 47.7296 143.262 47.624C143.664 47.5301 144.082 47.5301 144.484 47.624L144.35 47.7492C144.305 47.3002 144.369 46.8472 144.537 46.4284C144.705 46.0095 144.97 45.6371 145.312 45.3427C145.675 45.0365 146.101 44.8132 146.559 44.6882L146.905 44.5919L147.261 44.5341C147.5 44.49 147.741 44.4675 147.983 44.4668C148.987 44.3782 149.993 44.5946 150.871 45.0876C151.313 45.3844 151.677 45.7841 151.93 46.2524C152.176 46.7272 152.326 47.2455 152.373 47.7781C152.394 48.0102 152.394 48.2438 152.373 48.4759L152.243 48.3364C153.199 48.2686 154.148 48.5358 154.928 49.092C155.644 49.6577 156.192 50.4083 156.512 51.2626C156.701 51.6651 156.785 52.1087 156.757 52.5525C156.722 52.987 156.578 53.4055 156.339 53.7702C156.111 54.1134 155.811 54.403 155.461 54.6191C155.11 54.8351 154.717 54.9724 154.308 55.0215L145.615 55.1033H142.53H142.309C142.383 55.0952 142.457 55.0952 142.53 55.1033L143.175 55.0745L145.62 55.0071L154.284 54.8338C154.659 54.7864 155.019 54.6581 155.34 54.4579C155.661 54.2576 155.934 53.9901 156.141 53.6739C156.364 53.339 156.494 52.9515 156.52 52.5502C156.545 52.1489 156.464 51.748 156.286 51.3878C156.006 50.5442 155.496 49.7956 154.813 49.2267C154.076 48.7092 153.184 48.461 152.286 48.5241H152.142V48.3797C152.161 48.1635 152.161 47.9461 152.142 47.7299C152.115 47.235 151.977 46.7526 151.737 46.3191C151.497 45.8855 151.161 45.5122 150.756 45.2272C149.915 44.7562 148.953 44.5499 147.993 44.6352C147.084 44.6187 146.195 44.9048 145.466 45.4486C145.152 45.7203 144.908 46.0641 144.756 46.4504C144.603 46.8368 144.547 47.2543 144.59 47.6674V47.8214L144.441 47.7877C144.089 47.6856 143.715 47.6843 143.362 47.7838C143.009 47.8834 142.691 48.0798 142.444 48.3508C142.068 48.9188 141.899 49.5981 141.962 50.276V50.3674H141.866C141.361 50.391 140.886 50.6123 140.543 50.9835C140.222 51.3069 140.016 51.726 139.955 52.1771C139.906 52.7774 140.066 53.3762 140.409 53.8718C140.751 54.3675 141.254 54.7295 141.832 54.8964C142.141 55.0023 142.299 55.0023 142.299 55.0263Z" fill="#263238"/>
<path d="M150.443 52.1145C149.626 51.386 148.865 50.5977 148.166 49.7562H148.349L148.306 49.8043C147.561 50.631 146.757 51.4016 145.899 52.1097C146.581 51.2275 147.329 50.3988 148.137 49.631L148.185 49.5829L148.277 49.4866L148.368 49.5877C149.122 50.3768 149.815 51.2214 150.443 52.1145Z" fill="#263238"/>
<path d="M148.258 57.7457C148.134 56.4051 148.092 55.0581 148.133 53.7124C148.092 52.3667 148.134 51.0198 148.258 49.6792C148.385 51.0196 148.426 52.3667 148.383 53.7124C148.426 55.0581 148.385 56.4053 148.258 57.7457Z" fill="#263238"/>
<path d="M146.564 89.2126H119.443C118.994 89.2114 118.564 89.0325 118.246 88.715C117.929 88.3976 117.75 87.9674 117.749 87.5185C117.75 87.0696 117.929 86.6394 118.246 86.322C118.564 86.0045 118.994 85.8256 119.443 85.8243H146.564C147.013 85.8243 147.444 86.0028 147.762 86.3205C148.079 86.6383 148.258 87.0692 148.258 87.5185C148.258 87.9678 148.079 88.3987 147.762 88.7164C147.444 89.0342 147.013 89.2126 146.564 89.2126Z" fill="#0A1128"/>
<path d="M140.302 93.0245V94.8246H139.989V94.555C139.919 94.6494 139.826 94.7251 139.719 94.7754C139.613 94.8257 139.496 94.8492 139.378 94.8438C139.272 94.8555 139.166 94.8432 139.066 94.8078C138.966 94.7723 138.875 94.7147 138.8 94.6392C138.726 94.5637 138.669 94.4723 138.635 94.3719C138.601 94.2715 138.59 94.1646 138.603 94.0593V93.0245H138.93V94.0256C138.93 94.3769 139.108 94.555 139.412 94.555C139.49 94.5601 139.569 94.5476 139.642 94.5185C139.715 94.4894 139.78 94.4444 139.834 94.3868C139.887 94.3292 139.927 94.2604 139.951 94.1855C139.974 94.1105 139.981 94.0312 139.97 93.9534V93.0245H140.302Z" fill="#263238"/>
<path d="M142.781 93.9197C142.787 94.0412 142.767 94.1627 142.724 94.2763C142.681 94.39 142.614 94.4933 142.528 94.5798C142.443 94.6663 142.34 94.734 142.227 94.7786C142.114 94.8232 141.992 94.8438 141.871 94.8389C141.751 94.8435 141.631 94.8197 141.521 94.7695C141.412 94.7194 141.316 94.6443 141.24 94.5502V95.4791H140.913V93.0245H141.226V93.3084C141.302 93.2106 141.4 93.1321 141.512 93.0794C141.624 93.0267 141.747 93.0013 141.871 93.0052C141.992 93.0004 142.113 93.0209 142.226 93.0652C142.339 93.1095 142.441 93.1768 142.526 93.2627C142.612 93.3487 142.679 93.4515 142.722 93.5646C142.766 93.6776 142.786 93.7986 142.781 93.9197ZM142.453 93.9197C142.449 93.7999 142.409 93.6842 142.339 93.5869C142.269 93.4896 142.172 93.415 142.06 93.3724C141.948 93.3298 141.826 93.3211 141.709 93.3473C141.592 93.3736 141.485 93.4336 141.402 93.52C141.319 93.6063 141.263 93.7152 141.241 93.8331C141.22 93.9509 141.233 94.0726 141.28 94.1829C141.327 94.2932 141.405 94.3873 141.505 94.4534C141.605 94.5196 141.722 94.5549 141.842 94.555C141.926 94.5585 142.009 94.5444 142.087 94.5136C142.165 94.4827 142.236 94.4358 142.294 94.3759C142.353 94.3159 142.398 94.2443 142.427 94.1657C142.456 94.0871 142.468 94.0033 142.463 93.9197H142.453Z" fill="#263238"/>
<path d="M143.262 92.2977H143.589V94.8197H143.262V92.2977Z" fill="#263238"/>
<path d="M144.027 93.9197C144.024 93.7343 144.075 93.552 144.175 93.3958C144.274 93.2395 144.418 93.1163 144.588 93.0416C144.757 92.967 144.946 92.9443 145.128 92.9764C145.311 93.0085 145.48 93.094 145.614 93.222C145.748 93.3501 145.841 93.515 145.881 93.6959C145.922 93.8768 145.908 94.0657 145.841 94.2386C145.774 94.4116 145.658 94.5609 145.506 94.6678C145.355 94.7746 145.175 94.8342 144.99 94.839C144.865 94.8485 144.739 94.8316 144.621 94.7893C144.503 94.7471 144.395 94.6804 144.304 94.5937C144.213 94.5071 144.141 94.4023 144.094 94.2861C144.046 94.17 144.024 94.0452 144.027 93.9197ZM145.572 93.9197C145.58 93.8352 145.57 93.7501 145.542 93.6697C145.515 93.5893 145.472 93.5155 145.414 93.4529C145.357 93.3903 145.287 93.3403 145.21 93.3061C145.132 93.2719 145.048 93.2543 144.963 93.2543C144.879 93.2543 144.795 93.2719 144.717 93.3061C144.639 93.3403 144.57 93.3903 144.512 93.4529C144.455 93.5155 144.412 93.5893 144.384 93.6697C144.357 93.7501 144.347 93.8352 144.355 93.9197C144.347 94.0042 144.357 94.0894 144.384 94.1697C144.412 94.2501 144.455 94.3239 144.512 94.3865C144.57 94.4491 144.639 94.4991 144.717 94.5333C144.795 94.5675 144.879 94.5851 144.963 94.5851C145.048 94.5851 145.132 94.5675 145.21 94.5333C145.287 94.4991 145.357 94.4491 145.414 94.3865C145.472 94.3239 145.515 94.2501 145.542 94.1697C145.57 94.0894 145.58 94.0042 145.572 93.9197Z" fill="#263238"/>
<path d="M147.767 93.732V94.8197H147.454V94.5839C147.386 94.6735 147.295 94.744 147.191 94.7887C147.088 94.8334 146.974 94.8507 146.862 94.839C146.458 94.839 146.198 94.6224 146.198 94.3096C146.198 93.9967 146.386 93.7849 146.92 93.7849H147.44V93.7176C147.44 93.4432 147.281 93.2844 146.958 93.2844C146.751 93.281 146.549 93.349 146.386 93.4769L146.251 93.2314C146.465 93.0733 146.726 92.9919 146.992 93.0004C147.488 93.0245 147.767 93.2411 147.767 93.732ZM147.44 94.271V94.0208H146.934C146.612 94.0208 146.52 94.1459 146.52 94.2951C146.52 94.4443 146.67 94.5887 146.92 94.5887C147.029 94.5972 147.138 94.571 147.231 94.514C147.325 94.457 147.398 94.3719 147.44 94.271Z" fill="#263238"/>
<path d="M150.082 92.2977V94.8197H149.769V94.5358C149.695 94.6348 149.598 94.7141 149.487 94.767C149.375 94.8199 149.252 94.8446 149.129 94.839C148.885 94.839 148.651 94.7421 148.479 94.5697C148.307 94.3973 148.21 94.1635 148.21 93.9197C148.21 93.6759 148.307 93.4421 148.479 93.2697C148.651 93.0973 148.885 93.0004 149.129 93.0004C149.249 92.9963 149.368 93.0202 149.476 93.0704C149.585 93.1206 149.68 93.1955 149.755 93.2892V92.2977H150.082ZM149.759 93.9197C149.754 93.8011 149.714 93.6869 149.644 93.591C149.574 93.4951 149.477 93.4219 149.366 93.3804C149.255 93.3389 149.134 93.331 149.018 93.3575C148.902 93.3841 148.797 93.444 148.715 93.5298C148.633 93.6157 148.578 93.7237 148.557 93.8405C148.536 93.9573 148.549 94.0777 148.596 94.1868C148.643 94.296 148.72 94.389 148.819 94.4545C148.918 94.5199 149.034 94.5549 149.153 94.555C149.236 94.5572 149.318 94.5421 149.395 94.5106C149.471 94.4791 149.54 94.4319 149.597 94.372C149.654 94.3121 149.698 94.2409 149.726 94.163C149.754 94.0851 149.766 94.0022 149.759 93.9197Z" fill="#263238"/>
<path d="M150.645 92.4614C150.643 92.4172 150.654 92.3735 150.678 92.3359C150.701 92.2982 150.735 92.2683 150.775 92.2501C150.815 92.2319 150.86 92.2261 150.903 92.2335C150.947 92.2409 150.987 92.2612 151.019 92.2918C151.051 92.3223 151.073 92.3617 151.083 92.4049C151.092 92.4481 151.088 92.4931 151.072 92.5341C151.055 92.5751 151.027 92.6103 150.99 92.6351C150.954 92.6598 150.911 92.6731 150.866 92.6731C150.838 92.6744 150.809 92.6699 150.782 92.6599C150.756 92.6498 150.731 92.6344 150.71 92.6146C150.69 92.5948 150.673 92.5711 150.662 92.5447C150.651 92.5184 150.645 92.49 150.645 92.4614ZM150.703 93.0197H151.03V94.8197H150.703V93.0197Z" fill="#263238"/>
<path d="M153.369 93.785V94.8198H153.042V93.8235C153.042 93.4673 152.864 93.294 152.56 93.294C152.482 93.2878 152.402 93.2991 152.328 93.3272C152.254 93.3554 152.187 93.3996 152.133 93.4567C152.078 93.5138 152.036 93.5824 152.011 93.6575C151.986 93.7326 151.978 93.8123 151.988 93.8908V94.8198H151.66V93.0245H151.973V93.294C152.051 93.1978 152.15 93.1215 152.263 93.0713C152.376 93.0211 152.5 92.9984 152.623 93.0053C152.726 92.9983 152.829 93.0139 152.925 93.0511C153.021 93.0883 153.107 93.1462 153.178 93.2206C153.25 93.2949 153.304 93.384 153.336 93.4816C153.369 93.5791 153.381 93.6827 153.369 93.785Z" fill="#263238"/>
<path d="M155.703 93.0245V94.579C155.722 94.7058 155.711 94.8352 155.671 94.9568C155.63 95.0785 155.562 95.1889 155.471 95.2793C155.38 95.3697 155.269 95.4375 155.148 95.4772C155.026 95.5169 154.896 95.5274 154.77 95.5079C154.46 95.5214 154.155 95.4261 153.908 95.2384L154.062 94.9833C154.261 95.14 154.507 95.2233 154.76 95.2192C155.183 95.2192 155.376 95.0218 155.376 94.6127V94.4683C155.295 94.5605 155.195 94.6334 155.083 94.6817C154.97 94.7301 154.849 94.7525 154.726 94.7475C154.606 94.7564 154.485 94.7405 154.372 94.7006C154.258 94.6607 154.154 94.5979 154.065 94.5159C153.977 94.4339 153.907 94.3345 153.858 94.2241C153.81 94.1136 153.785 93.9944 153.785 93.874C153.785 93.7535 153.81 93.6342 153.858 93.5238C153.907 93.4133 153.977 93.314 154.065 93.232C154.154 93.15 154.258 93.0871 154.372 93.0473C154.485 93.0074 154.606 92.9915 154.726 93.0004C154.853 92.9955 154.98 93.0198 155.096 93.0716C155.212 93.1233 155.314 93.2011 155.395 93.2988V93.0245H155.703ZM155.386 93.8763C155.391 93.7525 155.36 93.6297 155.295 93.5239C155.231 93.4181 155.136 93.334 155.023 93.2826C154.91 93.2311 154.785 93.2146 154.662 93.2352C154.54 93.2558 154.427 93.3126 154.337 93.3981C154.247 93.4837 154.185 93.5942 154.159 93.7153C154.132 93.8365 154.143 93.9628 154.189 94.0779C154.235 94.193 154.314 94.2918 154.417 94.3614C154.52 94.4309 154.641 94.4682 154.765 94.4683C154.846 94.4737 154.927 94.4622 155.003 94.4344C155.079 94.4066 155.149 94.3633 155.207 94.3071C155.265 94.2509 155.312 94.1832 155.342 94.1082C155.373 94.0332 155.388 93.9526 155.386 93.8715V93.8763Z" fill="#263238"/>
<path d="M156.175 94.6079C156.174 94.5774 156.18 94.5471 156.191 94.5188C156.203 94.4904 156.22 94.4647 156.241 94.4431C156.263 94.4215 156.289 94.4045 156.317 94.3932C156.345 94.3818 156.376 94.3763 156.406 94.3769C156.47 94.3769 156.531 94.4023 156.576 94.4474C156.621 94.4925 156.647 94.5537 156.647 94.6176C156.647 94.6814 156.621 94.7426 156.576 94.7877C156.531 94.8329 156.47 94.8582 156.406 94.8582C156.374 94.8591 156.342 94.853 156.312 94.8405C156.282 94.828 156.256 94.8092 156.234 94.7855C156.212 94.7618 156.195 94.7337 156.185 94.7031C156.175 94.6724 156.172 94.64 156.175 94.6079Z" fill="#263238"/>
<path d="M156.945 94.6079C156.944 94.5774 156.95 94.5471 156.961 94.5188C156.973 94.4904 156.99 94.4647 157.011 94.4431C157.033 94.4215 157.059 94.4045 157.087 94.3932C157.115 94.3818 157.146 94.3763 157.176 94.3769C157.24 94.3769 157.301 94.4023 157.346 94.4474C157.391 94.4925 157.417 94.5537 157.417 94.6176C157.417 94.6814 157.391 94.7426 157.346 94.7877C157.301 94.8329 157.24 94.8582 157.176 94.8582C157.144 94.8591 157.112 94.853 157.082 94.8405C157.052 94.828 157.026 94.8092 157.004 94.7855C156.982 94.7618 156.965 94.7337 156.955 94.7031C156.945 94.6724 156.942 94.64 156.945 94.6079Z" fill="#263238"/>
<path d="M157.701 94.6079C157.7 94.5774 157.705 94.5471 157.717 94.5188C157.728 94.4904 157.745 94.4647 157.767 94.4431C157.788 94.4215 157.814 94.4045 157.842 94.3932C157.871 94.3818 157.901 94.3763 157.932 94.3769C157.995 94.3769 158.057 94.4023 158.102 94.4474C158.147 94.4925 158.172 94.5537 158.172 94.6176C158.172 94.6814 158.147 94.7426 158.102 94.7877C158.057 94.8329 157.995 94.8582 157.932 94.8582C157.899 94.8591 157.867 94.853 157.838 94.8405C157.808 94.828 157.781 94.8092 157.759 94.7855C157.737 94.7618 157.721 94.7337 157.711 94.7031C157.701 94.6724 157.697 94.64 157.701 94.6079Z" fill="#263238"/>
<path d="M146.188 82.436C146.188 83.0039 145.779 83.466 144.932 83.466C144.493 83.4757 144.064 83.3328 143.719 83.0617L143.936 82.6911C144.212 82.9247 144.565 83.0496 144.927 83.0425C145.408 83.0425 145.712 82.8114 145.712 82.4505C145.712 82.0895 145.476 81.8488 144.71 81.8488H143.96L144.133 80.1162H146V80.5108H144.532L144.441 81.4205H144.812C145.798 81.4109 146.188 81.8248 146.188 82.436Z" fill="#0A1128"/>
<path d="M146.578 81.7478C146.578 80.6697 147.156 80.0536 147.931 80.0536C148.705 80.0536 149.278 80.6697 149.278 81.7478C149.278 82.8259 148.701 83.4419 147.931 83.4419C147.16 83.4419 146.578 82.8259 146.578 81.7478ZM148.807 81.7478C148.807 80.9007 148.446 80.4771 147.931 80.4771C147.416 80.4771 147.05 80.9007 147.05 81.7478C147.05 82.5948 147.411 83.0184 147.931 83.0184C148.45 83.0184 148.807 82.5948 148.807 81.7478Z" fill="#0A1128"/>
<path d="M149.682 80.9922C149.668 80.8811 149.676 80.7681 149.708 80.6606C149.739 80.5531 149.793 80.4535 149.866 80.3682C149.938 80.2828 150.028 80.2137 150.129 80.1653C150.23 80.117 150.34 80.0904 150.452 80.0873C150.91 80.0873 151.218 80.4483 151.218 80.9922C151.218 81.536 150.91 81.8922 150.452 81.8922C150.341 81.8898 150.231 81.8638 150.13 81.816C150.029 81.7681 149.939 81.6995 149.866 81.6145C149.793 81.5295 149.739 81.4302 149.708 81.3229C149.676 81.2157 149.667 81.103 149.682 80.9922ZM150.915 80.9922C150.915 80.5927 150.741 80.3568 150.433 80.3568C150.125 80.3568 149.952 80.5975 149.952 80.9922C149.952 81.3868 150.135 81.6226 150.433 81.6226C150.732 81.6226 150.915 81.3627 150.915 80.9922ZM152.445 80.1162H152.811L150.549 83.4275H150.188L152.445 80.1162ZM151.781 82.5515C151.805 82.4044 151.87 82.2673 151.97 82.1563C152.069 82.0453 152.199 81.9651 152.342 81.9253C152.486 81.8855 152.638 81.8877 152.78 81.9316C152.923 81.9756 153.05 82.0594 153.146 82.1732C153.242 82.287 153.304 82.426 153.323 82.5737C153.343 82.7215 153.32 82.8718 153.257 83.0068C153.194 83.1418 153.093 83.2559 152.967 83.3356C152.841 83.4153 152.695 83.4572 152.546 83.4564C152.432 83.4531 152.32 83.4255 152.218 83.3753C152.115 83.3252 152.025 83.2538 151.952 83.1658C151.88 83.0778 151.827 82.9753 151.798 82.8652C151.768 82.7551 151.762 82.64 151.781 82.5275V82.5515ZM153.008 82.5515C153.008 82.1617 152.83 81.9162 152.527 81.9162C152.224 81.9162 152.046 82.1569 152.046 82.5515C152.046 82.9462 152.219 83.1869 152.527 83.1869C152.835 83.1869 153.008 82.9173 153.008 82.5275V82.5515Z" fill="#0A1128"/>
<path d="M174.82 89.2126C174.82 89.2126 174.926 89.2127 175.128 89.1693C175.521 89.0903 175.873 88.873 176.119 88.5569C176.366 88.2407 176.491 87.8467 176.471 87.4463C176.456 87.1122 176.339 86.7908 176.136 86.525C175.933 86.2592 175.654 86.0617 175.335 85.9591C174.944 85.8719 174.541 85.8443 174.142 85.8773H172.799H169.748H162.321L119.303 85.911C119.06 85.9113 118.82 85.968 118.602 86.0766C118.384 86.1851 118.194 86.3426 118.047 86.5367C117.901 86.7296 117.801 86.9536 117.756 87.1914C117.711 87.4291 117.722 87.6741 117.787 87.9071C117.852 88.1401 117.97 88.3549 118.132 88.5346C118.294 88.7143 118.496 88.8542 118.721 88.9431C118.946 89.0288 119.187 89.0665 119.428 89.0538H137.66L157.003 89.0827L170.041 89.1212H173.583H174.508H174.82H174.508H173.583L170.041 89.1453L157.003 89.1838L137.66 89.2126H126.239H119.428C119.154 89.2238 118.881 89.1796 118.625 89.0827C118.232 88.9257 117.906 88.6366 117.703 88.2652C117.5 87.8938 117.433 87.4633 117.514 87.0479C117.594 86.6324 117.817 86.258 118.143 85.989C118.47 85.72 118.88 85.5733 119.303 85.5741L162.321 85.6126H169.748H172.799H174.142C174.552 85.5842 174.963 85.615 175.364 85.704C175.698 85.8172 175.989 86.0285 176.2 86.3102C176.412 86.5919 176.533 86.9309 176.548 87.2827C176.558 87.5379 176.511 87.7921 176.41 88.0268C176.309 88.2616 176.157 88.471 175.966 88.6399C175.732 88.8485 175.443 88.9855 175.133 89.0346C175.039 89.1095 174.933 89.1696 174.82 89.2126Z" fill="#263238"/>
<path d="M136.966 65.7381V68.5095C136.966 68.8084 136.903 69.0759 136.776 69.3123C136.651 69.5486 136.461 69.7361 136.207 69.8748C135.954 70.0115 135.634 70.0798 135.249 70.0798C134.701 70.0798 134.283 69.9363 133.996 69.6492C133.71 69.3601 133.568 68.9763 133.568 68.4978V65.7381H134.271V68.4363C134.271 68.7937 134.355 69.0574 134.523 69.2273C134.691 69.3972 134.942 69.4822 135.276 69.4822C135.506 69.4822 135.694 69.4422 135.838 69.3621C135.985 69.28 136.092 69.1609 136.161 69.0047C136.231 68.8465 136.266 68.656 136.266 68.4334V65.7381H136.966ZM139.656 66.7166C140.04 66.7166 140.349 66.8572 140.581 67.1384C140.816 67.4197 140.933 67.8377 140.933 68.3923C140.933 68.7595 140.878 69.0691 140.769 69.3211C140.662 69.5711 140.51 69.7605 140.315 69.8894C140.121 70.0164 139.896 70.0798 139.638 70.0798C139.474 70.0798 139.331 70.0584 139.21 70.0154C139.089 69.9724 138.986 69.9168 138.9 69.8484C138.814 69.7781 138.742 69.7019 138.683 69.6199H138.642C138.652 69.698 138.661 69.7849 138.668 69.8806C138.678 69.9744 138.683 70.0603 138.683 70.1384V71.4597H137.992V66.7781H138.554L138.651 67.2263H138.683C138.744 67.1345 138.817 67.0496 138.903 66.9715C138.991 66.8933 139.096 66.8318 139.219 66.7869C139.344 66.74 139.49 66.7166 139.656 66.7166ZM139.471 67.2791C139.282 67.2791 139.129 67.3172 139.014 67.3933C138.901 67.4675 138.818 67.5798 138.765 67.7302C138.714 67.8806 138.687 68.0691 138.683 68.2957V68.3923C138.683 68.6326 138.707 68.8367 138.756 69.0047C138.807 69.1707 138.89 69.2976 139.005 69.3855C139.122 69.4715 139.281 69.5144 139.48 69.5144C139.648 69.5144 139.787 69.4685 139.896 69.3767C140.007 69.2849 140.09 69.1541 140.145 68.9841C140.2 68.8142 140.227 68.614 140.227 68.3836C140.227 68.034 140.164 67.7625 140.039 67.5691C139.916 67.3757 139.727 67.2791 139.471 67.2791ZM142.421 70.0213H141.73V65.4627H142.421V70.0213ZM146.277 68.3923C146.277 68.6619 146.242 68.9011 146.171 69.1101C146.101 69.3191 145.998 69.4959 145.864 69.6404C145.729 69.783 145.567 69.8923 145.377 69.9685C145.188 70.0427 144.974 70.0798 144.736 70.0798C144.513 70.0798 144.309 70.0427 144.123 69.9685C143.938 69.8923 143.777 69.783 143.64 69.6404C143.505 69.4959 143.401 69.3191 143.327 69.1101C143.252 68.9011 143.215 68.6619 143.215 68.3923C143.215 68.0349 143.277 67.7322 143.4 67.4841C143.525 67.2341 143.703 67.0437 143.933 66.9129C144.163 66.782 144.438 66.7166 144.756 66.7166C145.055 66.7166 145.319 66.782 145.547 66.9129C145.776 67.0437 145.954 67.2341 146.083 67.4841C146.212 67.7341 146.277 68.0369 146.277 68.3923ZM143.924 68.3923C143.924 68.6287 143.953 68.8308 144.009 68.9988C144.068 69.1668 144.158 69.2957 144.279 69.3855C144.4 69.4734 144.556 69.5173 144.747 69.5173C144.939 69.5173 145.095 69.4734 145.216 69.3855C145.337 69.2957 145.426 69.1668 145.483 68.9988C145.539 68.8308 145.568 68.6287 145.568 68.3923C145.568 68.156 145.539 67.9558 145.483 67.7918C145.426 67.6257 145.337 67.4998 145.216 67.4138C145.095 67.3259 144.938 67.282 144.745 67.282C144.459 67.282 144.251 67.3777 144.121 67.5691C143.99 67.7605 143.924 68.0349 143.924 68.3923ZM148.339 66.7166C148.749 66.7166 149.059 66.8074 149.268 66.989C149.479 67.1707 149.584 67.4539 149.584 67.8386V70.0213H149.095L148.963 69.5613H148.94C148.848 69.6785 148.753 69.7752 148.656 69.8513C148.558 69.9275 148.445 69.9841 148.316 70.0213C148.189 70.0603 148.034 70.0798 147.85 70.0798C147.657 70.0798 147.484 70.0447 147.331 69.9744C147.179 69.9021 147.059 69.7927 146.971 69.6463C146.883 69.4998 146.839 69.3142 146.839 69.0896C146.839 68.7556 146.963 68.5047 147.211 68.3367C147.461 68.1687 147.838 68.0759 148.342 68.0584L148.905 68.0379V67.8679C148.905 67.6433 148.852 67.4832 148.746 67.3875C148.643 67.2918 148.496 67.2439 148.307 67.2439C148.145 67.2439 147.988 67.2673 147.835 67.3142C147.683 67.3611 147.535 67.4187 147.39 67.4871L147.167 67.0007C147.326 66.9168 147.505 66.8484 147.706 66.7957C147.91 66.7429 148.121 66.7166 148.339 66.7166ZM148.902 68.4715L148.483 68.4861C148.139 68.4978 147.898 68.5564 147.759 68.6619C147.621 68.7673 147.551 68.9119 147.551 69.0955C147.551 69.2556 147.599 69.3728 147.695 69.447C147.79 69.5193 147.916 69.5554 148.073 69.5554C148.311 69.5554 148.508 69.4881 148.664 69.3533C148.823 69.2166 148.902 69.0164 148.902 68.7527V68.4715ZM151.638 70.0798C151.251 70.0798 150.941 69.9392 150.706 69.658C150.474 69.3748 150.358 68.9578 150.358 68.407C150.358 67.8504 150.476 67.4295 150.712 67.1443C150.951 66.8591 151.264 66.7166 151.653 66.7166C151.817 66.7166 151.96 66.739 152.083 66.784C152.206 66.8269 152.312 66.8855 152.4 66.9597C152.49 67.034 152.566 67.117 152.628 67.2088H152.661C152.651 67.1482 152.639 67.0613 152.625 66.948C152.614 66.8328 152.608 66.7263 152.608 66.6287V65.4627H153.299V70.0213H152.76L152.637 69.5789H152.608C152.549 69.6726 152.475 69.7576 152.385 69.8338C152.297 69.908 152.192 69.9675 152.069 70.0125C151.948 70.0574 151.804 70.0798 151.638 70.0798ZM151.831 69.5203C152.126 69.5203 152.334 69.4353 152.455 69.2654C152.577 69.0955 152.639 68.8406 152.643 68.5007V68.4099C152.643 68.0466 152.584 67.7683 152.467 67.575C152.35 67.3797 152.136 67.282 151.826 67.282C151.578 67.282 151.388 67.3826 151.257 67.5838C151.128 67.783 151.064 68.0613 151.064 68.4187C151.064 68.7761 151.128 69.0496 151.257 69.239C151.388 69.4265 151.579 69.5203 151.831 69.5203ZM157.741 66.2742C157.536 66.2742 157.352 66.3113 157.19 66.3855C157.03 66.4597 156.894 66.5672 156.783 66.7078C156.671 66.8465 156.586 67.0154 156.528 67.2146C156.469 67.4119 156.44 67.6345 156.44 67.8826C156.44 68.2146 156.487 68.5007 156.58 68.741C156.674 68.9793 156.817 69.1629 157.008 69.2918C157.2 69.4187 157.442 69.4822 157.735 69.4822C157.916 69.4822 158.093 69.4646 158.265 69.4295C158.437 69.3943 158.615 69.3465 158.798 69.2859V69.8836C158.624 69.9519 158.449 70.0017 158.271 70.033C158.093 70.0642 157.888 70.0798 157.656 70.0798C157.218 70.0798 156.855 69.989 156.566 69.8074C156.279 69.6257 156.064 69.3699 155.921 69.0398C155.781 68.7097 155.71 68.323 155.71 67.8797C155.71 67.5554 155.755 67.2586 155.845 66.989C155.935 66.7195 156.066 66.4871 156.238 66.2918C156.41 66.0945 156.621 65.9431 156.873 65.8377C157.127 65.7302 157.417 65.6765 157.744 65.6765C157.958 65.6765 158.169 65.7009 158.376 65.7498C158.585 65.7966 158.779 65.864 158.956 65.9519L158.71 66.532C158.562 66.4617 158.407 66.4011 158.245 66.3504C158.082 66.2996 157.914 66.2742 157.741 66.2742ZM162.894 65.7381L161.397 70.0213H160.653L159.156 65.7381H159.876L160.779 68.4216C160.806 68.4998 160.835 68.5945 160.867 68.7058C160.9 68.8172 160.93 68.9295 160.957 69.0427C160.987 69.156 161.009 69.2566 161.025 69.3445C161.04 69.2566 161.062 69.156 161.089 69.0427C161.119 68.9295 161.149 68.8172 161.18 68.7058C161.211 68.5945 161.241 68.4988 161.268 68.4187L162.173 65.7381H162.894Z" fill="black"/>
</svg>
