<?xml version="1.0" encoding="utf-8"?>
<!-- Generator: Adobe Illustrator 26.1.0, SVG Export Plug-In . SVG Version: 6.00 Build 0)  -->
<svg version="1.1" id="Layer_1" xmlns="http://www.w3.org/2000/svg" xmlns:xlink="http://www.w3.org/1999/xlink" x="0px" y="0px"
	 viewBox="0 0 77.3 14.4" style="enable-background:new 0 0 77.3 14.4;" xml:space="preserve">
<style type="text/css">
	.st0{fill:#0A1128;}
	.st1{font-family:'Arial-BoldMT';}
	.st2{font-size:12.87px;}
	.st3{fill:#FEFCFB;stroke:#0A1128;stroke-miterlimit:10;}
</style>
<g id="Layer_2_00000035531182080317272250000014006106960499651514_">
	<g id="OBJECTS">
		<text transform="matrix(1 0 0 1 30.84 10.9399)" class="st0 st1 st2">Hi</text>
		<text transform="matrix(1 0 0 1 45.24 10.9399)" class="st0 st1 st2">r</text>
		<text transform="matrix(1 0 0 1 50.86 10.9399)" class="st0 st1 st2">e</text>
		<text transform="matrix(1 0 0 1 59.12 10.9399)" class="st0 st1 st2">.</text>
		<text transform="matrix(1 0 0 1 63.16 10.9399)" class="st0 st1 st2">Ai</text>
		<path class="st3" d="M23.5,4.8h-4.1c0.1-0.4,0.2-0.8,0.2-1.2c0-1.7-1.4-3.2-3.2-3.2c0,0,0,0,0,0H3.2c-1.7-0.1-3.2,1.2-3.3,3
			s1.2,3.2,3,3.3c0.1,0,0.2,0,0.4,0h4.1C7.1,7.2,7,7.6,7,8c0,1.7,1.4,3.2,3.2,3.2c0,0,0,0,0,0h13.3c1.7,0.1,3.2-1.2,3.3-3
			c0.1-1.7-1.2-3.2-3-3.3C23.7,4.8,23.6,4.8,23.5,4.8L23.5,4.8z"/>
	</g>
</g>
</svg>
